<svg xmlns="http://www.w3.org/2000/svg" xmlns:xlink="http://www.w3.org/1999/xlink" viewBox="0 0 1920 474"><defs><style>.cls-1{fill:url(#linear-gradient);}</style><linearGradient id="linear-gradient" x1="12.19" y1="217.72" x2="1913.26" y2="-230.58" gradientTransform="translate(1920 272) rotate(180)" gradientUnits="userSpaceOnUse"><stop offset="0" stop-color="#208b73"/><stop offset="1" stop-color="#175f4c"/></linearGradient></defs><title>Asset 4</title><g id="Layer_2" data-name="Layer 2"><g id="Layer_1-2" data-name="Layer 1"><path class="cls-1" d="M0,474V120a120,120,0,0,0,240,0c0-1.34.08-4,.08-4a120,120,0,0,1,239.84,0s.08,2.66.08,4a120,120,0,0,0,240,0c0-1.34.08-4,.08-4a120,120,0,0,1,239.84,0s.08,2.66.08,4a120,120,0,0,0,240,0c0-1.34.08-4,.08-4a120,120,0,0,1,239.84,0s.08,2.66.08,4a120,120,0,0,0,240,0c0-1.34.08-4,.08-4a120,120,0,0,1,239.84,0c.06,1.33.08,2.66.08,4V474Z"/></g></g></svg>