<svg xmlns="http://www.w3.org/2000/svg" xmlns:xlink="http://www.w3.org/1999/xlink" viewBox="0 0 1920 734"><defs><style>.cls-1{fill:url(#linear-gradient);}</style><linearGradient id="linear-gradient" x1="-16.85" y1="556.57" x2="1942.3" y2="94.57" gradientUnits="userSpaceOnUse"><stop offset="0" stop-color="#208b73"/><stop offset="1" stop-color="#175f4c"/></linearGradient></defs><title>Asset 1</title><g id="Layer_2" data-name="Layer 2"><g id="Layer_1-2" data-name="Layer 1"><path class="cls-1" d="M1920,0V614a120,120,0,0,0-240,0c0,1.34-.08,4-.08,4a120,120,0,0,1-239.84,0s-.08-2.66-.08-4a120,120,0,0,0-240,0c0,1.34-.08,4-.08,4a120,120,0,0,1-239.84,0s-.08-2.66-.08-4a120,120,0,0,0-240,0c0,1.34-.08,4-.08,4a120,120,0,0,1-239.84,0s-.08-2.66-.08-4a120,120,0,0,0-240,0c0,1.34-.08,4-.08,4A120,120,0,0,1,.08,618C0,616.67,0,615.34,0,614V0Z"/></g></g></svg>