<?xml version="1.0" standalone="no"?>
<!DOCTYPE svg PUBLIC "-//W3C//DTD SVG 1.1//EN" "http://www.w3.org/Graphics/SVG/1.1/DTD/svg11.dtd" >
<svg xmlns="http://www.w3.org/2000/svg" xmlns:xlink="http://www.w3.org/1999/xlink" version="1.1">
<metadata>
Created by FontForge 20170731 at Sat Aug 22 22:21:28 2020
 By Aleksey,,,
Copyright (c) 2009 by Luc[as] de Groot. Published by LucasFonts www.LucasFonts.com. All rights reserved.
</metadata>
<defs>
<font id="TheSansArabic-Light" horiz-adv-x="0" >
  <font-face 
    font-family="TheSansArabic Light"
    font-weight="300"
    font-stretch="normal"
    units-per-em="2048"
    panose-1="2 11 3 2 5 3 2 2 2 3"
    ascent="1516"
    descent="-532"
    x-height="1018"
    cap-height="1382"
    bbox="-449 -655 2454 2007"
    underline-thickness="102"
    underline-position="-567"
    unicode-range="U+000D-FEFC"
  />
<missing-glyph horiz-adv-x="1126" 
d="M614 307h-307v512h103v-409h204v-103zM1024 102h-922v922h922v-922zM717 717h-205v102h307v-512h-102v205h-205v102h205v103zM205 205h717v717h-717v-717z" />
    <glyph glyph-name="uniFEF5" unicode="&#xfedf;&#xfe82;" horiz-adv-x="1171" arabic-form="isolated" 
d="M236 1452l350 -1141h-131l-346 1123zM963 0h-766v104h634v1340h132v-1444zM16 1645l-61 75l160 121l5 -5q6 -6 14.5 -13t20.5 -16.5t28.5 -18.5t34.5 -16.5t41 -12t46 -4.5q36 0 72 9.5t58.5 21t45.5 28t29 22t12 11.5v-118l-6 -5q-5 -5 -14 -11.5t-22 -15t-31.5 -16.5
t-40 -15t-50 -11t-59.5 -4q-51 0 -98.5 18t-62.5 29.5t-23 19.5z" />
    <glyph glyph-name="uniFEF6" unicode="&#xfee0;&#xfe82;" horiz-adv-x="1171" arabic-form="final" 
d="M197 0v104h634v1340h132v-1340h239v-104h-1005zM236 1452l350 -1141h-131l-346 1123zM16 1645l-61 75l160 121l5 -5q6 -6 14.5 -13t20.5 -16.5t28.5 -18.5t34.5 -16.5t41 -12t46 -4.5q36 0 72 9.5t58.5 21t45.5 28t29 22t12 11.5v-118l-6 -5q-5 -5 -14 -11.5t-22 -15
t-31.5 -16.5t-40 -15t-50 -11t-59.5 -4q-51 0 -98.5 18t-62.5 29.5t-23 19.5z" />
    <glyph glyph-name="uniFEF7" unicode="&#xfedf;&#xfe84;" horiz-adv-x="1212" arabic-form="isolated" 
d="M342 1235l285 -924h-131l-287 924h133zM1004 0h-766v104h634v1336h132v-1440zM10 1311v86q96 0 133 -6q-45 25 -45 84q0 70 55.5 115.5t153.5 45.5q64 0 105 -10l-15 -88q-46 12 -94 12q-47 0 -73.5 -19.5t-26.5 -53.5q0 -37 35 -58.5t104 -21.5h119v-86h-451z" />
    <glyph glyph-name="uniFEF8" unicode="&#xfee0;&#xfe84;" horiz-adv-x="1212" arabic-form="final" 
d="M1243 0h-1005v104h634v1336h132v-1336h239v-104zM342 1235l285 -924h-131l-287 924h133zM10 1311v86q96 0 133 -6q-45 25 -45 84q0 70 55.5 115.5t153.5 45.5q64 0 105 -10l-15 -88q-46 12 -94 12q-47 0 -73.5 -19.5t-26.5 -53.5q0 -37 35 -58.5t104 -21.5h119v-86h-451z
" />
    <glyph glyph-name="uniFEF9" unicode="&#xfedf;&#xfe88;" horiz-adv-x="1171" arabic-form="isolated" 
d="M236 1452l350 -1141h-131l-346 1123zM963 0h-766v104h634v1340h132v-1444zM330 -498v86q96 0 133 -6q-45 25 -45 84q0 69 55.5 115.5t151.5 46.5q62 0 106 -10l-14 -88q-49 12 -96 12q-45 0 -73 -20.5t-28 -53.5q0 -80 139 -80h121v-86h-450z" />
    <glyph glyph-name="uniFEFA" unicode="&#xfee0;&#xfe88;" horiz-adv-x="1171" arabic-form="final" 
d="M1202 0h-1005v104h634v1340h132v-1340h239v-104zM236 1452l350 -1141h-131l-346 1123zM330 -498v86q96 0 133 -6q-45 25 -45 84q0 69 55.5 115.5t151.5 46.5q62 0 106 -10l-14 -88q-49 12 -96 12q-45 0 -73 -20.5t-28 -53.5q0 -80 139 -80h121v-86h-450z" />
    <glyph glyph-name="uniFEFB" unicode="&#xfedf;&#xfe8e;" horiz-adv-x="1171" arabic-form="isolated" 
d="M236 1452l350 -1141h-131l-346 1123zM963 0h-766v104h634v1340h132v-1444z" />
    <glyph glyph-name="uniFEFC" unicode="&#xfee0;&#xfe8e;" horiz-adv-x="1171" arabic-form="final" 
d="M1202 0h-1005v104h634v1340h132v-1340h239v-104zM236 1452l350 -1141h-131l-346 1123z" />
    <glyph glyph-name="uni0621" unicode="&#x621;" horiz-adv-x="1085" arabic-form="isolated" 
d="M115 0v102q150 0 282 -8q-63 23 -98 77t-35 128q0 56 21.5 107t64.5 94t117.5 68.5t171.5 25.5q99 0 168 -14l-14 -107q-102 19 -177 19q-106 0 -163.5 -50.5t-57.5 -134.5q0 -92 74.5 -148.5t232.5 -56.5h187v-102h-774z" />
    <glyph glyph-name="uni0622" unicode="&#x622;" horiz-adv-x="548" arabic-form="isolated" 
d="M209 0v1444h131v-1444h-131zM20 1645l-61 75l160 121l5 -5q6 -6 14.5 -13t20.5 -16.5t28.5 -18.5t34.5 -16.5t41 -12t46 -4.5q36 0 72 9.5t58.5 21t45.5 28t29 22t12 11.5v-118l-6 -5q-5 -5 -14 -11.5t-22 -15t-31.5 -16.5t-40 -15t-50 -11t-59.5 -4q-51 0 -98.5 18
t-62.5 29.5t-23 19.5z" />
    <glyph glyph-name="uni0623" unicode="&#x623;" horiz-adv-x="548" arabic-form="isolated" 
d="M209 0v1382h131v-1382h-131zM14 1501v86q100 0 162 -10q-33 14 -51.5 46.5t-18.5 64.5q0 76 59 130t177 54q63 0 104 -8l-14 -86q-50 8 -100 8q-60 0 -91.5 -25.5t-31.5 -68.5q0 -47 42 -76t130 -29h106v-86h-473z" />
    <glyph glyph-name="uni0624" unicode="&#x624;" horiz-adv-x="1196" arabic-form="isolated" 
d="M434 -520q-71 0 -152.5 9t-127.5 17l-45 9l10 114q182 -45 334 -45q90 0 162.5 18.5t131 58.5t91 110t32.5 166v63h-237q-282 0 -407.5 124t-125.5 357q0 102 32 192t93 159.5t157.5 110t217.5 40.5q95 0 194.5 -18t151.5 -36l53 -18v-974q0 -67 -17 -129t-58.5 -122.5
t-104.5 -105.5t-162 -72.5t-223 -27.5zM870 104v721q-13 6 -36.5 15t-98.5 24t-151 15q-161 0 -254.5 -104t-93.5 -279q0 -202 99 -297t320 -95h215zM322 1176v88q89 0 161 -11q-33 13 -51 45t-18 66q0 76 58.5 131t178.5 55q41 0 103 -8l-15 -88q-50 8 -98 8
q-60 0 -91.5 -25t-31.5 -69q0 -46 41.5 -75t128.5 -29h107v-88h-473z" />
    <glyph glyph-name="uni0625" unicode="&#x625;" horiz-adv-x="548" arabic-form="isolated" 
d="M209 0v1444h131v-1444h-131zM27 -498v86q96 0 133 -6q-45 25 -45 84q0 69 55.5 115.5t151.5 46.5q62 0 106 -10l-14 -88q-49 12 -97 12q-45 0 -72.5 -20.5t-27.5 -53.5q0 -80 139 -80h121v-86h-450z" />
    <glyph glyph-name="uni0626" unicode="&#x626;" horiz-adv-x="2048" arabic-form="isolated" 
d="M1188 0h-350q-361 0 -526 143.5t-165 444.5q0 97 21.5 194.5t52.5 161.5l139 25q-37 -74 -60.5 -174.5t-23.5 -188.5q0 -102 16.5 -178.5t56.5 -139.5t106 -102.5t166.5 -60.5t236.5 -21h201v840q170 39 344 39q240 0 344 -112t104 -332v-293h-129v270q0 193 -80 278
t-256 85q-43 0 -92.5 -5.5t-77.5 -10.5l-28 -5v-858zM100 1178v88q90 0 162 -11q-33 13 -51 45t-18 66q0 76 58.5 131t178.5 55q40 0 102 -8l-14 -88q-50 8 -98 8q-60 0 -91.5 -25t-31.5 -69q0 -46 41.5 -75t128.5 -29h106v-88h-473z" />
    <glyph glyph-name="uni0627" unicode="&#x627;" horiz-adv-x="548" arabic-form="isolated" 
d="M209 0v1444h131v-1444h-131z" />
    <glyph glyph-name="uni0628" unicode="&#x628;" horiz-adv-x="1583" arabic-form="isolated" 
d="M1384 0h-546q-361 0 -526 143.5t-165 444.5q0 97 21.5 194.5t52.5 161.5l139 25q-37 -74 -60.5 -174.5t-23.5 -188.5q0 -102 16.5 -178.5t56.5 -139.5t106 -102.5t166.5 -60.5t236.5 -21h397v859h129v-963zM805 -397q-37 0 -63.5 26t-26.5 64q0 37 26.5 63.5t63.5 26.5
t63.5 -26t26.5 -64q0 -37 -26.5 -63.5t-63.5 -26.5z" />
    <glyph glyph-name="uni0629" unicode="&#x629;" horiz-adv-x="1216" arabic-form="isolated" 
d="M1020 0h-387q-282 0 -407.5 124t-125.5 355q0 103 32.5 193t93 160t157 110.5t215.5 40.5q206 0 314 -115t108 -336v-532zM891 104v398q0 199 -78 288t-229 89q-161 0 -254.5 -104t-93.5 -281q0 -201 99 -295.5t320 -94.5h236zM725 1174q-37 0 -62.5 26t-25.5 64
q0 37 25.5 62.5t62.5 25.5t63.5 -25t26.5 -63q0 -37 -26.5 -63.5t-63.5 -26.5zM449 1174q-37 0 -63 26t-26 64q0 37 26 62.5t63 25.5q38 0 64 -25t26 -63q0 -37 -26 -63.5t-64 -26.5z" />
    <glyph glyph-name="uni062A" unicode="&#x62a;" horiz-adv-x="1583" arabic-form="isolated" 
d="M1384 0h-546q-361 0 -526 143.5t-165 444.5q0 97 21.5 194.5t52.5 161.5l139 25q-37 -74 -60.5 -174.5t-23.5 -188.5q0 -102 16.5 -178.5t56.5 -139.5t106 -102.5t166.5 -60.5t236.5 -21h397v859h129v-963zM958 1174q-37 0 -62.5 26t-25.5 64q0 37 25.5 62.5t62.5 25.5
t64 -25t27 -63q0 -37 -27 -63.5t-64 -26.5zM682 1174q-37 0 -62.5 26t-25.5 64q0 37 25.5 62.5t62.5 25.5q38 0 64 -25t26 -63q0 -37 -26 -63.5t-64 -26.5z" />
    <glyph glyph-name="uni062B" unicode="&#x62b;" horiz-adv-x="1583" arabic-form="isolated" 
d="M1384 0h-546q-361 0 -526 143.5t-165 444.5q0 97 21.5 194.5t52.5 161.5l139 25q-37 -74 -60.5 -174.5t-23.5 -188.5q0 -102 16.5 -178.5t56.5 -139.5t106 -102.5t166.5 -60.5t236.5 -21h397v859h129v-963zM821 1384q-36 0 -61 25.5t-25 63.5q0 37 25.5 62.5t60.5 25.5
q37 0 62.5 -25t25.5 -63q0 -37 -25.5 -63t-62.5 -26zM961 1174q-37 0 -64 26t-27 64q0 36 27 62t64 26t62.5 -25t25.5 -63q0 -37 -25.5 -63.5t-62.5 -26.5zM684 1174q-37 0 -62.5 26t-25.5 64q0 37 25.5 62.5t62.5 25.5t63.5 -25t26.5 -63q0 -37 -26.5 -63.5t-63.5 -26.5z
" />
    <glyph glyph-name="uni062C" unicode="&#x62c;" horiz-adv-x="1208" arabic-form="isolated" 
d="M1020 0h-369q-138 0 -233.5 -20.5t-146.5 -59.5t-72 -86t-21 -110q0 -117 109 -196t309 -79l-8 -104q-257 0 -398 104t-141 260q0 395 613 395h245q17 150 17 250q0 134 -24 226.5t-80 157.5t-149.5 95.5t-230.5 30.5q-112 0 -221 -14v102q130 17 234 17q165 0 281 -38
t186.5 -115.5t102.5 -186t32 -258.5q0 -165 -35 -371zM723 -397q-37 0 -63.5 26t-26.5 64q0 37 26.5 63.5t63.5 26.5t63.5 -26t26.5 -64q0 -37 -26.5 -63.5t-63.5 -26.5z" />
    <glyph glyph-name="uni062D" unicode="&#x62d;" horiz-adv-x="1204" arabic-form="isolated" 
d="M588 -655q-260 0 -399.5 101t-139.5 263q0 395 613 395h241q19 139 19 250q0 133 -24.5 226t-80.5 158t-149.5 95.5t-229.5 30.5q-112 0 -221 -14v102q125 17 232 17q165 0 281 -38t186.5 -115.5t102.5 -186t32 -258.5q0 -177 -33 -371h-367q-138 0 -233.5 -20.5
t-146.5 -59.5t-72 -86t-21 -110q0 -122 108.5 -198.5t311.5 -76.5q179 0 381 45l12 -102q-204 -47 -403 -47z" />
    <glyph glyph-name="uni062E" unicode="&#x62e;" horiz-adv-x="1204" arabic-form="isolated" 
d="M588 -655q-260 0 -399.5 101t-139.5 263q0 395 613 395h241q19 139 19 250q0 133 -24.5 226t-80.5 158t-149.5 95.5t-229.5 30.5q-112 0 -221 -14v102q125 17 232 17q165 0 281 -38t186.5 -115.5t102.5 -186t32 -258.5q0 -177 -33 -371h-367q-138 0 -233.5 -20.5
t-146.5 -59.5t-72 -86t-21 -110q0 -122 108.5 -198.5t311.5 -76.5q179 0 381 45l12 -102q-204 -47 -403 -47zM504 1217q-37 0 -63.5 26t-26.5 64q0 37 26.5 63.5t63.5 26.5t63.5 -26t26.5 -64q0 -37 -26.5 -63.5t-63.5 -26.5z" />
    <glyph glyph-name="uni062F" unicode="&#x62f;" horiz-adv-x="1087" arabic-form="isolated" 
d="M115 0v104h692q-2 323 -125.5 503t-415.5 278l37 110q226 -75 363 -189t203.5 -291.5t66.5 -436.5v-78h-821z" />
    <glyph glyph-name="uni0630" unicode="&#x630;" horiz-adv-x="1087" arabic-form="isolated" 
d="M115 0v104h692q-2 323 -125.5 503t-415.5 278l37 110q226 -75 363 -189t203.5 -291.5t66.5 -436.5v-78h-821zM403 1217q-37 0 -63.5 26t-26.5 64q0 37 26.5 63.5t63.5 26.5t64 -26t27 -64q0 -37 -27 -63.5t-64 -26.5z" />
    <glyph glyph-name="uni0631" unicode="&#x631;" horiz-adv-x="856" arabic-form="isolated" 
d="M205 -530q-136 0 -242 36l21 111q115 -43 233 -43q75 0 130.5 20t97 65t62.5 123t21 189v992h129v-973q0 -249 -106.5 -384.5t-345.5 -135.5z" />
    <glyph glyph-name="uni0632" unicode="&#x632;" horiz-adv-x="856" arabic-form="isolated" 
d="M205 -530q-136 0 -242 36l21 111q115 -43 233 -43q75 0 130.5 20t97 65t62.5 123t21 189v992h129v-973q0 -249 -106.5 -384.5t-345.5 -135.5zM590 1217q-37 0 -63.5 26t-26.5 64q0 37 26.5 63.5t63.5 26.5t63.5 -26t26.5 -64q0 -37 -26.5 -63.5t-63.5 -26.5z" />
    <glyph glyph-name="uni0633" unicode="&#x633;" horiz-adv-x="2406" arabic-form="isolated" 
d="M621 -473q-78 0 -146.5 17t-132 58.5t-108.5 104.5t-72 161t-27 222q0 213 51 406l136 26q-56 -210 -56 -420q0 -109 22 -193.5t57.5 -135.5t85.5 -84t100.5 -45.5t107.5 -12.5q68 0 124 22.5t103 71.5t73 136.5t26 206.5v772h131v-371q0 -194 47.5 -286.5t163.5 -92.5
t170.5 90t54.5 287v455h129v-533q0 -64 7.5 -109t26 -77t42.5 -51t65.5 -30t86 -14.5t112.5 -3.5h74q20 153 20 314q0 319 -76 575l127 29q78 -267 78 -590q0 -203 -35 -432h-157q-217 0 -314.5 38t-138.5 142q-20 -69 -69.5 -115t-99 -62.5t-97.5 -16.5q-86 0 -136 26
t-85 84q2 -129 -22.5 -228.5t-67.5 -163t-105 -104t-129.5 -57t-146.5 -16.5z" />
    <glyph glyph-name="uni0634" unicode="&#x634;" horiz-adv-x="2406" arabic-form="isolated" 
d="M621 -473q-78 0 -146.5 17t-132 58.5t-108.5 104.5t-72 161t-27 222q0 213 51 406l136 26q-56 -210 -56 -420q0 -109 22 -193.5t57.5 -135.5t85.5 -84t100.5 -45.5t107.5 -12.5q68 0 124 22.5t103 71.5t73 136.5t26 206.5v772h131v-371q0 -194 47.5 -286.5t163.5 -92.5
t170.5 90t54.5 287v455h129v-533q0 -64 7.5 -109t26 -77t42.5 -51t65.5 -30t86 -14.5t112.5 -3.5h74q20 153 20 314q0 319 -76 575l127 29q78 -267 78 -590q0 -203 -35 -432h-157q-217 0 -314.5 38t-138.5 142q-20 -69 -69.5 -115t-99 -62.5t-97.5 -16.5q-86 0 -136 26
t-85 84q2 -129 -22.5 -228.5t-67.5 -163t-105 -104t-129.5 -57t-146.5 -16.5zM1573 1384q-36 0 -61 25.5t-25 63.5q0 37 25.5 62.5t60.5 25.5q37 0 62.5 -25t25.5 -63q0 -37 -25.5 -63t-62.5 -26zM1712 1174q-37 0 -63.5 26t-26.5 64q0 37 26.5 62.5t63.5 25.5t62.5 -25
t25.5 -63q0 -37 -25.5 -63.5t-62.5 -26.5zM1436 1174q-37 0 -62.5 26t-25.5 64q0 37 25.5 62.5t62.5 25.5t63.5 -25t26.5 -63q0 -37 -26.5 -63.5t-63.5 -26.5z" />
    <glyph glyph-name="uni0635" unicode="&#x635;" horiz-adv-x="2160" arabic-form="isolated" 
d="M621 -473q-78 0 -146.5 17t-132 58.5t-108.5 104.5t-72 161t-27 222q0 213 51 406l136 26q-56 -210 -56 -420q0 -109 22 -193.5t57.5 -135.5t85.5 -84t100.5 -45.5t107.5 -12.5q68 0 124 22.5t103 71.5t73 136.5t26 206.5v895h131v-101q0 -224 -21 -411h2
q71 254 233.5 393t358.5 139q187 0 290 -121.5t103 -343.5q0 -86 -18 -160t-61 -141t-108 -114.5t-164.5 -75t-225.5 -27.5h-393q-7 -119 -46 -210.5t-102.5 -148t-145 -85.5t-177.5 -29zM1094 104h407q426 0 426 400q0 177 -69.5 276t-208.5 99q-94 0 -179 -46t-149 -123
t-113 -177.5t-77.5 -210t-36.5 -218.5z" />
    <glyph glyph-name="uni0636" unicode="&#x636;" horiz-adv-x="2160" arabic-form="isolated" 
d="M621 -473q-78 0 -146.5 17t-132 58.5t-108.5 104.5t-72 161t-27 222q0 213 51 406l136 26q-56 -210 -56 -420q0 -109 22 -193.5t57.5 -135.5t85.5 -84t100.5 -45.5t107.5 -12.5q68 0 124 22.5t103 71.5t73 136.5t26 206.5v895h131v-101q0 -224 -21 -411h2
q71 254 233.5 393t358.5 139q187 0 290 -121.5t103 -343.5q0 -86 -18 -160t-61 -141t-108 -114.5t-164.5 -75t-225.5 -27.5h-393q-7 -119 -46 -210.5t-102.5 -148t-145 -85.5t-177.5 -29zM1094 104h407q426 0 426 400q0 177 -69.5 276t-208.5 99q-94 0 -179 -46t-149 -123
t-113 -177.5t-77.5 -210t-36.5 -218.5zM1645 1217q-37 0 -64 26t-27 64q0 37 27 63.5t64 26.5t63.5 -26t26.5 -64q0 -37 -26.5 -63.5t-63.5 -26.5z" />
    <glyph glyph-name="uni0637" unicode="&#x637;" horiz-adv-x="1501" arabic-form="isolated" 
d="M0 0v104h305v1340h129v-582q0 -232 -20 -411h2q73 255 235 393.5t359 138.5q187 0 290 -121.5t103 -343.5q0 -108 -30.5 -198t-95.5 -163.5t-180.5 -115t-271.5 -41.5h-825zM432 104h410q426 0 426 400q0 177 -70 276t-211 99q-116 0 -217.5 -70t-170.5 -183
t-112.5 -248.5t-54.5 -273.5z" />
    <glyph glyph-name="uni0638" unicode="&#x638;" horiz-adv-x="1501" arabic-form="isolated" 
d="M0 0v104h305v1340h129v-582q0 -232 -20 -411h2q73 255 235 393.5t359 138.5q187 0 290 -121.5t103 -343.5q0 -108 -30.5 -198t-95.5 -163.5t-180.5 -115t-271.5 -41.5h-825zM432 104h410q426 0 426 400q0 177 -70 276t-211 99q-116 0 -217.5 -70t-170.5 -183
t-112.5 -248.5t-54.5 -273.5zM985 1217q-37 0 -63.5 26t-26.5 64q0 37 26.5 63.5t63.5 26.5t63.5 -26t26.5 -64q0 -37 -26.5 -63.5t-63.5 -26.5z" />
    <glyph glyph-name="uni0639" unicode="&#x639;" horiz-adv-x="1085" arabic-form="isolated" 
d="M635 -530q-141 0 -247.5 27t-170 75t-94.5 108.5t-31 133.5q0 70 30.5 132.5t90.5 116.5t132 99t171 92q-63 0 -123 23t-108 65.5t-77.5 108.5t-29.5 145q0 174 121.5 283.5t331.5 109.5q41 0 87.5 -6t72.5 -12l26 -6l-18 -109q-90 31 -178 31q-136 0 -224 -78.5
t-88 -198.5q0 -83 30.5 -142.5t80.5 -89t113 -38t129.5 4.5t128.5 44l67 35l43 -94l-323 -160q-184 -91 -269.5 -170.5t-85.5 -175.5q0 -113 105 -181.5t323 -68.5q69 0 152 7t131 15l49 7l8 -101q-184 -32 -356 -32z" />
    <glyph glyph-name="uni063A" unicode="&#x63a;" horiz-adv-x="1085" arabic-form="isolated" 
d="M635 -530q-141 0 -247.5 27t-170 75t-94.5 108.5t-31 133.5q0 70 30.5 132.5t90.5 116.5t132 99t171 92q-63 0 -123 23t-108 65.5t-77.5 108.5t-29.5 145q0 174 121.5 283.5t331.5 109.5q41 0 87.5 -6t72.5 -12l26 -6l-18 -109q-90 31 -178 31q-136 0 -224 -78.5
t-88 -198.5q0 -83 30.5 -142.5t80.5 -89t113 -38t129.5 4.5t128.5 44l67 35l43 -94l-323 -160q-184 -91 -269.5 -170.5t-85.5 -175.5q0 -113 105 -181.5t323 -68.5q69 0 152 7t131 15l49 7l8 -101q-184 -32 -356 -32zM545 1217q-37 0 -63.5 26t-26.5 64q0 37 26.5 63.5
t63.5 26.5t63.5 -26t26.5 -64q0 -37 -26.5 -63.5t-63.5 -26.5z" />
    <glyph glyph-name="uni0641" unicode="&#x641;" horiz-adv-x="1880" arabic-form="isolated" 
d="M1757 506q0 -140 -56.5 -254.5t-167 -183t-255.5 -68.5h-440q-361 0 -526 143.5t-165 444.5q0 97 21.5 194.5t52.5 161.5l139 25q-37 -74 -60.5 -174.5t-23.5 -188.5q0 -129 26.5 -218t91 -155t177.5 -97.5t281 -31.5h143q-159 103 -159 385q0 80 20 153.5t60.5 135.5
t97 107.5t134 71.5t167.5 26q93 0 170 -25.5t139.5 -79.5t97.5 -149t35 -223zM1624 500q0 181 -83.5 280t-242.5 99q-65 0 -122.5 -23t-104 -68t-73.5 -120.5t-27 -171.5q0 -187 85.5 -289.5t243.5 -102.5q65 0 122 23t103 69.5t72.5 124.5t26.5 179zM1307 1217
q-37 0 -63.5 26t-26.5 64q0 37 26.5 63.5t63.5 26.5t63.5 -26t26.5 -64q0 -37 -26.5 -63.5t-63.5 -26.5z" />
    <glyph glyph-name="uni0642" unicode="&#x642;" horiz-adv-x="1802" arabic-form="isolated" 
d="M1604 911v-1396q-294 -29 -590 -29q-465 0 -672 144t-207 470q0 203 51 396l136 26q-56 -210 -56 -405q0 -285 177.5 -406t586.5 -121q93 0 203.5 5t174.5 11l65 5v389h-236q-144 0 -247.5 33t-164.5 97.5t-89.5 150.5t-28.5 200q0 102 31.5 191.5t92 159.5t156.5 110.5
t217 40.5q95 0 195 -18t153 -36zM1475 104v721q-13 6 -37 15t-99 24t-151 15q-160 0 -254 -104t-94 -279q0 -202 100 -297t320 -95h215zM1329 1174q-37 0 -62.5 26t-25.5 64q0 37 25.5 62.5t62.5 25.5t63.5 -25t26.5 -63q0 -37 -26.5 -63.5t-63.5 -26.5zM1053 1174
q-37 0 -62.5 26t-25.5 64q0 37 25.5 62.5t62.5 25.5q38 0 64 -25t26 -63q0 -37 -26 -63.5t-64 -26.5z" />
    <glyph glyph-name="uni0643" unicode="&#x643;" horiz-adv-x="1734" arabic-form="isolated" 
d="M651 831v89q91 0 162 -11q-33 13 -51.5 45t-18.5 66q0 76 59 131t179 55q40 0 102 -8l-14 -88q-50 8 -98 8q-60 0 -91.5 -25t-31.5 -69q0 -46 41.5 -75t128.5 -29h106v-89h-473zM838 0q-361 0 -526 143.5t-165 444.5q0 97 21.5 194.5t52.5 161.5l139 25
q-37 -74 -60.5 -174.5t-23.5 -188.5q0 -102 16.5 -178.5t56.5 -139.5t106 -102.5t166.5 -60.5t236.5 -21h537v1340h129v-1444h-686z" />
    <glyph glyph-name="uni0644" unicode="&#x644;" horiz-adv-x="1302" arabic-form="isolated" 
d="M965 82v1362h131v-1348q0 -150 -37 -262.5t-103.5 -178t-150 -97t-184.5 -31.5q-78 0 -146.5 17t-132 58.5t-108.5 104.5t-72 161t-27 222q0 213 51 406l136 26q-56 -210 -56 -420q0 -109 22 -193.5t57.5 -135.5t85.5 -84t100.5 -45.5t107.5 -12.5q68 0 124 23t103 73
t73 140.5t26 214.5z" />
    <glyph glyph-name="uni0645" unicode="&#x645;" horiz-adv-x="1626" arabic-form="isolated" 
d="M1430 0h-390q-140 0 -241.5 31.5t-163 92t-91.5 143t-32 190.5h-72q-122 0 -167.5 -79t-20.5 -243l106 -667h-127l-104 653q-33 206 47.5 323t276.5 117h65q23 184 151.5 303t340.5 119q206 0 314 -115t108 -336v-532zM1300 104v398q0 199 -78 288t-229 89
q-161 0 -255.5 -104t-94.5 -281q0 -200 100 -295t322 -95h235z" />
    <glyph glyph-name="uni0646" unicode="&#x646;" horiz-adv-x="1331" arabic-form="isolated" 
d="M1133 963v-889q0 -273 -131.5 -410t-383.5 -137q-78 0 -147 17t-132.5 58.5t-108.5 104.5t-72 161t-27 222q0 213 51 406l135 26q-55 -207 -55 -420q0 -91 15 -165.5t42.5 -124.5t62.5 -86.5t78.5 -56.5t85.5 -29t89 -9q366 0 366 437v895h132zM643 805q-37 0 -63.5 26
t-26.5 64q0 37 26.5 63.5t63.5 26.5t63.5 -26t26.5 -64q0 -37 -26.5 -63.5t-63.5 -26.5z" />
    <glyph glyph-name="uni0647" unicode="&#x647;" horiz-adv-x="1216" arabic-form="isolated" 
d="M1020 0h-387q-282 0 -407.5 124t-125.5 355q0 103 32.5 193t93 160t157 110.5t215.5 40.5q206 0 314 -115t108 -336v-532zM891 104v398q0 199 -78 288t-229 89q-161 0 -254.5 -104t-93.5 -281q0 -201 99 -295.5t320 -94.5h236z" />
    <glyph glyph-name="uni0648" unicode="&#x648;" horiz-adv-x="1196" arabic-form="isolated" 
d="M434 -520q-71 0 -152.5 9t-127.5 17l-45 9l10 114q182 -45 334 -45q90 0 162.5 18.5t131 58.5t91 110t32.5 166v63h-237q-282 0 -407.5 124t-125.5 357q0 102 32 192t93 159.5t157.5 110t217.5 40.5q95 0 194.5 -18t151.5 -36l53 -18v-974q0 -67 -17 -129t-58.5 -122.5
t-104.5 -105.5t-162 -72.5t-223 -27.5zM870 104v721q-13 6 -36.5 15t-98.5 24t-151 15q-161 0 -254.5 -104t-93.5 -279q0 -202 99 -297t320 -95h215z" />
    <glyph glyph-name="uni0649" unicode="&#x649;" horiz-adv-x="2048" arabic-form="isolated" 
d="M1188 0h-350q-361 0 -526 143.5t-165 444.5q0 97 21.5 194.5t52.5 161.5l139 25q-37 -74 -60.5 -174.5t-23.5 -188.5q0 -102 16.5 -178.5t56.5 -139.5t106 -102.5t166.5 -60.5t236.5 -21h201v840q170 39 344 39q240 0 344 -112t104 -332v-293h-129v270q0 193 -80 278
t-256 85q-43 0 -92.5 -5.5t-77.5 -10.5l-28 -5v-858z" />
    <glyph glyph-name="uni064A" unicode="&#x64a;" horiz-adv-x="2048" arabic-form="isolated" 
d="M1188 0h-350q-361 0 -526 143.5t-165 444.5q0 97 21.5 194.5t52.5 161.5l139 25q-37 -74 -60.5 -174.5t-23.5 -188.5q0 -102 16.5 -178.5t56.5 -139.5t106 -102.5t166.5 -60.5t236.5 -21h201v840q170 39 344 39q240 0 344 -112t104 -332v-293h-129v270q0 193 -80 278
t-256 85q-43 0 -92.5 -5.5t-77.5 -10.5l-28 -5v-858zM1044 -305q0 -37 -26.5 -63.5t-63.5 -26.5t-62.5 26t-25.5 64q0 37 25.5 63.5t62.5 26.5t63.5 -26t26.5 -64zM768 -305q0 -37 -26 -63.5t-64 -26.5q-37 0 -62.5 26t-25.5 64q0 37 25.5 63.5t62.5 26.5q38 0 64 -26
t26 -64z" />
    <glyph glyph-name="uni064B" unicode="&#xfe70;" arabic-form="isolated" 
d="M4 1679v84l459 66v-84zM6 1855v87l459 65v-86z" />
    <glyph glyph-name="uni064C" unicode="&#xfe72;" arabic-form="isolated" 
d="M-41 1630l-55 256l80 19l41 -187l122 25q-16 53 -16 96q0 74 51 121t127 47q64 0 107 -38.5t43 -100.5q0 -65 -42 -106.5t-110 -57.5zM229 1761l68 15q36 6 59 31.5t23 56.5t-20 50t-54 19q-42 0 -67 -26t-25 -66q0 -17 4 -37t8 -32z" />
    <glyph glyph-name="uni064D" unicode="&#xfe74;" arabic-form="isolated" 
d="M61 -655v84l459 65v-84zM63 -477v84l459 65v-84z" />
    <glyph glyph-name="uni064E" unicode="&#xfe76;" arabic-form="isolated" 
d="M-33 1679v95l459 65v-94z" />
    <glyph glyph-name="uni0650" unicode="&#xfe7a;" arabic-form="isolated" 
d="M-33 -340v94l459 66v-94z" />
    <glyph glyph-name="uni0651" unicode="&#xfe7c;" arabic-form="isolated" 
d="M209 1757q-19 -30 -55 -48.5t-76 -18.5q-44 0 -75 30.5t-40 94.5l-14 98l80 14l14 -96q9 -64 55 -64q37 0 55.5 23.5t12.5 60.5l-14 97l81 12l15 -98q6 -32 23 -50t40 -18q78 0 64 102l-15 101l82 10l15 -96q13 -82 -28 -138.5t-130 -56.5q-25 0 -51 11.5t-39 29.5z" />
    <glyph glyph-name="uni0652" unicode="&#xfe7e;" arabic-form="isolated" 
d="M12 1855q0 -35 24.5 -55t61.5 -20q36 0 59 22t23 58q0 35 -24 55t-62 20q-34 0 -58 -22t-24 -58zM-74 1853q0 66 50.5 110t121.5 44q73 0 120.5 -38.5t47.5 -106.5q0 -66 -50.5 -110t-121.5 -44q-73 0 -120.5 38.5t-47.5 106.5z" />
    <glyph glyph-name="uni0671" unicode="&#x671;" horiz-adv-x="548" arabic-form="isolated" 
d="M160 1663h280v29q0 96 -22.5 132t-71.5 36q-70 0 -117 -55.5t-69 -141.5zM-59 1581v82h118q34 126 109.5 202.5t187.5 76.5q93 0 140 -53t47 -193v-115h-602zM209 0v1382h131v-1382h-131z" />
    <glyph glyph-name="uni0679" unicode="&#x679;" horiz-adv-x="1583" arabic-form="isolated" 
d="M1018 1376q0 117 -96 117q-85 0 -159 -87t-77 -177h156q176 0 176 147zM688 1720v-178q0 -58 -14 -133h2q41 74 112 121t148 47q88 0 137 -50t49 -136q0 -115 -75 -179.5t-222 -64.5h-237v573h100zM1384 0h-546q-361 0 -526 143.5t-165 444.5q0 97 21.5 194.5t52.5 161.5
l139 25q-37 -74 -60.5 -174.5t-23.5 -188.5q0 -102 16.5 -178.5t56.5 -139.5t106 -102.5t166.5 -60.5t236.5 -21h397v859h129v-963z" />
    <glyph glyph-name="uni067E" unicode="&#x67e;" horiz-adv-x="1583" arabic-form="isolated" 
d="M1384 0h-546q-361 0 -526 143.5t-165 444.5q0 97 21.5 194.5t52.5 161.5l139 25q-37 -74 -60.5 -174.5t-23.5 -188.5q0 -102 16.5 -178.5t56.5 -139.5t106 -102.5t166.5 -60.5t236.5 -21h397v859h129v-963zM936 -440q0 -35 -25.5 -60.5t-60.5 -25.5q-37 0 -62.5 24.5
t-25.5 61.5t25.5 62.5t62.5 25.5q35 0 60.5 -25.5t25.5 -62.5zM1075 -233q0 -37 -26.5 -63t-61.5 -26q-37 0 -62.5 25.5t-25.5 63.5q0 36 26 62t62 26t62 -26t26 -62zM799 -233q0 -37 -25.5 -63t-60.5 -26q-37 0 -62.5 25.5t-25.5 63.5q0 36 26 62t62 26q35 0 60.5 -25.5
t25.5 -62.5z" />
    <glyph glyph-name="uni0686" unicode="&#x686;" horiz-adv-x="1212" arabic-form="isolated" 
d="M1026 0h-375q-138 0 -233.5 -20.5t-146.5 -59.5t-72 -86t-21 -110q0 -104 77 -173.5t218 -91.5l-24 -106q-185 25 -292.5 120t-107.5 234q0 397 613 397h249q17 125 17 250q0 268 -107.5 389t-374.5 121q-115 0 -221 -14v102q125 17 232 17q165 0 281 -38t186.5 -115.5
t102.5 -186t32 -258.5q0 -177 -33 -371zM821 -440q0 -35 -25.5 -60.5t-60.5 -25.5q-37 0 -62.5 24.5t-25.5 61.5t25.5 62.5t62.5 25.5q35 0 60.5 -25.5t25.5 -62.5zM961 -233q0 -36 -26.5 -62.5t-62.5 -26.5q-37 0 -62.5 25.5t-25.5 63.5q0 36 26 62t62 26t62.5 -26
t26.5 -62zM684 -233q0 -37 -25.5 -63t-60.5 -26q-37 0 -62.5 25.5t-25.5 63.5q0 36 26 62t62 26q35 0 60.5 -25.5t25.5 -62.5z" />
    <glyph glyph-name="uni0688" unicode="&#x688;" horiz-adv-x="1087" arabic-form="isolated" 
d="M115 0v104h692q-2 323 -125.5 503t-415.5 278l37 110q226 -75 363 -189t203.5 -291.5t66.5 -436.5v-78h-821zM690 1438q0 116 -96 116q-85 0 -159 -87t-77 -177h156q176 0 176 148zM360 1782v-178q0 -59 -14 -134h2q41 74 112 121t148 47q88 0 137.5 -50t49.5 -136
q0 -115 -75 -179.5t-222 -64.5h-238v574h100z" />
    <glyph glyph-name="uni0691" unicode="&#x691;" horiz-adv-x="856" arabic-form="isolated" 
d="M205 -530q-136 0 -242 36l21 111q115 -43 233 -43q75 0 130.5 20t97 65t62.5 123t21 189v992h129v-973q0 -249 -106.5 -384.5t-345.5 -135.5zM752 1438q0 53 -23.5 84.5t-73.5 31.5q-85 0 -158.5 -87t-76.5 -177h155q177 0 177 148zM422 1782v-178q0 -59 -14 -134h2
q41 74 112 121t148 47q88 0 137 -50t49 -136q0 -115 -75 -179.5t-222 -64.5h-237v574h100z" />
    <glyph glyph-name="uni0698" unicode="&#x698;" horiz-adv-x="856" arabic-form="isolated" 
d="M205 -530q-136 0 -242 36l21 111q115 -43 233 -43q75 0 130.5 20t97 65t62.5 123t21 189v992h129v-973q0 -249 -106.5 -384.5t-345.5 -135.5zM582 1384q-36 0 -61 25.5t-25 63.5q0 37 25.5 62.5t60.5 25.5q37 0 62.5 -25t25.5 -63q0 -37 -25.5 -63t-62.5 -26zM721 1174
q-37 0 -63.5 26t-26.5 64q0 37 26.5 62.5t63.5 25.5t62.5 -25t25.5 -63q0 -37 -25.5 -63.5t-62.5 -26.5zM444 1174q-37 0 -62.5 26t-25.5 64q0 37 25.5 62.5t62.5 25.5t64 -25t27 -63q0 -37 -27 -63.5t-64 -26.5z" />
    <glyph glyph-name="uni06A4" unicode="&#x6a4;" horiz-adv-x="1880" arabic-form="isolated" 
d="M1757 506q0 -140 -56.5 -254.5t-167 -183t-255.5 -68.5h-440q-361 0 -526 143.5t-165 444.5q0 97 21.5 194.5t52.5 161.5l139 25q-37 -74 -60.5 -174.5t-23.5 -188.5q0 -129 26.5 -218t91 -155t177.5 -97.5t281 -31.5h143q-159 103 -159 385q0 80 20 153.5t60.5 135.5
t97 107.5t134 71.5t167.5 26q93 0 170 -25.5t139.5 -79.5t97.5 -149t35 -223zM1624 500q0 181 -83.5 280t-242.5 99q-65 0 -122.5 -23t-104 -68t-73.5 -120.5t-27 -171.5q0 -187 85.5 -289.5t243.5 -102.5q65 0 122 23t103 69.5t72.5 124.5t26.5 179zM1305 1384
q-36 0 -61 25.5t-25 63.5q0 37 25.5 62.5t60.5 25.5q37 0 62.5 -25t25.5 -63q0 -37 -25.5 -63t-62.5 -26zM1444 1174q-37 0 -63.5 26t-26.5 64q0 37 26.5 62.5t63.5 25.5t62.5 -25t25.5 -63q0 -37 -25.5 -63.5t-62.5 -26.5zM1167 1174q-37 0 -62.5 26t-25.5 64
q0 37 25.5 62.5t62.5 25.5t63.5 -25t26.5 -63q0 -37 -26.5 -63.5t-63.5 -26.5z" />
    <glyph glyph-name="uni06A9" unicode="&#x6a9;" horiz-adv-x="1736" arabic-form="isolated" 
d="M1559 0h-721q-361 0 -526 143.5t-165 444.5q0 97 21.5 194.5t52.5 161.5l139 25q-37 -74 -60.5 -174.5t-23.5 -188.5q0 -102 16.5 -178.5t56.5 -139.5t106 -102.5t166.5 -60.5t236.5 -21h572q-1 172 -34.5 300t-105 221.5t-173.5 156t-249 109.5v98l752 473v-133
l-598 -371q136 -55 232.5 -126t166.5 -174.5t104 -246.5t34 -331v-80z" />
    <glyph glyph-name="uni06AF" unicode="&#x6af;" horiz-adv-x="1736" arabic-form="isolated" 
d="M1559 0h-721q-361 0 -526 143.5t-165 444.5q0 97 21.5 194.5t52.5 161.5l139 25q-37 -74 -60.5 -174.5t-23.5 -188.5q0 -102 16.5 -178.5t56.5 -139.5t106 -102.5t166.5 -60.5t236.5 -21h572q-1 172 -34.5 300t-105 221.5t-173.5 156t-249 109.5v94l752 473v-129
l-598 -371q136 -55 232.5 -126t166.5 -174.5t104 -246.5t34 -331v-80zM868 1178v127l752 473v-129z" />
    <glyph glyph-name="uni06BA" unicode="&#x6ba;" horiz-adv-x="1333" arabic-form="isolated" 
d="M1137 963v-889q0 -273 -131.5 -410t-382.5 -137q-78 0 -147 17t-132.5 58.5t-109 104.5t-72.5 161t-27 222q0 213 51 406l136 26q-56 -210 -56 -420q0 -91 15 -165.5t42.5 -124.5t62.5 -86.5t78.5 -56.5t85.5 -29t89 -9q367 0 367 437v895h131z" />
    <glyph glyph-name="uni06BE" unicode="&#x6be;" horiz-adv-x="1605" arabic-form="isolated" 
d="M1438 0h-1397v104h283h20.5t19 -0.5t15.5 -1t11 -0.5h5q-3 2 -12 9t-25 25.5t-29.5 42t-23.5 60t-10 76.5q0 157 101.5 246.5t267.5 89.5q177 0 264.5 -118t87.5 -324v-105h293v54q0 282 -71 454t-209 248t-359 76q-96 0 -215.5 -19.5t-218.5 -50.5l-15 101
q230 71 469 71q184 0 320.5 -48t233.5 -151t145.5 -269.5t48.5 -397.5v-172zM891 104v93q0 356 -238 356q-111 0 -171 -58.5t-60 -158.5q0 -117 72 -174.5t182 -57.5h215z" />
    <glyph glyph-name="uni06C0" unicode="&#x6c0;" horiz-adv-x="1216" arabic-form="isolated" 
d="M1020 0h-387q-282 0 -407.5 124t-125.5 355q0 103 32.5 193t93 160t157 110.5t215.5 40.5q206 0 314 -115t108 -336v-532zM891 104v398q0 199 -78 288t-229 89q-161 0 -254.5 -104t-93.5 -281q0 -201 99 -295.5t320 -94.5h236zM315 1178v88q91 0 162 -11q-33 13 -51 45
t-18 66q0 76 58.5 131t178.5 55q41 0 103 -8l-15 -88q-50 8 -98 8q-60 0 -91.5 -25t-31.5 -69q0 -46 41.5 -75t128.5 -29h106v-88h-473z" />
    <glyph glyph-name="uni06C1" unicode="&#x6c1;" horiz-adv-x="1216" arabic-form="isolated" 
d="M1020 0h-387q-282 0 -407.5 124t-125.5 355q0 103 32.5 193t93 160t157 110.5t215.5 40.5q206 0 314 -115t108 -336v-532zM891 104v398q0 199 -78 288t-229 89q-161 0 -254.5 -104t-93.5 -281q0 -201 99 -295.5t320 -94.5h236z" />
    <glyph glyph-name="uniFBFC" unicode="&#x6cc;" horiz-adv-x="2048" arabic-form="isolated" 
d="M1188 0h-350q-361 0 -526 143.5t-165 444.5q0 97 21.5 194.5t52.5 161.5l139 25q-37 -74 -60.5 -174.5t-23.5 -188.5q0 -102 16.5 -178.5t56.5 -139.5t106 -102.5t166.5 -60.5t236.5 -21h201v840q170 39 344 39q240 0 344 -112t104 -332v-293h-129v270q0 193 -80 278
t-256 85q-43 0 -92.5 -5.5t-77.5 -10.5l-28 -5v-858z" />
    <glyph glyph-name="uni06D2" unicode="&#x6d2;" horiz-adv-x="1536" arabic-form="isolated" 
d="M1401 0h-1233q-9 142 15.5 285t80.5 267.5t133.5 221.5t181.5 153t218 56q315 0 315 -330v-141h-129v96q0 137 -46 204t-161 67q-104 0 -196.5 -73.5t-153 -188t-95 -250t-34.5 -263.5h1104v-104z" />
    <glyph glyph-name="uni06D3" unicode="&#x6d3;" horiz-adv-x="1536" arabic-form="isolated" 
d="M1401 0h-1233q-9 142 15.5 285t80.5 267.5t133.5 221.5t181.5 153t218 56q315 0 315 -330v-141h-129v96q0 137 -46 204t-161 67q-104 0 -196.5 -73.5t-153 -188t-95 -250t-34.5 -263.5h1104v-104zM406 1178v88q90 0 161 -11q-33 13 -51 45t-18 66q0 76 58.5 131t178.5 55
q41 0 103 -8l-15 -88q-50 8 -98 8q-60 0 -91.5 -25t-31.5 -69q0 -46 41.5 -75t128.5 -29h107v-88h-473z" />
    <glyph glyph-name="uniFB51" unicode="&#x671;" horiz-adv-x="548" arabic-form="final" 
d="M209 0v1382h131v-1278h240v-104h-371zM-59 1581v82h118q34 126 109.5 202.5t187.5 76.5q93 0 140 -53t47 -193v-115h-602zM160 1663h280v29q0 96 -22.5 132t-71.5 36q-70 0 -117 -55.5t-69 -141.5z" />
    <glyph glyph-name="uniFB57" unicode="&#x67e;" horiz-adv-x="1599" arabic-form="final" 
d="M1630 0h-792q-361 0 -526 143.5t-165 444.5q0 97 21.5 194.5t52.5 161.5l139 25q-37 -74 -60.5 -174.5t-23.5 -188.5q0 -102 16.5 -178.5t56.5 -139.5t106 -102.5t166.5 -60.5t236.5 -21h397v859h129v-859h246v-104zM1075 -233q0 -37 -26.5 -63t-61.5 -26
q-37 0 -62.5 25.5t-25.5 63.5q0 36 26 62t62 26t62 -26t26 -62zM799 -233q0 -37 -25.5 -63t-60.5 -26q-37 0 -62.5 25.5t-25.5 63.5q0 36 26 62t62 26q35 0 60.5 -25.5t25.5 -62.5zM936 -440q0 -35 -25.5 -60.5t-60.5 -25.5q-37 0 -62.5 24.5t-25.5 61.5t25.5 62.5
t62.5 25.5q35 0 60.5 -25.5t25.5 -62.5z" />
    <glyph glyph-name="uniFB58" unicode="&#x67e;" horiz-adv-x="757" arabic-form="initial" 
d="M0 0v104h430v859h129v-963h-559zM442 -440q0 -35 -25.5 -60.5t-60.5 -25.5q-37 0 -62.5 24.5t-25.5 61.5t25.5 62.5t62.5 25.5q35 0 60.5 -25.5t25.5 -62.5zM582 -233q0 -37 -26 -63t-62 -26q-37 0 -62.5 25.5t-25.5 63.5q0 36 26 62t62 26t62 -26t26 -62zM305 -233
q0 -37 -25.5 -63t-60.5 -26q-37 0 -62.5 25.5t-25.5 63.5q0 36 26 62t62 26q35 0 60.5 -25.5t25.5 -62.5z" />
    <glyph glyph-name="uniFB59" unicode="&#x67e;" horiz-adv-x="774" arabic-form="medial" 
d="M0 0v104h430v859h129v-859h246v-104h-805zM582 -233q0 -37 -26 -63t-62 -26q-37 0 -62.5 25.5t-25.5 63.5q0 36 26 62t62 26t62 -26t26 -62zM305 -233q0 -37 -25.5 -63t-60.5 -26q-37 0 -62.5 25.5t-25.5 63.5q0 36 26 62t62 26q35 0 60.5 -25.5t25.5 -62.5zM442 -440
q0 -35 -25.5 -60.5t-60.5 -25.5q-37 0 -62.5 24.5t-25.5 61.5t25.5 62.5t62.5 25.5q35 0 60.5 -25.5t25.5 -62.5z" />
    <glyph glyph-name="uniFB67" unicode="&#x679;" horiz-adv-x="1599" arabic-form="final" 
d="M838 0q-361 0 -526 143.5t-165 444.5q0 97 21.5 194.5t52.5 161.5l139 25q-37 -74 -60.5 -174.5t-23.5 -188.5q0 -102 16.5 -178.5t56.5 -139.5t106 -102.5t166.5 -60.5t236.5 -21h397v859h129v-859h246v-104h-792zM688 1720v-178q0 -58 -14 -133h2q41 74 112 121t148 47
q88 0 137 -50t49 -136q0 -115 -75 -179.5t-222 -64.5h-237v573h100zM1018 1376q0 117 -96 117q-85 0 -159 -87t-77 -177h156q176 0 176 147z" />
    <glyph glyph-name="uniFB68" unicode="&#x679;" horiz-adv-x="757" arabic-form="initial" 
d="M553 1438q0 116 -96 116q-85 0 -159 -87t-77 -177h156q176 0 176 148zM223 1782v-178q0 -59 -14 -134h2q41 74 112 121t148 47q88 0 137 -50t49 -136q0 -115 -75 -179.5t-222 -64.5h-237v574h100zM0 0v104h430v859h129v-963h-559z" />
    <glyph glyph-name="uniFB69" unicode="&#x679;" horiz-adv-x="774" arabic-form="medial" 
d="M223 1782v-178q0 -59 -14 -134h2q41 74 112 121t148 47q88 0 137 -50t49 -136q0 -115 -75 -179.5t-222 -64.5h-237v574h100zM0 0v104h430v859h129v-859h246v-104h-805zM553 1438q0 116 -96 116q-85 0 -159 -87t-77 -177h156q176 0 176 148z" />
    <glyph glyph-name="uniFB6B" unicode="&#x6a4;" horiz-adv-x="1894" arabic-form="final" 
d="M1925 104v-104h-1087q-361 0 -526 143.5t-165 444.5q0 97 21.5 194.5t52.5 161.5l139 25q-37 -74 -60.5 -174.5t-23.5 -188.5q0 -129 26.5 -218t91 -155t177.5 -97.5t281 -31.5h143q-159 103 -159 385q0 80 20 153.5t60.5 135.5t97 107.5t134 71.5t167.5 26
q93 0 170 -25.5t139.5 -79.5t97.5 -149t35 -223q0 -126 -49 -235t-139 -171q116 4 194 4h162zM1624 500q0 181 -83.5 280t-242.5 99q-65 0 -122.5 -23t-104 -68t-73.5 -120.5t-27 -171.5q0 -187 85.5 -289.5t243.5 -102.5q65 0 122 23t103 69.5t72.5 124.5t26.5 179z
M1305 1384q-36 0 -61 25.5t-25 63.5q0 37 25.5 62.5t60.5 25.5q37 0 62.5 -25t25.5 -63q0 -37 -25.5 -63t-62.5 -26zM1444 1174q-37 0 -63.5 26t-26.5 64q0 37 26.5 62.5t63.5 25.5t62.5 -25t25.5 -63q0 -37 -25.5 -63.5t-62.5 -26.5zM1167 1174q-37 0 -62.5 26t-25.5 64
q0 37 25.5 62.5t62.5 25.5t63.5 -25t26.5 -63q0 -37 -26.5 -63.5t-63.5 -26.5z" />
    <glyph glyph-name="uniFB6C" unicode="&#x6a4;" horiz-adv-x="1253" arabic-form="initial" 
d="M1057 0h-1057v104h195q32 0 62 -1.5t44 -2.5l14 -2q-178 103 -178 383q0 102 32.5 192t93 159.5t157 110t215.5 40.5q206 0 314 -115t108 -336v-532zM928 104v398q0 199 -78 288t-229 89q-161 0 -255 -104t-94 -281q0 -201 99.5 -295.5t320.5 -94.5h236zM614 1384
q-36 0 -61 25.5t-25 63.5q0 37 25.5 62.5t60.5 25.5q37 0 62.5 -25t25.5 -63q0 -37 -25.5 -63t-62.5 -26zM754 1174q-37 0 -63.5 26t-26.5 64q0 37 26.5 62.5t63.5 25.5t62.5 -25t25.5 -63q0 -37 -25.5 -63.5t-62.5 -26.5zM477 1174q-37 0 -62.5 26t-25.5 64q0 37 25.5 62.5
t62.5 25.5t63.5 -25t26.5 -63q0 -37 -26.5 -63.5t-63.5 -26.5z" />
    <glyph glyph-name="uniFB6D" unicode="&#x6a4;" horiz-adv-x="1196" arabic-form="medial" 
d="M0 0v104h143l158 -4q-164 106 -164 389q0 80 20 153.5t60.5 135.5t97 107.5t134 71.5t167.5 26q93 0 170 -25.5t140 -79.5t98 -149t35 -223q0 -126 -49.5 -235t-139.5 -171q117 4 195 4h162v-104h-1227zM602 104q65 0 122 23t103 69.5t72.5 124.5t26.5 179
q0 181 -83.5 280t-242.5 99q-137 0 -232.5 -97.5t-95.5 -283.5q0 -188 86 -291t244 -103zM606 1384q-36 0 -61 25.5t-25 63.5q0 37 25.5 62.5t60.5 25.5q37 0 62.5 -25t25.5 -63q0 -37 -25.5 -63t-62.5 -26zM745 1174q-37 0 -63.5 26t-26.5 64q0 37 26.5 62.5t63.5 25.5
t63 -25t26 -63q0 -37 -26 -63.5t-63 -26.5zM469 1174q-37 0 -62.5 26t-25.5 64q0 37 25.5 62.5t62.5 25.5t63.5 -25t26.5 -63q0 -37 -26.5 -63.5t-63.5 -26.5z" />
    <glyph glyph-name="uniFB7B" unicode="&#x686;" horiz-adv-x="1222" arabic-form="final" 
d="M651 0q-138 0 -233.5 -20.5t-146.5 -59.5t-72 -86t-21 -110q0 -104 77 -173.5t218 -91.5l-24 -106q-185 25 -292.5 120t-107.5 234q0 397 613 397h249q17 125 17 250q0 268 -107.5 389t-374.5 121q-115 0 -221 -14v102q125 17 232 17q165 0 281 -38t186.5 -115.5
t102.5 -186t32 -258.5q0 -129 -19 -267h213v-104h-602zM961 -233q0 -36 -26.5 -62.5t-62.5 -26.5q-37 0 -62.5 25.5t-25.5 63.5q0 36 26 62t62 26t62.5 -26t26.5 -62zM684 -233q0 -37 -25.5 -63t-60.5 -26q-37 0 -62.5 25.5t-25.5 63.5q0 36 26 62t62 26q35 0 60.5 -25.5
t25.5 -62.5zM821 -440q0 -35 -25.5 -60.5t-60.5 -25.5q-37 0 -62.5 24.5t-25.5 61.5t25.5 62.5t62.5 25.5q35 0 60.5 -25.5t25.5 -62.5z" />
    <glyph glyph-name="uniFB7C" unicode="&#x686;" horiz-adv-x="1183" arabic-form="initial" 
d="M0 0v104h883q18 132 18 250q0 133 -24 226t-80.5 158t-149.5 95.5t-229 30.5q-112 0 -221 -14v102q125 17 231 17q165 0 281 -38t186.5 -115.5t102.5 -186t32 -258.5q0 -177 -33 -371h-997zM571 -440q0 -35 -25.5 -60.5t-60.5 -25.5q-37 0 -62.5 24.5t-25.5 61.5
t25.5 62.5t62.5 25.5q35 0 60.5 -25.5t25.5 -62.5zM711 -233q0 -37 -26.5 -63t-61.5 -26q-37 0 -62.5 25.5t-25.5 63.5q0 36 26 62t62 26t62 -26t26 -62zM434 -233q0 -37 -25.5 -63t-60.5 -26q-37 0 -62.5 25.5t-25.5 63.5q0 36 26 62t62 26q35 0 60.5 -25.5t25.5 -62.5z
" />
    <glyph glyph-name="uniFB7D" unicode="&#x686;" horiz-adv-x="1193" arabic-form="medial" 
d="M0 0v104h883q18 132 18 250q0 133 -24 226t-80.5 158t-149.5 95.5t-229 30.5q-112 0 -221 -14v102q125 17 231 17q165 0 281 -38t186.5 -115.5t102.5 -186t32 -258.5q0 -136 -18 -267h213v-104h-1225zM711 -233q0 -37 -26.5 -63t-61.5 -26q-37 0 -62.5 25.5t-25.5 63.5
q0 36 26 62t62 26t62 -26t26 -62zM434 -233q0 -37 -25.5 -63t-60.5 -26q-37 0 -62.5 25.5t-25.5 63.5q0 36 26 62t62 26q35 0 60.5 -25.5t25.5 -62.5zM571 -440q0 -35 -25.5 -60.5t-60.5 -25.5q-37 0 -62.5 24.5t-25.5 61.5t25.5 62.5t62.5 25.5q35 0 60.5 -25.5t25.5 -62.5
z" />
    <glyph glyph-name="uniFB89" unicode="&#x688;" horiz-adv-x="1087" arabic-form="final" 
d="M115 0v104h692q-2 323 -125.5 503t-415.5 278l37 110q331 -110 480 -315t153 -576h180v-104h-1001zM360 1782v-178q0 -59 -14 -134h2q41 74 112 121t148 47q88 0 137.5 -50t49.5 -136q0 -115 -75 -179.5t-222 -64.5h-238v574h100zM690 1438q0 116 -96 116q-85 0 -159 -87
t-77 -177h156q176 0 176 148z" />
    <glyph glyph-name="uniFB8B" unicode="&#x698;" horiz-adv-x="872" arabic-form="final" 
d="M205 -530q-136 0 -242 36l21 111q115 -43 233 -43q75 0 130.5 20t97 65t62.5 123t21 189v992h129v-859h246v-104h-246v-10q0 -249 -106.5 -384.5t-345.5 -135.5zM444 1174q-37 0 -62.5 26t-25.5 64q0 37 25.5 62.5t62.5 25.5t64 -25t27 -63q0 -37 -27 -63.5t-64 -26.5z
M721 1174q-37 0 -63.5 26t-26.5 64q0 37 26.5 62.5t63.5 25.5t62.5 -25t25.5 -63q0 -37 -25.5 -63.5t-62.5 -26.5zM582 1384q-36 0 -61 25.5t-25 63.5q0 37 25.5 62.5t60.5 25.5q37 0 62.5 -25t25.5 -63q0 -37 -25.5 -63t-62.5 -26z" />
    <glyph glyph-name="uniFB8D" unicode="&#x691;" horiz-adv-x="872" arabic-form="final" 
d="M205 -530q-136 0 -242 36l21 111q115 -43 233 -43q75 0 130.5 20t97 65t62.5 123t21 189v992h129v-859h246v-104h-246v-10q0 -249 -106.5 -384.5t-345.5 -135.5zM422 1782v-178q0 -59 -14 -134h2q41 74 112 121t148 47q88 0 137 -50t49 -136q0 -115 -75 -179.5
t-222 -64.5h-237v574h100zM752 1438q0 53 -23.5 84.5t-73.5 31.5q-85 0 -158.5 -87t-76.5 -177h155q177 0 177 148z" />
    <glyph glyph-name="uniFB8F" unicode="&#x6a9;" horiz-adv-x="1736" arabic-form="final" 
d="M1767 0h-929q-361 0 -526 143.5t-165 444.5q0 97 21.5 194.5t52.5 161.5l139 25q-37 -74 -60.5 -174.5t-23.5 -188.5q0 -102 16.5 -178.5t56.5 -139.5t106 -102.5t166.5 -60.5t236.5 -21h572q-1 172 -34.5 300t-105 221.5t-173.5 156t-249 109.5v98l752 473v-133
l-598 -371q134 -54 229 -124t165.5 -171t105.5 -239.5t37 -319.5h208v-104z" />
    <glyph glyph-name="uniFB90" unicode="&#x6a9;" horiz-adv-x="999" arabic-form="initial" 
d="M0 0v104h694q-1 172 -34.5 300t-105 221.5t-173.5 156t-250 109.5v98l754 473v-133l-598 -371q135 -55 231 -126t166.5 -174.5t104.5 -246.5t34 -331v-80h-823z" />
    <glyph glyph-name="uniFB91" unicode="&#x6a9;" horiz-adv-x="999" arabic-form="medial" 
d="M0 0v104h694q-1 172 -34.5 300t-105 221.5t-173.5 156t-250 109.5v98l754 473v-133l-598 -371q133 -54 228 -124t165 -171t105.5 -239.5t37.5 -319.5h207v-104h-1030z" />
    <glyph glyph-name="uniFB93" unicode="&#x6af;" horiz-adv-x="1736" arabic-form="final" 
d="M838 0q-361 0 -526 143.5t-165 444.5q0 97 21.5 194.5t52.5 161.5l139 25q-37 -74 -60.5 -174.5t-23.5 -188.5q0 -102 16.5 -178.5t56.5 -139.5t106 -102.5t166.5 -60.5t236.5 -21h572q-1 172 -34.5 300t-105 221.5t-173.5 156t-249 109.5v94l752 473v-129l-598 -371
q134 -54 229 -124t165.5 -171t105.5 -239.5t37 -319.5h208v-104h-929zM868 1178v127l752 473v-129z" />
    <glyph glyph-name="uniFB94" unicode="&#x6af;" horiz-adv-x="999" arabic-form="initial" 
d="M0 0v104h694q-1 172 -34.5 300t-105 221.5t-173.5 156t-250 109.5v94l754 473v-129l-598 -371q135 -55 231 -126t166.5 -174.5t104.5 -246.5t34 -331v-80h-823zM131 1178v127l754 473v-129z" />
    <glyph glyph-name="uniFB95" unicode="&#x6af;" horiz-adv-x="999" arabic-form="medial" 
d="M0 0v104h694q-1 172 -34.5 300t-105 221.5t-173.5 156t-250 109.5v94l754 473v-129l-598 -371q133 -54 228 -124t165 -171t105.5 -239.5t37.5 -319.5h207v-104h-1030zM131 1178v127l754 473v-129z" />
    <glyph glyph-name="uniFB9F" unicode="&#x6ba;" horiz-adv-x="1347" arabic-form="final" 
d="M1133 963v-859h245v-104h-250q-17 -234 -147.5 -353.5t-362.5 -119.5q-78 0 -147 17t-132.5 58.5t-108.5 104.5t-72 161t-27 222q0 213 51 406l135 26q-55 -207 -55 -420q0 -91 15 -165.5t42.5 -124.5t62.5 -86.5t78.5 -56.5t85.5 -29t89 -9q366 0 366 437v895h132z" />
    <glyph glyph-name="uniFBA5" unicode="&#x6c0;" horiz-adv-x="1212" arabic-form="final" 
d="M1243 0h-610q-282 0 -407.5 124t-125.5 357q0 102 32 192t93 159.5t157.5 110t217.5 40.5q95 0 194.5 -18t151.5 -36l53 -18v-807h244v-104zM870 104v721q-13 6 -36.5 15t-98.5 24t-151 15q-161 0 -254.5 -104t-93.5 -279q0 -202 99 -297t320 -95h215zM315 1178v88
q91 0 162 -11q-33 13 -51 45t-18 66q0 76 58.5 131t178.5 55q41 0 103 -8l-15 -88q-50 8 -98 8q-60 0 -91.5 -25t-31.5 -69q0 -46 41.5 -75t128.5 -29h106v-88h-473z" />
    <glyph glyph-name="uniFBA7" unicode="&#x6c1;" horiz-adv-x="1130" arabic-form="final" 
d="M1161 104v-104h-51q-206 0 -311 109.5t-105 339.5v124q-305 -44 -483 -335l-92 73q120 179 291 282t376 103l37 -2v-223q0 -194 71 -280.5t226 -86.5h41z" />
    <glyph glyph-name="uniFBA8" unicode="&#x6c1;" horiz-adv-x="636" arabic-form="initial" 
d="M0 0v104h309v859h131v-963h-440zM221 -489q-41 0 -66.5 30.5t-25.5 75.5q0 127 180 281l51 -52q-90 -81 -90 -155q0 -27 15.5 -53t15.5 -46q0 -32 -22.5 -56.5t-57.5 -24.5z" />
    <glyph glyph-name="uniFBA9" unicode="&#x6c1;" horiz-adv-x="1425" arabic-form="medial" 
d="M1456 104v-104h-282v-535h-134q-263 0 -413 145t-150 413q0 120 15 231l-5 2q-44 -119 -138.5 -187.5t-225.5 -68.5h-123v104h143q148 0 240 125.5t92 321.5v207h129v-717q0 -232 114 -352.5t326 -120.5v536h412zM193 -530q-41 0 -67 30.5t-26 75.5q0 128 170 285l54 -47
q-86 -86 -86 -160q0 -26 17 -53.5t17 -51.5q0 -32 -22 -55.5t-57 -23.5z" />
    <glyph glyph-name="uniFBAB" unicode="&#x6be;" horiz-adv-x="1353" arabic-form="final" 
d="M1384 104v-104h-301q-84 0 -141 4v-2q103 -32 164 -108t61 -187q0 -173 -104 -267.5t-287 -94.5q-247 0 -379.5 171.5t-144.5 483.5h-252v104h252q6 271 115.5 503t318.5 384q209 -122 325.5 -264t116.5 -291q0 -126 -51.5 -213t-134.5 -119v-4q55 4 150 4h292zM694 836
q-142 -118 -226 -314t-85 -418h270q93 0 161.5 25.5t107 70t57 99.5t18.5 121q0 223 -303 416zM631 0h-246q14 -271 116 -411t290 -140q120 0 182.5 66t62.5 182q0 131 -110.5 217t-294.5 86z" />
    <glyph glyph-name="uniFBAF" unicode="&#x6d2;" horiz-adv-x="1587" arabic-form="final" 
d="M1401 -655h-1233q-7 120 18 231.5t84 207.5t145.5 167t210 112t269.5 41h723v-104h-741q-116 0 -214.5 -34.5t-164.5 -90.5t-112.5 -128.5t-67.5 -148t-21 -149.5h1104v-104z" />
    <glyph glyph-name="uniFBB1" unicode="&#x6d3;" horiz-adv-x="1587" arabic-form="final" 
d="M1401 -655h-1233q-7 120 18 231.5t84 207.5t145.5 167t210 112t269.5 41h723v-104h-741q-116 0 -214.5 -34.5t-164.5 -90.5t-112.5 -128.5t-67.5 -148t-21 -149.5h1104v-104zM100 422v88q97 0 162 -10q-33 13 -51 44.5t-18 65.5q0 76 59 131.5t178 55.5q32 0 102 -9
l-14 -88q-56 9 -98 9q-60 0 -91.5 -25.5t-31.5 -69.5q0 -46 41.5 -75t128.5 -29h106v-88h-473z" />
    <glyph glyph-name="uniFBE8" unicode="&#x649;" horiz-adv-x="636" arabic-form="initial" 
d="M0 0v104h309v859h131v-963h-440z" />
    <glyph glyph-name="uniFBE9" unicode="&#x649;" horiz-adv-x="653" arabic-form="medial" 
d="M0 0v104h309v859h131v-859h244v-104h-684z" />
    <glyph glyph-name="uniFBFD" unicode="&#x6cc;" horiz-adv-x="2048" arabic-form="final" 
d="M1188 0h-350q-361 0 -526 143.5t-165 444.5q0 97 21.5 194.5t52.5 161.5l139 25q-37 -74 -60.5 -174.5t-23.5 -188.5q0 -102 16.5 -178.5t56.5 -139.5t106 -102.5t166.5 -60.5t236.5 -21h201v840q170 39 344 39q240 0 344 -112t104 -332v-435h228v-104h-357v516
q0 193 -80 278t-256 85q-43 0 -92.5 -5.5t-77.5 -10.5l-28 -5v-858z" />
    <glyph glyph-name="uniFBFE" unicode="&#x6cc;" horiz-adv-x="757" arabic-form="initial" 
d="M0 0v104h430v859h129v-963h-559zM539 -305q0 -37 -26.5 -63.5t-63.5 -26.5t-63 26t-26 64q0 37 26 63.5t63 26.5t63.5 -26t26.5 -64zM262 -305q0 -37 -26 -63.5t-64 -26.5q-37 0 -62.5 26t-25.5 64q0 37 25.5 63.5t62.5 26.5q38 0 64 -26t26 -64z" />
    <glyph glyph-name="uniFBFF" unicode="&#x6cc;" horiz-adv-x="774" arabic-form="medial" 
d="M0 0v104h430v859h129v-859h246v-104h-805zM262 -305q0 -37 -26 -63.5t-64 -26.5q-37 0 -62.5 26t-25.5 64q0 37 25.5 63.5t62.5 26.5q38 0 64 -26t26 -64zM539 -305q0 -37 -26.5 -63.5t-63.5 -26.5t-63 26t-26 64q0 37 26 63.5t63 26.5t63.5 -26t26.5 -64z" />
    <glyph glyph-name="uniFDF2" unicode="&#xfdf2;" horiz-adv-x="2562" arabic-form="isolated" 
d="M633 0q-282 0 -407.5 124t-125.5 357q0 102 32 192t93 159.5t157.5 110t217.5 40.5q95 0 194.5 -18t151.5 -36l53 -18v-807h523v1182h131v-1182h518v1340h131v-1444h-1669zM870 104v721q-13 6 -36.5 15t-98.5 24t-151 15q-161 0 -254.5 -104t-93.5 -279q0 -202 99 -297
t320 -95h215z" />
    <glyph glyph-name="uniFE78" unicode="&#xfe78;" horiz-adv-x="827" arabic-form="isolated" 
d="M0 1661l-16 70l163 34q-16 37 -16 78q0 74 50 119t126 45q62 0 103 -37t41 -96q0 -68 -46.5 -102.5t-130.5 -51.5zM229 1784l31 6q60 10 85.5 28.5t25.5 49.5q0 29 -19 47t-51 18q-42 0 -65 -23t-23 -65q0 -17 4 -32.5t8 -22.5z" />
    <glyph glyph-name="uniFE82" unicode="&#x622;" horiz-adv-x="548" arabic-form="final" 
d="M209 0v1444h131v-1340h240v-104h-371zM20 1645l-61 75l160 121l5 -5q6 -6 14.5 -13t20.5 -16.5t28.5 -18.5t34.5 -16.5t41 -12t46 -4.5q36 0 72 9.5t58.5 21t45.5 28t29 22t12 11.5v-118l-6 -5q-5 -5 -14 -11.5t-22 -15t-31.5 -16.5t-40 -15t-50 -11t-59.5 -4
q-51 0 -98.5 18t-62.5 29.5t-23 19.5z" />
    <glyph glyph-name="uniFE84" unicode="&#x623;" horiz-adv-x="548" arabic-form="final" 
d="M209 0v1382h131v-1278h240v-104h-371zM14 1501v86q100 0 162 -10q-33 14 -51.5 46.5t-18.5 64.5q0 76 59 130t177 54q63 0 104 -8l-14 -86q-50 8 -100 8q-60 0 -91.5 -25.5t-31.5 -68.5q0 -47 42 -76t130 -29h106v-86h-473z" />
    <glyph glyph-name="uniFE86" unicode="&#x624;" horiz-adv-x="1212" arabic-form="final" 
d="M434 -520q-71 0 -152.5 9t-127.5 17l-45 9l10 114q182 -45 334 -45q90 0 162.5 18.5t131 58.5t91 110t32.5 166v63h-237q-282 0 -407.5 124t-125.5 357q0 102 32 192t93 159.5t157.5 110t217.5 40.5q95 0 194.5 -18t151.5 -36l53 -18v-807h244v-104h-244v-63
q0 -67 -17 -129t-58.5 -122.5t-104.5 -105.5t-162 -72.5t-223 -27.5zM870 104v721q-13 6 -36.5 15t-98.5 24t-151 15q-161 0 -254.5 -104t-93.5 -279q0 -202 99 -297t320 -95h215zM326 1176v88q90 0 161 -11q-33 13 -51 45t-18 66q0 76 58.5 131t178.5 55q41 0 103 -8
l-15 -88q-50 8 -98 8q-60 0 -91.5 -25t-31.5 -69q0 -46 41.5 -75t128.5 -29h107v-88h-473z" />
    <glyph glyph-name="uniFE88" unicode="&#x625;" horiz-adv-x="548" arabic-form="final" 
d="M209 0v1444h131v-1340h240v-104h-371zM23 -498v86q96 0 133 -6q-45 25 -45 84q0 69 55 115.5t151 46.5q63 0 107 -10l-14 -88q-50 12 -97 12q-45 0 -72.5 -20.5t-27.5 -53.5q0 -80 139 -80h121v-86h-450z" />
    <glyph glyph-name="uniFE8A" unicode="&#x626;" horiz-adv-x="2048" arabic-form="final" 
d="M100 1178v88q90 0 162 -11q-33 13 -51 45t-18 66q0 76 58.5 131t178.5 55q40 0 102 -8l-14 -88q-50 8 -98 8q-60 0 -91.5 -25t-31.5 -69q0 -46 41.5 -75t128.5 -29h106v-88h-473zM1188 0h-350q-361 0 -526 143.5t-165 444.5q0 97 21.5 194.5t52.5 161.5l139 25
q-37 -74 -60.5 -174.5t-23.5 -188.5q0 -102 16.5 -178.5t56.5 -139.5t106 -102.5t166.5 -60.5t236.5 -21h201v840q170 39 344 39q240 0 344 -112t104 -332v-435h228v-104h-357v516q0 193 -80 278t-256 85q-43 0 -92.5 -5.5t-77.5 -10.5l-28 -5v-858z" />
    <glyph glyph-name="uniFE8B" unicode="&#x626;" horiz-adv-x="636" arabic-form="initial" 
d="M86 1167v88q97 0 162 -10q-33 13 -51.5 45t-18.5 66q0 76 59 131t179 55q40 0 102 -8l-14 -88q-50 8 -98 8q-60 0 -91.5 -25t-31.5 -69q0 -46 41.5 -75.5t128.5 -29.5h106v-88h-473zM0 0v104h309v859h131v-963h-440z" />
    <glyph glyph-name="uniFE8C" unicode="&#x626;" horiz-adv-x="653" arabic-form="medial" 
d="M0 0v104h309v859h131v-859h244v-104h-684zM86 1178v88q90 0 162 -11q-33 13 -51.5 45t-18.5 66q0 76 59 131t179 55q40 0 102 -8l-14 -88q-50 8 -98 8q-60 0 -91.5 -25t-31.5 -69q0 -46 41.5 -75t128.5 -29h106v-88h-473z" />
    <glyph glyph-name="uniFE8E" unicode="&#x627;" horiz-adv-x="548" arabic-form="final" 
d="M209 0v1444h131v-1340h240v-104h-371z" />
    <glyph glyph-name="uniFE90" unicode="&#x628;" horiz-adv-x="1599" arabic-form="final" 
d="M838 0q-361 0 -526 143.5t-165 444.5q0 97 21.5 194.5t52.5 161.5l139 25q-37 -74 -60.5 -174.5t-23.5 -188.5q0 -102 16.5 -178.5t56.5 -139.5t106 -102.5t166.5 -60.5t236.5 -21h397v859h129v-859h246v-104h-792zM805 -397q-37 0 -63.5 26t-26.5 64q0 37 26.5 63.5
t63.5 26.5t63.5 -26t26.5 -64q0 -37 -26.5 -63.5t-63.5 -26.5z" />
    <glyph glyph-name="uniFE91" unicode="&#x628;" horiz-adv-x="636" arabic-form="initial" 
d="M0 0v104h309v859h131v-963h-440zM248 -397q-37 0 -63.5 26t-26.5 64q0 37 26.5 63.5t63.5 26.5t63.5 -26t26.5 -64q0 -37 -26.5 -63.5t-63.5 -26.5z" />
    <glyph glyph-name="uniFE92" unicode="&#x628;" horiz-adv-x="653" arabic-form="medial" 
d="M0 0v104h309v859h131v-859h244v-104h-684zM248 -397q-37 0 -63.5 26t-26.5 64q0 37 26.5 63.5t63.5 26.5t63.5 -26t26.5 -64q0 -37 -26.5 -63.5t-63.5 -26.5z" />
    <glyph glyph-name="uniFE94" unicode="&#x629;" horiz-adv-x="1212" arabic-form="final" 
d="M1243 0h-610q-282 0 -407.5 124t-125.5 357q0 102 32 192t93 159.5t157.5 110t217.5 40.5q95 0 194.5 -18t151.5 -36l53 -18v-807h244v-104zM870 104v721q-13 6 -36.5 15t-98.5 24t-151 15q-161 0 -254.5 -104t-93.5 -279q0 -202 99 -297t320 -95h215zM725 1174
q-37 0 -62.5 26t-25.5 64q0 37 25.5 62.5t62.5 25.5t63.5 -25t26.5 -63q0 -37 -26.5 -63.5t-63.5 -26.5zM449 1174q-37 0 -63 26t-26 64q0 37 26 62.5t63 25.5q38 0 64 -25t26 -63q0 -37 -26 -63.5t-64 -26.5z" />
    <glyph glyph-name="uniFE96" unicode="&#x62a;" horiz-adv-x="1599" arabic-form="final" 
d="M838 0q-361 0 -526 143.5t-165 444.5q0 97 21.5 194.5t52.5 161.5l139 25q-37 -74 -60.5 -174.5t-23.5 -188.5q0 -102 16.5 -178.5t56.5 -139.5t106 -102.5t166.5 -60.5t236.5 -21h397v859h129v-859h246v-104h-792zM682 1174q-37 0 -62.5 26t-25.5 64q0 37 25.5 62.5
t62.5 25.5q38 0 64 -25t26 -63q0 -37 -26 -63.5t-64 -26.5zM958 1174q-37 0 -62.5 26t-25.5 64q0 37 25.5 62.5t62.5 25.5t64 -25t27 -63q0 -37 -27 -63.5t-64 -26.5z" />
    <glyph glyph-name="uniFE97" unicode="&#x62a;" horiz-adv-x="636" arabic-form="initial" 
d="M0 0v104h309v859h131v-963h-440zM481 1174q-37 0 -62.5 26t-25.5 64q0 37 25.5 62.5t62.5 25.5t63.5 -25t26.5 -63q0 -37 -26.5 -63.5t-63.5 -26.5zM205 1174q-37 0 -62.5 26t-25.5 64q0 37 25.5 62.5t62.5 25.5q38 0 64 -25t26 -63q0 -37 -26 -63.5t-64 -26.5z" />
    <glyph glyph-name="uniFE98" unicode="&#x62a;" horiz-adv-x="636" arabic-form="medial" 
d="M0 0v104h309v859h131v-859h228v-104h-668zM205 1174q-37 0 -62.5 26t-25.5 64q0 37 25.5 62.5t62.5 25.5q38 0 64 -25t26 -63q0 -37 -26 -63.5t-64 -26.5zM481 1174q-37 0 -62.5 26t-25.5 64q0 37 25.5 62.5t62.5 25.5t63.5 -25t26.5 -63q0 -37 -26.5 -63.5t-63.5 -26.5z
" />
    <glyph glyph-name="uniFE9A" unicode="&#x62b;" horiz-adv-x="1599" arabic-form="final" 
d="M838 0q-361 0 -526 143.5t-165 444.5q0 97 21.5 194.5t52.5 161.5l139 25q-37 -74 -60.5 -174.5t-23.5 -188.5q0 -102 16.5 -178.5t56.5 -139.5t106 -102.5t166.5 -60.5t236.5 -21h397v859h129v-859h246v-104h-792zM684 1174q-37 0 -62.5 26t-25.5 64q0 37 25.5 62.5
t62.5 25.5t63.5 -25t26.5 -63q0 -37 -26.5 -63.5t-63.5 -26.5zM961 1174q-37 0 -64 26t-27 64q0 36 27 62t64 26t62.5 -25t25.5 -63q0 -37 -25.5 -63.5t-62.5 -26.5zM821 1384q-36 0 -61 25.5t-25 63.5q0 37 25.5 62.5t60.5 25.5q37 0 62.5 -25t25.5 -63q0 -37 -25.5 -63
t-62.5 -26z" />
    <glyph glyph-name="uniFE9B" unicode="&#x62b;" horiz-adv-x="636" arabic-form="initial" 
d="M0 0v104h309v859h131v-963h-440zM342 1384q-36 0 -61 25.5t-25 63.5q0 37 25.5 62.5t60.5 25.5q37 0 62.5 -25t25.5 -63q0 -37 -25.5 -63t-62.5 -26zM481 1174q-37 0 -63.5 26t-26.5 64q0 37 26.5 62.5t63.5 25.5t62.5 -25t25.5 -63q0 -37 -25.5 -63.5t-62.5 -26.5z
M205 1174q-37 0 -62.5 26t-25.5 64q0 37 25.5 62.5t62.5 25.5t63.5 -25t26.5 -63q0 -37 -26.5 -63.5t-63.5 -26.5z" />
    <glyph glyph-name="uniFE9C" unicode="&#x62b;" horiz-adv-x="653" arabic-form="medial" 
d="M0 0v104h309v859h131v-859h244v-104h-684zM205 1174q-37 0 -62.5 26t-25.5 64q0 37 25.5 62.5t62.5 25.5t63.5 -25t26.5 -63q0 -37 -26.5 -63.5t-63.5 -26.5zM481 1174q-37 0 -63.5 26t-26.5 64q0 37 26.5 62.5t63.5 25.5t62.5 -25t25.5 -63q0 -37 -25.5 -63.5
t-62.5 -26.5zM342 1384q-36 0 -61 25.5t-25 63.5q0 37 25.5 62.5t60.5 25.5q37 0 62.5 -25t25.5 -63q0 -37 -25.5 -63t-62.5 -26z" />
    <glyph glyph-name="uniFE9E" unicode="&#x62c;" horiz-adv-x="1196" arabic-form="final" 
d="M1227 0h-576q-138 0 -233.5 -20.5t-146.5 -59.5t-72 -86t-21 -110q0 -117 109 -196t309 -79l-8 -104q-257 0 -398 104t-141 260q0 395 613 395h245q17 150 17 250q0 134 -24 226.5t-80 157.5t-149.5 95.5t-230.5 30.5q-112 0 -221 -14v102q130 17 234 17q165 0 281 -38
t186.5 -115.5t102.5 -186t32 -258.5q0 -114 -21 -267h193v-104zM723 -397q-37 0 -63.5 26t-26.5 64q0 37 26.5 63.5t63.5 26.5t63.5 -26t26.5 -64q0 -37 -26.5 -63.5t-63.5 -26.5z" />
    <glyph glyph-name="uniFE9F" unicode="&#x62c;" horiz-adv-x="1183" arabic-form="initial" 
d="M0 0v104h883q18 132 18 250q0 133 -24 226t-80.5 158t-149.5 95.5t-229 30.5q-112 0 -221 -14v102q125 17 231 17q165 0 281 -38t186.5 -115.5t102.5 -186t32 -258.5q0 -177 -33 -371h-997zM483 -397q-37 0 -63.5 26t-26.5 64q0 37 26.5 63.5t63.5 26.5t63.5 -26
t26.5 -64q0 -37 -26.5 -63.5t-63.5 -26.5z" />
    <glyph glyph-name="uniFEA0" unicode="&#x62c;" horiz-adv-x="1193" arabic-form="medial" 
d="M0 0v104h883q18 132 18 250q0 133 -24 226t-80.5 158t-149.5 95.5t-229 30.5q-112 0 -221 -14v102q125 17 231 17q165 0 281 -38t186.5 -115.5t102.5 -186t32 -258.5q0 -136 -18 -267h213v-104h-1225zM483 -397q-37 0 -63.5 26t-26.5 64q0 37 26.5 63.5t63.5 26.5
t63.5 -26t26.5 -64q0 -37 -26.5 -63.5t-63.5 -26.5z" />
    <glyph glyph-name="uniFEA2" unicode="&#x62d;" horiz-adv-x="1214" arabic-form="final" 
d="M651 0q-138 0 -233.5 -20.5t-146.5 -59.5t-72 -86t-21 -110q0 -122 108.5 -198.5t311.5 -76.5q179 0 381 45l12 -102q-204 -47 -403 -47q-260 0 -399.5 101t-139.5 263q0 395 613 395h241q19 139 19 250q0 133 -24.5 226t-80.5 158t-149.5 95.5t-229.5 30.5
q-112 0 -221 -14v102q125 17 232 17q165 0 281 -38t186.5 -115.5t102.5 -186t32 -258.5q0 -129 -19 -267h213v-104h-594z" />
    <glyph glyph-name="uniFEA3" unicode="&#x62d;" horiz-adv-x="1183" arabic-form="initial" 
d="M0 0v104h883q18 132 18 250q0 133 -24 226t-80.5 158t-149.5 95.5t-229 30.5q-112 0 -221 -14v102q125 17 231 17q165 0 281 -38t186.5 -115.5t102.5 -186t32 -258.5q0 -177 -33 -371h-997z" />
    <glyph glyph-name="uniFEA4" unicode="&#x62d;" horiz-adv-x="1193" arabic-form="medial" 
d="M0 0v104h883q18 132 18 250q0 133 -24 226t-80.5 158t-149.5 95.5t-229 30.5q-112 0 -221 -14v102q125 17 231 17q165 0 281 -38t186.5 -115.5t102.5 -186t32 -258.5q0 -136 -18 -267h213v-104h-1225z" />
    <glyph glyph-name="uniFEA6" unicode="&#x62e;" horiz-adv-x="1214" arabic-form="final" 
d="M588 -655q-260 0 -399.5 101t-139.5 263q0 395 613 395h241q19 139 19 250q0 133 -24.5 226t-80.5 158t-149.5 95.5t-229.5 30.5q-112 0 -221 -14v102q125 17 232 17q165 0 281 -38t186.5 -115.5t102.5 -186t32 -258.5q0 -129 -19 -267h213v-104h-594
q-138 0 -233.5 -20.5t-146.5 -59.5t-72 -86t-21 -110q0 -122 108.5 -198.5t311.5 -76.5q179 0 381 45l12 -102q-204 -47 -403 -47zM504 1217q-37 0 -63.5 26t-26.5 64q0 37 26.5 63.5t63.5 26.5t63.5 -26t26.5 -64q0 -37 -26.5 -63.5t-63.5 -26.5z" />
    <glyph glyph-name="uniFEA7" unicode="&#x62e;" horiz-adv-x="1183" arabic-form="initial" 
d="M0 0v104h883q18 132 18 250q0 133 -24 226t-80.5 158t-149.5 95.5t-229 30.5q-112 0 -221 -14v102q125 17 231 17q165 0 281 -38t186.5 -115.5t102.5 -186t32 -258.5q0 -177 -33 -371h-997zM483 1217q-37 0 -63.5 26t-26.5 64q0 37 26.5 63.5t63.5 26.5t63.5 -26
t26.5 -64q0 -37 -26.5 -63.5t-63.5 -26.5z" />
    <glyph glyph-name="uniFEA8" unicode="&#x62e;" horiz-adv-x="1193" arabic-form="medial" 
d="M0 0v104h883q18 132 18 250q0 133 -24 226t-80.5 158t-149.5 95.5t-229 30.5q-112 0 -221 -14v102q125 17 231 17q165 0 281 -38t186.5 -115.5t102.5 -186t32 -258.5q0 -136 -18 -267h213v-104h-1225zM483 1217q-37 0 -63.5 26t-26.5 64q0 37 26.5 63.5t63.5 26.5
t63.5 -26t26.5 -64q0 -37 -26.5 -63.5t-63.5 -26.5z" />
    <glyph glyph-name="uniFEAA" unicode="&#x62f;" horiz-adv-x="1087" arabic-form="final" 
d="M115 0v104h692q-2 323 -125.5 503t-415.5 278l37 110q331 -110 480 -315t153 -576h180v-104h-1001z" />
    <glyph glyph-name="uniFEAC" unicode="&#x630;" horiz-adv-x="1087" arabic-form="final" 
d="M115 0v104h692q-2 323 -125.5 503t-415.5 278l37 110q331 -110 480 -315t153 -576h180v-104h-1001zM403 1217q-37 0 -63.5 26t-26.5 64q0 37 26.5 63.5t63.5 26.5t64 -26t27 -64q0 -37 -27 -63.5t-64 -26.5z" />
    <glyph glyph-name="uniFEAE" unicode="&#x631;" horiz-adv-x="872" arabic-form="final" 
d="M205 -530q-136 0 -242 36l21 111q115 -43 233 -43q75 0 130.5 20t97 65t62.5 123t21 189v992h129v-859h246v-104h-246v-10q0 -249 -106.5 -384.5t-345.5 -135.5z" />
    <glyph glyph-name="uniFEB0" unicode="&#x632;" horiz-adv-x="872" arabic-form="final" 
d="M205 -530q-136 0 -242 36l21 111q115 -43 233 -43q75 0 130.5 20t97 65t62.5 123t21 189v992h129v-859h246v-104h-246v-10q0 -249 -106.5 -384.5t-345.5 -135.5zM590 1217q-37 0 -63.5 26t-26.5 64q0 37 26.5 63.5t63.5 26.5t63.5 -26t26.5 -64q0 -37 -26.5 -63.5
t-63.5 -26.5z" />
    <glyph glyph-name="uniFEB2" unicode="&#x633;" horiz-adv-x="2422" arabic-form="final" 
d="M2032 0q-217 0 -314.5 38t-138.5 142q-20 -69 -69.5 -115t-99 -62.5t-97.5 -16.5q-86 0 -136 26t-85 84q2 -129 -22.5 -228.5t-67.5 -163t-105 -104t-129.5 -57t-146.5 -16.5q-78 0 -146.5 17t-132 58.5t-108.5 104.5t-72 161t-27 222q0 213 51 406l136 26
q-56 -210 -56 -420q0 -109 22 -193.5t57.5 -135.5t85.5 -84t100.5 -45.5t107.5 -12.5q68 0 124 22.5t103 71.5t73 136.5t26 206.5v772h131v-371q0 -194 47.5 -286.5t163.5 -92.5t170.5 90t54.5 287v455h129v-533q0 -64 7.5 -109t26 -77t42.5 -51t65.5 -30t86 -14.5
t112.5 -3.5h74q20 153 20 314q0 319 -76 575l127 29q78 -267 78 -590q0 -146 -20 -328h250v-104h-422z" />
    <glyph glyph-name="uniFEB3" unicode="&#x633;" horiz-adv-x="1751" arabic-form="initial" 
d="M0 0v104h80q120 0 174.5 67t54.5 232v437h131v-371v-13q0 -71 1 -105t6 -86t17 -76t33 -51.5t55 -37.5t81 -10q56 0 97.5 16.5t76 57t52.5 116.5t18 187v455h129v-533q0 -64 7.5 -109.5t26 -77.5t42.5 -51t65 -29.5t85 -14t111 -3.5h76q19 146 19 314q0 325 -74 575
l127 29q78 -267 78 -590q0 -221 -37 -432h-156q-218 0 -314 37.5t-138 142.5q-25 -79 -100.5 -136.5t-211.5 -57.5q-102 0 -168.5 51.5t-87.5 136.5q-59 -174 -276 -174h-80z" />
    <glyph glyph-name="uniFEB4" unicode="&#x633;" horiz-adv-x="1767" arabic-form="medial" 
d="M0 0v104h80q120 0 174.5 67t54.5 232v437h131v-371v-13q0 -71 1 -105t6 -86t17 -76t33 -51.5t55 -37.5t81 -10q56 0 97.5 16.5t76 57t52.5 116.5t18 187v455h129v-533q0 -64 7.5 -109.5t26 -77.5t42.5 -51t65 -29.5t85 -14t111 -3.5h76q19 146 19 314q0 325 -74 575
l127 29q78 -267 78 -590q0 -149 -23 -328h252v-104h-422q-218 0 -314 37.5t-138 142.5q-25 -79 -100.5 -136.5t-211.5 -57.5q-102 0 -168.5 51.5t-87.5 136.5q-59 -174 -276 -174h-80z" />
    <glyph glyph-name="uniFEB6" unicode="&#x634;" horiz-adv-x="2422" arabic-form="final" 
d="M2032 0q-217 0 -314.5 38t-138.5 142q-20 -69 -69.5 -115t-99 -62.5t-97.5 -16.5q-86 0 -136 26t-85 84q2 -129 -22.5 -228.5t-67.5 -163t-105 -104t-129.5 -57t-146.5 -16.5q-78 0 -146.5 17t-132 58.5t-108.5 104.5t-72 161t-27 222q0 213 51 406l136 26
q-56 -210 -56 -420q0 -109 22 -193.5t57.5 -135.5t85.5 -84t100.5 -45.5t107.5 -12.5q68 0 124 22.5t103 71.5t73 136.5t26 206.5v772h131v-371q0 -194 47.5 -286.5t163.5 -92.5t170.5 90t54.5 287v455h129v-533q0 -64 7.5 -109t26 -77t42.5 -51t65.5 -30t86 -14.5
t112.5 -3.5h74q20 153 20 314q0 319 -76 575l127 29q78 -267 78 -590q0 -146 -20 -328h250v-104h-422zM1436 1174q-37 0 -62.5 26t-25.5 64q0 37 25.5 62.5t62.5 25.5t63.5 -25t26.5 -63q0 -37 -26.5 -63.5t-63.5 -26.5zM1712 1174q-37 0 -63.5 26t-26.5 64q0 37 26.5 62.5
t63.5 25.5t62.5 -25t25.5 -63q0 -37 -25.5 -63.5t-62.5 -26.5zM1573 1384q-36 0 -61 25.5t-25 63.5q0 37 25.5 62.5t60.5 25.5q37 0 62.5 -25t25.5 -63q0 -37 -25.5 -63t-62.5 -26z" />
    <glyph glyph-name="uniFEB7" unicode="&#x634;" horiz-adv-x="1751" arabic-form="initial" 
d="M0 0v104h80q120 0 174.5 67t54.5 232v437h131v-371v-13q0 -71 1 -105t6 -86t17 -76t33 -51.5t55 -37.5t81 -10q56 0 97.5 16.5t76 57t52.5 116.5t18 187v455h129v-533q0 -64 7.5 -109.5t26 -77.5t42.5 -51t65 -29.5t85 -14t111 -3.5h76q19 146 19 314q0 325 -74 575
l127 29q78 -267 78 -590q0 -221 -37 -432h-156q-218 0 -314 37.5t-138 142.5q-25 -79 -100.5 -136.5t-211.5 -57.5q-102 0 -168.5 51.5t-87.5 136.5q-59 -174 -276 -174h-80zM932 1384q-36 0 -61 25.5t-25 63.5q0 37 25.5 62.5t60.5 25.5q37 0 62.5 -25t25.5 -63
q0 -37 -25.5 -63t-62.5 -26zM1071 1174q-37 0 -63.5 26t-26.5 64q0 37 26.5 62.5t63.5 25.5t62.5 -25t25.5 -63q0 -37 -25.5 -63.5t-62.5 -26.5zM795 1174q-37 0 -62.5 26t-25.5 64q0 37 25.5 62.5t62.5 25.5t63.5 -25t26.5 -63q0 -37 -26.5 -63.5t-63.5 -26.5z" />
    <glyph glyph-name="uniFEB8" unicode="&#x634;" horiz-adv-x="1767" arabic-form="medial" 
d="M1376 0q-218 0 -314 37.5t-138 142.5q-25 -79 -100.5 -136.5t-211.5 -57.5q-102 0 -168.5 51.5t-87.5 136.5q-59 -174 -276 -174h-80v104h80q120 0 174.5 67t54.5 232v437h131v-371v-13q0 -71 1 -105t6 -86t17 -76t33 -51.5t55 -37.5t81 -10q56 0 97.5 16.5t76 57
t52.5 116.5t18 187v455h129v-533q0 -64 7.5 -109.5t26 -77.5t42.5 -51t65 -29.5t85 -14t111 -3.5h76q19 146 19 314q0 325 -74 575l127 29q78 -267 78 -590q0 -149 -23 -328h252v-104h-422zM795 1174q-37 0 -62.5 26t-25.5 64q0 37 25.5 62.5t62.5 25.5t63.5 -25t26.5 -63
q0 -37 -26.5 -63.5t-63.5 -26.5zM1071 1174q-37 0 -63.5 26t-26.5 64q0 37 26.5 62.5t63.5 25.5t62.5 -25t25.5 -63q0 -37 -25.5 -63.5t-62.5 -26.5zM932 1384q-36 0 -61 25.5t-25 63.5q0 37 25.5 62.5t60.5 25.5q37 0 62.5 -25t25.5 -63q0 -37 -25.5 -63t-62.5 -26z" />
    <glyph glyph-name="uniFEBA" unicode="&#x635;" horiz-adv-x="2170" arabic-form="final" 
d="M621 -473q-78 0 -146.5 17t-132 58.5t-108.5 104.5t-72 161t-27 222q0 213 51 406l136 26q-56 -210 -56 -420q0 -109 22 -193.5t57.5 -135.5t85.5 -84t100.5 -45.5t107.5 -12.5q68 0 124 22.5t103 71.5t73 136.5t26 206.5v895h131v-101q0 -224 -21 -411h2
q71 254 233.5 393t358.5 139q187 0 290 -121.5t103 -343.5q0 -281 -184 -414h328v-104h-690h-31h-393q-7 -119 -46 -210.5t-102.5 -148t-145 -85.5t-177.5 -29zM1094 104h432q401 10 401 400q0 177 -69.5 276t-208.5 99q-94 0 -179 -46t-149 -123t-113 -177.5t-77.5 -210
t-36.5 -218.5z" />
    <glyph glyph-name="uniFEBB" unicode="&#x635;" horiz-adv-x="1542" arabic-form="initial" 
d="M0 0v104h307v859h131v-101q0 -232 -20 -411h2q71 254 233.5 393t358.5 139q187 0 290 -121.5t103 -343.5q0 -108 -30.5 -198t-95.5 -163.5t-180.5 -115t-271.5 -41.5h-827zM436 104h408q426 0 426 400q0 177 -70 276t-209 99q-94 0 -179 -46t-149 -123t-113 -177.5
t-77.5 -210t-36.5 -218.5z" />
    <glyph glyph-name="uniFEBC" unicode="&#x635;" horiz-adv-x="1540" arabic-form="medial" 
d="M842 0h-15h-827v104h307v859h131v-101q0 -232 -20 -411h2q71 254 233.5 393t358.5 139q187 0 290 -121.5t103 -343.5q0 -281 -184 -414h354v-104h-733zM436 104h408q426 0 426 400q0 177 -70 276t-209 99q-94 0 -179 -46t-149 -123t-113 -177.5t-77.5 -210t-36.5 -218.5z
" />
    <glyph glyph-name="uniFEBE" unicode="&#x636;" horiz-adv-x="2170" arabic-form="final" 
d="M621 -473q-78 0 -146.5 17t-132 58.5t-108.5 104.5t-72 161t-27 222q0 213 51 406l136 26q-56 -210 -56 -420q0 -109 22 -193.5t57.5 -135.5t85.5 -84t100.5 -45.5t107.5 -12.5q68 0 124 22.5t103 71.5t73 136.5t26 206.5v895h131v-101q0 -224 -21 -411h2
q71 254 233.5 393t358.5 139q187 0 290 -121.5t103 -343.5q0 -281 -184 -414h328v-104h-1114q-7 -119 -46 -210.5t-102.5 -148t-145 -85.5t-177.5 -29zM1094 104h407q426 0 426 400q0 177 -69.5 276t-208.5 99q-94 0 -179 -46t-149 -123t-113 -177.5t-77.5 -210
t-36.5 -218.5zM1645 1217q-37 0 -64 26t-27 64q0 37 27 63.5t64 26.5t63.5 -26t26.5 -64q0 -37 -26.5 -63.5t-63.5 -26.5z" />
    <glyph glyph-name="uniFEBF" unicode="&#x636;" horiz-adv-x="1503" arabic-form="initial" 
d="M0 0v104h307v859h131v-101q0 -232 -20 -411h2q71 254 233.5 393t358.5 139q187 0 290 -121.5t103 -343.5q0 -108 -30.5 -198t-95.5 -163.5t-180.5 -115t-271.5 -41.5h-827zM436 104h408q426 0 426 400q0 177 -70 276t-209 99q-94 0 -179 -46t-149 -123t-113 -177.5
t-77.5 -210t-36.5 -218.5zM985 1217q-37 0 -63.5 26t-26.5 64q0 37 26.5 63.5t63.5 26.5t63.5 -26t26.5 -64q0 -37 -26.5 -63.5t-63.5 -26.5z" />
    <glyph glyph-name="uniFEC0" unicode="&#x636;" horiz-adv-x="1511" arabic-form="medial" 
d="M0 0v104h307v859h131v-101q0 -232 -20 -411h2q71 254 233.5 393t358.5 139q187 0 290 -121.5t103 -343.5q0 -281 -184 -414h323v-104h-1544zM436 104h432q402 10 402 400q0 177 -70 276t-209 99q-94 0 -179 -46t-149 -123t-113 -177.5t-77.5 -210t-36.5 -218.5zM985 1217
q-37 0 -63.5 26t-26.5 64q0 37 26.5 63.5t63.5 26.5t63.5 -26t26.5 -64q0 -37 -26.5 -63.5t-63.5 -26.5z" />
    <glyph glyph-name="uniFEC2" unicode="&#x637;" horiz-adv-x="1511" arabic-form="final" 
d="M0 0v104h305v1340h129v-582q0 -232 -20 -411h2q73 255 235 393.5t359 138.5q187 0 290 -121.5t103 -343.5q0 -281 -184 -414h325v-104h-688h-31h-825zM432 104h434q402 10 402 400q0 177 -70 276t-211 99q-116 0 -217.5 -70t-170.5 -183t-112.5 -248.5t-54.5 -273.5z" />
    <glyph glyph-name="uniFEC3" unicode="&#x637;" horiz-adv-x="1501" arabic-form="initial" 
d="M0 0v104h305v1340h129v-582q0 -232 -20 -411h2q73 255 235 393.5t359 138.5q187 0 290 -121.5t103 -343.5q0 -108 -30.5 -198t-95.5 -163.5t-180.5 -115t-271.5 -41.5h-825zM432 104h410q426 0 426 400q0 177 -70 276t-211 99q-116 0 -217.5 -70t-170.5 -183
t-112.5 -248.5t-54.5 -273.5z" />
    <glyph glyph-name="uniFEC4" unicode="&#x637;" horiz-adv-x="1531" arabic-form="medial" 
d="M0 0v104h305v1340h129v-582q0 -232 -20 -411h2q73 255 235 393.5t359 138.5q187 0 290 -121.5t103 -343.5q0 -281 -184 -414h348v-104h-711h-31h-825zM432 104h434q402 10 402 400q0 177 -70 276t-211 99q-116 0 -217.5 -70t-170.5 -183t-112.5 -248.5t-54.5 -273.5z" />
    <glyph glyph-name="uniFEC6" unicode="&#x638;" horiz-adv-x="1511" arabic-form="final" 
d="M0 0v104h305v1340h129v-582q0 -232 -20 -411h2q73 255 235 393.5t359 138.5q187 0 290 -121.5t103 -343.5q0 -281 -184 -414h325v-104h-1544zM432 104h410q426 0 426 400q0 177 -70 276t-211 99q-116 0 -217.5 -70t-170.5 -183t-112.5 -248.5t-54.5 -273.5zM985 1217
q-37 0 -63.5 26t-26.5 64q0 37 26.5 63.5t63.5 26.5t63.5 -26t26.5 -64q0 -37 -26.5 -63.5t-63.5 -26.5z" />
    <glyph glyph-name="uniFEC7" unicode="&#x638;" horiz-adv-x="1501" arabic-form="initial" 
d="M0 0v104h305v1340h129v-582q0 -232 -20 -411h2q73 255 235 393.5t359 138.5q187 0 290 -121.5t103 -343.5q0 -108 -30.5 -198t-95.5 -163.5t-180.5 -115t-271.5 -41.5h-825zM432 104h410q426 0 426 400q0 177 -70 276t-211 99q-116 0 -217.5 -70t-170.5 -183
t-112.5 -248.5t-54.5 -273.5zM985 1217q-37 0 -63.5 26t-26.5 64q0 37 26.5 63.5t63.5 26.5t63.5 -26t26.5 -64q0 -37 -26.5 -63.5t-63.5 -26.5z" />
    <glyph glyph-name="uniFEC8" unicode="&#x638;" horiz-adv-x="1511" arabic-form="medial" 
d="M0 0v104h305v1340h129v-582q0 -232 -20 -411h2q73 255 235 393.5t359 138.5q187 0 290 -121.5t103 -343.5q0 -281 -184 -414h325v-104h-1544zM432 104h410q426 0 426 400q0 177 -70 276t-211 99q-116 0 -217.5 -70t-170.5 -183t-112.5 -248.5t-54.5 -273.5zM985 1217
q-37 0 -63.5 26t-26.5 64q0 37 26.5 63.5t63.5 26.5t63.5 -26t26.5 -64q0 -37 -26.5 -63.5t-63.5 -26.5z" />
    <glyph glyph-name="uniFECA" unicode="&#x639;" horiz-adv-x="1277" arabic-form="final" 
d="M635 -530q-275 0 -409 96.5t-134 249.5q0 36 9 70t22 61.5t38 56.5t46.5 50t59 47t63 42t71.5 40.5t72.5 37.5t77 37.5t74.5 36.5q-55 54 -83 81t-82.5 74.5t-96.5 76t-99.5 60t-116.5 52.5l11 88q142 110 296.5 185t297.5 75q94 0 166.5 -25.5t115 -69t63.5 -97.5
t21 -115q0 -68 -23.5 -128t-68 -109.5t-96.5 -88.5t-121 -78q93 -82 184 -127t197 -45h119v-104h-142q-135 0 -242 56.5t-223 164.5q-30 -15 -86.5 -43t-87.5 -43.5t-79 -42t-75 -46t-60 -47t-50 -53t-29 -57t-12 -65.5q0 -113 105 -181.5t323 -68.5q69 0 152 7t131 15l49 7
l8 -101q-184 -32 -356 -32zM281 692q44 -17 90 -43t77 -46.5t79 -62t67 -59t72 -69t65 -62.5q123 68 190.5 141.5t67.5 170.5q0 98 -63 160.5t-189 62.5q-108 0 -230 -59t-226 -134z" />
    <glyph glyph-name="uniFECB" unicode="&#x639;" horiz-adv-x="1208" arabic-form="initial" 
d="M0 0v104h455q-115 45 -190 153t-75 253q0 97 30.5 181.5t89.5 150t153 103.5t213 38q65 0 133.5 -12.5t104.5 -25.5l36 -13l-24 -107q-14 6 -38.5 15.5t-94 25t-131.5 15.5q-153 0 -246.5 -95.5t-93.5 -263.5q0 -90 34.5 -164t105 -132t188 -90t272.5 -32h174v-104h-1096
z" />
    <glyph glyph-name="uniFECC" unicode="&#x639;" horiz-adv-x="1277" arabic-form="medial" 
d="M0 0v104h66q349 0 610 142q-19 18 -74.5 72t-81 78t-78.5 69t-91.5 70.5t-93.5 55t-110 48.5l11 88q142 110 296.5 185t297.5 75q94 0 166.5 -25.5t115 -69t63.5 -97.5t21 -115q0 -111 -68.5 -227t-195.5 -213q167 -136 336 -136h119v-104h-142q-118 0 -215 44.5
t-196 127.5q-297 -172 -707 -172h-49zM281 692q59 -22 113.5 -54t109.5 -77.5t90.5 -78t95 -91t84.5 -82.5q102 75 158.5 167.5t56.5 185.5q0 98 -63 160.5t-189 62.5q-108 0 -230 -59t-226 -134z" />
    <glyph glyph-name="uniFECE" unicode="&#x63a;" horiz-adv-x="1277" arabic-form="final" 
d="M635 -530q-275 0 -409 96.5t-134 249.5q0 36 9 70t22 61.5t38 56.5t46.5 50t59 47t63 42t71.5 40.5t72.5 37.5t77 37.5t74.5 36.5q-55 54 -83 81t-82.5 74.5t-96.5 76t-99.5 60t-116.5 52.5l11 88q142 110 296.5 185t297.5 75q94 0 166.5 -25.5t115 -69t63.5 -97.5
t21 -115q0 -68 -23.5 -128t-68 -109.5t-96.5 -88.5t-121 -78q93 -82 184 -127t197 -45h119v-104h-142q-135 0 -242 56.5t-223 164.5q-30 -15 -86.5 -43t-87.5 -43.5t-79 -42t-75 -46t-60 -47t-50 -53t-29 -57t-12 -65.5q0 -113 105 -181.5t323 -68.5q69 0 152 7t131 15l49 7
l8 -101q-184 -32 -356 -32zM281 692q44 -17 90 -43t77 -46.5t79 -62t67 -59t72 -69t65 -62.5q123 68 190.5 141.5t67.5 170.5q0 98 -63 160.5t-189 62.5q-108 0 -230 -59t-226 -134zM709 1219q-37 0 -64 26t-27 64q0 37 27 63.5t64 26.5t63.5 -26t26.5 -64
q0 -37 -26.5 -63.5t-63.5 -26.5z" />
    <glyph glyph-name="uniFECF" unicode="&#x63a;" horiz-adv-x="1208" arabic-form="initial" 
d="M0 0v104h455q-115 45 -190 153t-75 253q0 97 30.5 181.5t89.5 150t153 103.5t213 38q65 0 133.5 -12.5t104.5 -25.5l36 -13l-24 -107q-14 6 -38.5 15.5t-94 25t-131.5 15.5q-153 0 -246.5 -95.5t-93.5 -263.5q0 -90 34.5 -164t105 -132t188 -90t272.5 -32h174v-104h-1096
zM639 1217q-37 0 -63.5 26t-26.5 64q0 37 26.5 63.5t63.5 26.5t63.5 -26t26.5 -64q0 -37 -26.5 -63.5t-63.5 -26.5z" />
    <glyph glyph-name="uniFED0" unicode="&#x63a;" horiz-adv-x="1277" arabic-form="medial" 
d="M0 0v104h66q349 0 610 142q-19 18 -74.5 72t-81 78t-78.5 69t-91.5 70.5t-93.5 55t-110 48.5l11 88q142 110 296.5 185t297.5 75q94 0 166.5 -25.5t115 -69t63.5 -97.5t21 -115q0 -111 -68.5 -227t-195.5 -213q167 -136 336 -136h119v-104h-142q-118 0 -215 44.5
t-196 127.5q-297 -172 -707 -172h-49zM281 692q59 -22 113.5 -54t109.5 -77.5t90.5 -78t95 -91t84.5 -82.5q102 75 158.5 167.5t56.5 185.5q0 98 -63 160.5t-189 62.5q-108 0 -230 -59t-226 -134zM709 1219q-37 0 -64 26t-27 64q0 37 27 63.5t64 26.5t63.5 -26t26.5 -64
q0 -37 -26.5 -63.5t-63.5 -26.5z" />
    <glyph glyph-name="uniFED2" unicode="&#x641;" horiz-adv-x="1894" arabic-form="final" 
d="M1925 104v-104h-1087q-361 0 -526 143.5t-165 444.5q0 97 21.5 194.5t52.5 161.5l139 25q-37 -74 -60.5 -174.5t-23.5 -188.5q0 -129 26.5 -218t91 -155t177.5 -97.5t281 -31.5h143q-159 103 -159 385q0 80 20 153.5t60.5 135.5t97 107.5t134 71.5t167.5 26
q93 0 170 -25.5t139.5 -79.5t97.5 -149t35 -223q0 -126 -49 -235t-139 -171q116 4 194 4h162zM1624 500q0 181 -83.5 280t-242.5 99q-65 0 -122.5 -23t-104 -68t-73.5 -120.5t-27 -171.5q0 -187 85.5 -289.5t243.5 -102.5q65 0 122 23t103 69.5t72.5 124.5t26.5 179z
M1307 1219q-37 0 -63.5 26t-26.5 64q0 37 26.5 63.5t63.5 26.5t63.5 -26t26.5 -64q0 -37 -26.5 -63.5t-63.5 -26.5z" />
    <glyph glyph-name="uniFED3" unicode="&#x641;" horiz-adv-x="1253" arabic-form="initial" 
d="M1057 0h-1057v104h195q32 0 62 -1.5t44 -2.5l14 -2q-178 103 -178 383q0 102 32.5 192t93 159.5t157 110t215.5 40.5q206 0 314 -115t108 -336v-532zM928 104v398q0 199 -78 288t-229 89q-161 0 -255 -104t-94 -281q0 -201 99.5 -295.5t320.5 -94.5h236zM616 1219
q-37 0 -63.5 26t-26.5 64q0 37 26.5 63.5t63.5 26.5t64 -26t27 -64q0 -37 -27 -63.5t-64 -26.5z" />
    <glyph glyph-name="uniFED4" unicode="&#x641;" horiz-adv-x="1196" arabic-form="medial" 
d="M0 0v104h143l158 -4q-164 106 -164 389q0 80 20 153.5t60.5 135.5t97 107.5t134 71.5t167.5 26q93 0 170 -25.5t140 -79.5t98 -149t35 -223q0 -126 -49.5 -235t-139.5 -171q117 4 195 4h162v-104h-1227zM602 104q65 0 122 23t103 69.5t72.5 124.5t26.5 179
q0 181 -83.5 280t-242.5 99q-137 0 -232.5 -97.5t-95.5 -283.5q0 -188 86 -291t244 -103zM608 1219q-37 0 -63.5 26t-26.5 64q0 37 26.5 63.5t63.5 26.5t63.5 -26t26.5 -64q0 -37 -26.5 -63.5t-63.5 -26.5z" />
    <glyph glyph-name="uniFED6" unicode="&#x642;" horiz-adv-x="1818" arabic-form="final" 
d="M1604 911v-807h245v-104h-245v-485q-294 -29 -590 -29q-465 0 -672 144t-207 470q0 203 51 396l136 26q-56 -210 -56 -405q0 -285 177.5 -406t586.5 -121q93 0 203.5 5t174.5 11l65 5v389h-236q-144 0 -247.5 33t-164.5 97.5t-89.5 150.5t-28.5 200q0 102 31.5 191.5
t92 159.5t156.5 110.5t217 40.5q95 0 195 -18t153 -36zM1475 104v721q-13 6 -37 15t-99 24t-151 15q-160 0 -254 -104t-94 -279q0 -202 100 -297t320 -95h215zM1053 1174q-37 0 -62.5 26t-25.5 64q0 37 25.5 62.5t62.5 25.5q38 0 64 -25t26 -63q0 -37 -26 -63.5t-64 -26.5z
M1329 1174q-37 0 -62.5 26t-25.5 64q0 37 25.5 62.5t62.5 25.5t63.5 -25t26.5 -63q0 -37 -26.5 -63.5t-63.5 -26.5z" />
    <glyph glyph-name="uniFED7" unicode="&#x642;" horiz-adv-x="1253" arabic-form="initial" 
d="M1057 0h-1057v104h195q32 0 62 -1.5t44 -2.5l14 -2q-178 103 -178 383q0 102 32.5 192t93 159.5t157 110t215.5 40.5q206 0 314 -115t108 -336v-532zM928 104v398q0 199 -78 288t-229 89q-161 0 -255 -104t-94 -281q0 -201 99.5 -295.5t320.5 -94.5h236zM754 1174
q-37 0 -62.5 26t-25.5 64q0 37 25.5 62.5t62.5 25.5t63.5 -25t26.5 -63q0 -37 -26.5 -63.5t-63.5 -26.5zM477 1174q-37 0 -62.5 26t-25.5 64q0 37 25.5 62.5t62.5 25.5q38 0 64 -25t26 -63q0 -37 -26 -63.5t-64 -26.5z" />
    <glyph glyph-name="uniFED8" unicode="&#x642;" horiz-adv-x="1196" arabic-form="medial" 
d="M0 0v104h143l158 -4q-164 106 -164 389q0 80 20 153.5t60.5 135.5t97 107.5t134 71.5t167.5 26q93 0 170 -25.5t140 -79.5t98 -149t35 -223q0 -126 -49.5 -235t-139.5 -171q117 4 195 4h162v-104h-1227zM602 104q65 0 122 23t103 69.5t72.5 124.5t26.5 179
q0 181 -83.5 280t-242.5 99q-137 0 -232.5 -97.5t-95.5 -283.5q0 -188 86 -291t244 -103zM745 1174q-37 0 -62.5 26t-25.5 64q0 37 25.5 62.5t62.5 25.5t64 -25t27 -63q0 -37 -27 -63.5t-64 -26.5zM469 1174q-37 0 -62.5 26t-25.5 64q0 37 25.5 62.5t62.5 25.5q38 0 64 -25
t26 -63q0 -37 -26 -63.5t-64 -26.5z" />
    <glyph glyph-name="uniFEDA" unicode="&#x643;" horiz-adv-x="1734" arabic-form="final" 
d="M838 0q-361 0 -526 143.5t-165 444.5q0 97 21.5 194.5t52.5 161.5l139 25q-37 -74 -60.5 -174.5t-23.5 -188.5q0 -102 16.5 -178.5t56.5 -139.5t106 -102.5t166.5 -60.5t236.5 -21h537v1340h129v-1340h239v-104h-925zM651 831v89q91 0 162 -11q-33 13 -51.5 45t-18.5 66
q0 76 59 131t179 55q40 0 102 -8l-14 -88q-50 8 -98 8q-60 0 -91.5 -25t-31.5 -69q0 -46 41.5 -75t128.5 -29h106v-89h-473z" />
    <glyph glyph-name="uniFEDB" unicode="&#x643;" horiz-adv-x="999" arabic-form="initial" 
d="M0 0v104h694q-1 172 -34.5 300t-105 221.5t-173.5 156t-250 109.5v98l754 473v-133l-598 -371q135 -55 231 -126t166.5 -174.5t104.5 -246.5t34 -331v-80h-823z" />
    <glyph glyph-name="uniFEDC" unicode="&#x643;" horiz-adv-x="999" arabic-form="medial" 
d="M0 0v104h694q-1 172 -34.5 300t-105 221.5t-173.5 156t-250 109.5v98l754 473v-133l-598 -371q133 -54 228 -124t165 -171t105.5 -239.5t37.5 -319.5h207v-104h-1030z" />
    <glyph glyph-name="uniFEDE" unicode="&#x644;" horiz-adv-x="1302" arabic-form="final" 
d="M965 82v1362h131v-1340h237v-104h-241q-11 -125 -52.5 -218t-106 -147.5t-142.5 -81t-170 -26.5q-78 0 -146.5 17t-132 58.5t-108.5 104.5t-72 161t-27 222q0 213 51 406l136 26q-56 -210 -56 -420q0 -109 22 -193.5t57.5 -135.5t85.5 -84t100.5 -45.5t107.5 -12.5
q68 0 124 23t103 73t73 140.5t26 214.5z" />
    <glyph glyph-name="uniFEDF" unicode="&#x644;" horiz-adv-x="649" arabic-form="initial" 
d="M0 0v104h309v1340h129v-1444h-438z" />
    <glyph glyph-name="uniFEE0" unicode="&#x644;" horiz-adv-x="649" arabic-form="medial" 
d="M0 0v104h309v1340h129v-1340h242v-104h-680z" />
    <glyph glyph-name="uniFEE2" unicode="&#x645;" horiz-adv-x="1626" arabic-form="final" 
d="M1040 0q-140 0 -241.5 31.5t-163 92t-91.5 143t-32 190.5h-72q-122 0 -167.5 -79t-20.5 -243l106 -667h-127l-104 653q-33 206 47.5 323t276.5 117h65q23 184 151.5 303t340.5 119q206 0 314 -115t108 -336v-428h227v-104h-617zM1300 104v398q0 199 -78 288t-229 89
q-161 0 -255.5 -104t-94.5 -281q0 -200 100 -295t322 -95h235z" />
    <glyph glyph-name="uniFEE3" unicode="&#x645;" horiz-adv-x="1253" arabic-form="initial" 
d="M1057 0h-1057v104h195q32 0 62 -1.5t44 -2.5l14 -2q-178 103 -178 383q0 102 32.5 192t93 159.5t157 110t215.5 40.5q206 0 314 -115t108 -336v-532zM928 104v398q0 199 -78 288t-229 89q-161 0 -255 -104t-94 -281q0 -201 99.5 -295.5t320.5 -94.5h236z" />
    <glyph glyph-name="uniFEE4" unicode="&#x645;" horiz-adv-x="1335" arabic-form="medial" 
d="M776 0q-111 0 -193.5 15t-137.5 45.5t-90.5 67.5t-61.5 89q-20 -95 -99.5 -156t-203.5 -61h-31v104q60 0 103.5 15t81 54t56.5 116t19 192q0 102 32.5 192t93 159.5t157 110t215.5 40.5q206 0 314 -115t108 -336v-428h227v-104h-590zM1010 104v398q0 199 -78.5 288
t-229.5 89q-161 0 -254.5 -104t-93.5 -281q0 -201 99.5 -295.5t320.5 -94.5h236z" />
    <glyph glyph-name="uniFEE6" unicode="&#x646;" horiz-adv-x="1347" arabic-form="final" 
d="M1133 963v-859h245v-104h-250q-17 -234 -147.5 -353.5t-362.5 -119.5q-78 0 -147 17t-132.5 58.5t-108.5 104.5t-72 161t-27 222q0 213 51 406l135 26q-55 -207 -55 -420q0 -91 15 -165.5t42.5 -124.5t62.5 -86.5t78.5 -56.5t85.5 -29t89 -9q366 0 366 437v895h132z
M625 805q-37 0 -63.5 26t-26.5 64q0 37 26.5 63.5t63.5 26.5t63.5 -26t26.5 -64q0 -37 -26.5 -63.5t-63.5 -26.5z" />
    <glyph glyph-name="uniFEE7" unicode="&#x646;" horiz-adv-x="636" arabic-form="initial" 
d="M375 1217q-37 0 -63.5 26t-26.5 64q0 37 26.5 63.5t63.5 26.5t63.5 -26t26.5 -64q0 -37 -26.5 -63.5t-63.5 -26.5zM0 0v104h309v859h131v-963h-440z" />
    <glyph glyph-name="uniFEE8" unicode="&#x646;" horiz-adv-x="653" arabic-form="medial" 
d="M0 0v104h309v859h131v-859h244v-104h-684zM375 1217q-37 0 -63.5 26t-26.5 64q0 37 26.5 63.5t63.5 26.5t63.5 -26t26.5 -64q0 -37 -26.5 -63.5t-63.5 -26.5z" />
    <glyph glyph-name="uniFEEA" unicode="&#x647;" horiz-adv-x="1212" arabic-form="final" 
d="M1243 0h-610q-282 0 -407.5 124t-125.5 357q0 102 32 192t93 159.5t157.5 110t217.5 40.5q95 0 194.5 -18t151.5 -36l53 -18v-807h244v-104zM870 104v721q-13 6 -36.5 15t-98.5 24t-151 15q-161 0 -254.5 -104t-93.5 -279q0 -202 99 -297t320 -95h215z" />
    <glyph glyph-name="uniFEEB" unicode="&#x647;" horiz-adv-x="1564" arabic-form="initial" 
d="M1397 0h-1397v104h283h20.5t19 -0.5t15.5 -1t12 -0.5h4q-3 2 -12 9t-25 25.5t-29.5 42t-23.5 60t-10 76.5q0 157 101.5 246.5t267.5 89.5q177 0 264.5 -118t87.5 -324v-105h293v54q0 282 -71 454t-209 248t-359 76q-96 0 -215.5 -19.5t-218.5 -50.5l-15 101
q230 71 469 71q184 0 320.5 -48t233.5 -151t145.5 -269.5t48.5 -397.5v-172zM850 104v93q0 356 -238 356q-111 0 -171 -58.5t-60 -158.5q0 -117 72 -174.5t182 -57.5h215z" />
    <glyph glyph-name="uniFEEC" unicode="&#x647;" horiz-adv-x="1564" arabic-form="medial" 
d="M0 0v104h283h20.5t19 -0.5t15.5 -1t12 -0.5h4q-3 2 -12 9t-25 25.5t-29.5 42t-23.5 60t-10 76.5q0 157 101.5 246.5t267.5 89.5q177 0 264.5 -118t87.5 -324v-105h293v54q0 282 -71 454t-209 248t-359 76q-96 0 -215.5 -19.5t-218.5 -50.5l-15 101q230 71 469 71
q184 0 320.5 -48t233.5 -151t145.5 -269.5t48.5 -397.5v-68h198v-104h-1595zM850 104v93q0 356 -238 356q-111 0 -171 -58.5t-60 -158.5q0 -117 72 -174.5t182 -57.5h215z" />
    <glyph glyph-name="uniFEEE" unicode="&#x648;" horiz-adv-x="1234" arabic-form="final" 
d="M457 -520q-71 0 -152.5 9t-127.5 17l-46 9l10 114q182 -45 334 -45q90 0 162.5 18.5t131.5 58.5t91.5 110t32.5 166v63h-238q-144 0 -247.5 33t-165.5 97.5t-90.5 150.5t-28.5 200q0 102 32 192t93 159.5t157.5 110t217.5 40.5q95 0 194.5 -18t152.5 -36l52 -18v-807h244
v-104h-244v-63q0 -67 -17 -129t-58.5 -122.5t-104.5 -105.5t-162 -72.5t-223 -27.5zM893 104v721q-13 6 -37 15t-99 24t-151 15q-161 0 -254.5 -104t-93.5 -279q0 -202 99 -297t321 -95h215z" />
    <glyph glyph-name="uniFEF0" unicode="&#x649;" horiz-adv-x="2048" arabic-form="final" 
d="M1188 0h-350q-361 0 -526 143.5t-165 444.5q0 97 21.5 194.5t52.5 161.5l139 25q-37 -74 -60.5 -174.5t-23.5 -188.5q0 -102 16.5 -178.5t56.5 -139.5t106 -102.5t166.5 -60.5t236.5 -21h201v840q170 39 344 39q240 0 344 -112t104 -332v-435h228v-104h-357v516
q0 193 -80 278t-256 85q-43 0 -92.5 -5.5t-77.5 -10.5l-28 -5v-858z" />
    <glyph glyph-name="uniFEF2" unicode="&#x64a;" horiz-adv-x="2048" arabic-form="final" 
d="M1188 0h-350q-361 0 -526 143.5t-165 444.5q0 97 21.5 194.5t52.5 161.5l139 25q-37 -74 -60.5 -174.5t-23.5 -188.5q0 -102 16.5 -178.5t56.5 -139.5t106 -102.5t166.5 -60.5t236.5 -21h201v840q170 39 344 39q240 0 344 -112t104 -332v-435h228v-104h-357v516
q0 193 -80 278t-256 85q-43 0 -92.5 -5.5t-77.5 -10.5l-28 -5v-858zM1044 -305q0 -37 -26.5 -63.5t-63.5 -26.5t-62.5 26t-25.5 64q0 37 25.5 63.5t62.5 26.5t63.5 -26t26.5 -64zM768 -305q0 -37 -26 -63.5t-64 -26.5q-37 0 -62.5 26t-25.5 64q0 37 25.5 63.5t62.5 26.5
q38 0 64 -26t26 -64z" />
    <glyph glyph-name="uniFEF3" unicode="&#x64a;" horiz-adv-x="757" arabic-form="initial" 
d="M0 0v104h430v859h129v-963h-559zM539 -305q0 -37 -26.5 -63.5t-63.5 -26.5t-63 26t-26 64q0 37 26 63.5t63 26.5t63.5 -26t26.5 -64zM262 -305q0 -37 -26 -63.5t-64 -26.5q-37 0 -62.5 26t-25.5 64q0 37 25.5 63.5t62.5 26.5q38 0 64 -26t26 -64z" />
    <glyph glyph-name="uniFEF4" unicode="&#x64a;" horiz-adv-x="753" arabic-form="medial" 
d="M0 0v104h309v859h131v-859h342v-104h-782zM262 -305q0 -37 -26 -63.5t-64 -26.5q-37 0 -62.5 26t-25.5 64q0 37 25.5 63.5t62.5 26.5q38 0 64 -26t26 -64zM539 -305q0 -37 -26.5 -63.5t-63.5 -26.5t-63 26t-26 64q0 37 26 63.5t63 26.5t63.5 -26t26.5 -64z" />
    <glyph glyph-name=".notdef" horiz-adv-x="1126" 
d="M614 307h-307v512h103v-409h204v-103zM1024 102h-922v922h922v-922zM717 717h-205v102h307v-512h-102v205h-205v102h205v103zM205 205h717v717h-717v-717z" />
    <glyph glyph-name=".null" 
 />
    <glyph glyph-name=".null" 
 />
    <glyph glyph-name="nonmarkingreturn" horiz-adv-x="682" 
 />
    <glyph glyph-name="CR" unicode="&#xd;" horiz-adv-x="1024" 
 />
    <glyph glyph-name="space" unicode=" " horiz-adv-x="446" 
 />
    <glyph glyph-name="exclam" unicode="!" horiz-adv-x="651" 
d="M424 1432l-25 -1117h-104l-27 1117h156zM444 82q0 -41 -28.5 -69.5t-69.5 -28.5t-69.5 28.5t-28.5 69.5q0 40 28.5 68t69.5 28t69.5 -28t28.5 -68z" />
    <glyph glyph-name="quotedbl" unicode="&#x22;" horiz-adv-x="692" 
d="M573 1427l-24 -436h-94l-25 436h143zM264 1427l-26 -436h-95l-24 436h145z" />
    <glyph glyph-name="numbersign" unicode="#" horiz-adv-x="1173" 
d="M1098 903h-209l-45 -409h205v-88h-215l-41 -406h-107l43 406h-346l-41 -406h-106l43 406h-205v88h213l45 409h-207v88h215l43 391h104l-41 -391h345l43 391h106l-43 -391h201v-88zM782 903h-344l-45 -409h344z" />
    <glyph glyph-name="dollar" unicode="$" horiz-adv-x="995" 
d="M870 354q0 -142 -91.5 -241t-254.5 -123v-279h-100v273q-143 3 -260 32l8 127q51 -21 129.5 -34t142.5 -13q132 0 213.5 57.5t81.5 178.5q0 63 -33.5 110t-86.5 76.5t-117.5 55t-129 55t-117.5 67t-86.5 100t-33.5 144.5q0 132 91.5 222.5t242.5 107.5v223h102v-217
q110 -3 220 -25l-9 -121q-119 37 -233 37q-149 0 -218 -60t-69 -149q0 -48 21 -87t56 -66t80.5 -50t96 -43.5t101 -42.5t96 -50.5t80.5 -63.5t56 -86.5t21 -114.5z" />
    <glyph glyph-name="percent" unicode="%" horiz-adv-x="1521" 
d="M1421 309q0 -144 -79.5 -234.5t-217.5 -90.5q-144 0 -210 78t-66 229q0 140 80.5 231.5t216.5 91.5q144 0 210 -77t66 -228zM1309 1358l-1012 -1397l-88 59l1012 1399zM672 1096q0 -145 -79.5 -236.5t-217.5 -91.5q-277 0 -277 309q0 140 80.5 232t216.5 92
q277 0 277 -305zM1305 297q0 112 -41 167.5t-131 55.5q-75 0 -120.5 -59.5t-45.5 -155.5q0 -115 41 -171t133 -56q72 0 118 61t46 158zM555 1081q0 113 -41 168.5t-131 55.5q-75 0 -120.5 -59.5t-45.5 -155.5q0 -114 41.5 -171t132.5 -57q73 0 118.5 61t45.5 158z" />
    <glyph glyph-name="ampersand" unicode="&#x26;" horiz-adv-x="1626" 
d="M1491 68l-82 -101q-167 115 -297 226q-229 -209 -549 -209q-203 0 -319.5 109t-116.5 284q0 71 21 133.5t65 119t93.5 103t123.5 103.5q-116 134 -158.5 214.5t-42.5 163.5q0 123 88.5 207t243.5 84q143 0 222 -73.5t79 -188.5q0 -104 -60.5 -199.5t-201.5 -205.5
q108 -116 246.5 -247.5t263.5 -232.5v-2q77 102 118.5 242t31.5 303h131q6 -178 -43.5 -335.5t-147.5 -280.5q194 -151 291 -217zM733 1227q0 77 -46.5 126.5t-139.5 49.5q-85 0 -138 -50t-53 -132q0 -58 39.5 -129.5t134.5 -178.5q104 83 153.5 156t49.5 158zM1026 262
q-140 117 -284.5 255t-239.5 245q-130 -101 -187 -187t-57 -180q0 -128 91.5 -215.5t240.5 -87.5q251 0 436 170z" />
    <glyph glyph-name="quotesingle" unicode="'" horiz-adv-x="382" 
d="M264 1427l-26 -436h-95l-24 436h145z" />
    <glyph glyph-name="parenleft" unicode="(" horiz-adv-x="616" 
d="M561 -369l-94 -51q-91 144 -152 282.5t-91.5 265t-42 231t-11.5 221.5q0 535 299 1011l88 -47q-129 -218 -195.5 -461t-66.5 -491q0 -530 266 -961z" />
    <glyph glyph-name="parenright" unicode=")" horiz-adv-x="616" 
d="M461 594q0 -538 -299 -1014l-88 49q262 443 262 953q0 527 -264 960l94 49q90 -143 151 -281t91 -264t41.5 -230.5t11.5 -221.5z" />
    <glyph glyph-name="asterisk" unicode="*" horiz-adv-x="749" 
d="M645 1102l-51 -90l-193 131l17 -234h-103l17 234l-195 -131l-49 88l213 102l-213 101l51 90l195 -131l-17 233h103l-17 -233l193 131l49 -88l-211 -101z" />
    <glyph glyph-name="plus" unicode="+" horiz-adv-x="1126" 
d="M1036 555h-413v-432h-123v432h-410v109h410v430h123v-430h413v-109z" />
    <glyph glyph-name="comma" unicode="," horiz-adv-x="425" 
d="M207 180q61 0 86 -59q36 -82 -28 -208q-50 -100 -156 -202l-60 51q60 63 87.5 121.5t25.5 96t-21 63.5q-33 44 -9.5 90.5t75.5 46.5z" />
    <glyph glyph-name="hyphen" unicode="-" horiz-adv-x="669" 
d="M569 549h-469v106h469v-106z" />
    <glyph glyph-name="hyphen" unicode="&#xad;" horiz-adv-x="669" 
d="M569 549h-469v106h469v-106z" />
    <glyph glyph-name="period" unicode="." horiz-adv-x="425" 
d="M311 84q0 -41 -28.5 -70.5t-69.5 -29.5t-69.5 29.5t-28.5 70.5q0 40 28.5 69t69.5 29t69.5 -29t28.5 -69z" />
    <glyph glyph-name="slash" unicode="/" horiz-adv-x="860" 
d="M862 1550l-717 -1880h-120l716 1880h121z" />
    <glyph glyph-name="zero" unicode="0" horiz-adv-x="1193" 
d="M1077 702q0 -180 -38 -319.5t-105.5 -225.5t-156 -129.5t-195.5 -43.5q-465 0 -465 696q0 181 38 320t105.5 225.5t156 130t195.5 43.5q465 0 465 -697zM940 686q0 606 -342 606q-157 0 -250.5 -145t-93.5 -451q0 -604 342 -604q157 0 250.5 144t93.5 450z" />
    <glyph glyph-name="one" unicode="1" horiz-adv-x="710" 
d="M500 0h-135v1253l-277 -110l-25 121l326 118h111v-1382z" />
    <glyph glyph-name="two" unicode="2" horiz-adv-x="1028" 
d="M920 0h-781v104l295 345q167 195 229 318t62 251q0 120 -68.5 196t-201.5 76q-138 0 -283 -88l-18 117q157 80 331 80q177 0 278 -101.5t101 -261.5q0 -147 -75.5 -288.5t-268.5 -366.5l-225 -264v-2q164 6 625 6v-121z" />
    <glyph glyph-name="three" unicode="3" horiz-adv-x="1024" 
d="M877 406q0 -180 -147.5 -300t-369.5 -120q-134 0 -219 20l19 121q82 -29 211 -29q168 0 267 85t99 214t-105.5 203t-297.5 74q-58 0 -119 -6v106q467 -12 467 291q0 108 -67 167.5t-185 59.5q-130 0 -250 -65l-10 114q139 58 281 58q94 0 166 -25t115.5 -69t65 -100
t21.5 -122q0 -120 -64.5 -209t-176.5 -131v-4q134 -27 216.5 -114.5t82.5 -218.5z" />
    <glyph glyph-name="four" unicode="4" horiz-adv-x="1099" 
d="M1055 336h-248v-336h-127v336h-637l-8 100l598 946h174v-925h248v-121zM680 455v800h-2l-510 -806q143 6 512 6z" />
    <glyph glyph-name="five" unicode="5" horiz-adv-x="950" 
d="M868 449q0 -205 -149 -334t-379 -129q-115 0 -205 20l17 121q89 -29 202 -29q173 0 275 89t102 239q0 147 -107 220t-337 73q-68 0 -105 -2v665h604v-125h-481v-430q286 3 424.5 -96t138.5 -282z" />
    <glyph glyph-name="six" unicode="6" horiz-adv-x="1177" 
d="M1063 453q0 -199 -129 -334t-332 -135q-84 0 -152.5 22.5t-114 58t-79.5 87.5t-52.5 103t-30 113t-14.5 108t-3 97q0 173 35.5 312t97.5 234t149.5 158.5t188 92.5t215.5 29q62 0 98 -4v-117q-47 8 -115 8q-221 0 -349 -122.5t-171 -375.5q-12 -82 -16 -98l2 -2
q49 76 143 126t215 50q189 0 301.5 -112.5t112.5 -298.5zM930 430q0 146 -80.5 236t-226.5 90q-142 0 -231 -90t-89 -217q0 -162 83.5 -260.5t229.5 -98.5q135 0 224.5 94t89.5 246z" />
    <glyph glyph-name="seven" unicode="7" horiz-adv-x="925" 
d="M860 1270q-129 -271 -249.5 -621.5t-188.5 -648.5h-148q82 325 209.5 680t233.5 580q-69 -5 -662 -5v127h805v-112z" />
    <glyph glyph-name="eight" unicode="8" horiz-adv-x="1120" 
d="M979 342q0 -165 -123.5 -262.5t-314.5 -97.5q-196 0 -302 93t-106 240q0 52 17.5 100.5t44 86.5t69 77t81 66.5t91.5 61.5q-143 80 -211.5 163t-68.5 193q0 154 113.5 249t303.5 95q174 0 275.5 -89t101.5 -228q0 -49 -16.5 -94t-41 -79.5t-65.5 -71.5t-77 -63t-88 -59
q154 -83 235.5 -172.5t81.5 -208.5zM815 1077q0 98 -67 160.5t-189 62.5q-123 0 -196.5 -61t-73.5 -160q0 -89 65 -156t203 -143q141 88 199.5 154t58.5 143zM840 322q0 38 -10.5 72.5t-34.5 65t-46.5 53.5t-63.5 50.5t-68 43.5t-76 44q-63 -40 -103 -69t-82.5 -69.5
t-63 -86t-20.5 -96.5q0 -108 76.5 -173t210.5 -65q120 0 200.5 60.5t80.5 169.5z" />
    <glyph glyph-name="nine" unicode="9" horiz-adv-x="1193" 
d="M1036 809q0 -172 -34.5 -311t-95.5 -234t-147.5 -158.5t-187 -92.5t-217.5 -29q-83 0 -155 10v125q93 -21 174 -21q217 0 342 120t168 370q12 83 18 102l-2 2q-49 -76 -143 -126t-213 -50q-189 0 -301.5 113t-112.5 299q0 199 129 335t332 136q66 0 122.5 -14t98.5 -37
t76 -57.5t57 -71t40.5 -82t27 -86t15 -87t7.5 -82t2 -73.5zM889 932q0 163 -84.5 261.5t-229.5 98.5q-135 0 -224 -94t-89 -248q0 -145 80.5 -234t226.5 -89q142 0 231 90t89 215z" />
    <glyph glyph-name="colon" unicode=":" horiz-adv-x="569" 
d="M418 696q0 -41 -29 -69.5t-70 -28.5t-69.5 28.5t-28.5 69.5t28.5 70t69.5 29t70 -29t29 -70zM418 84q0 -41 -29 -70.5t-70 -29.5t-69.5 29.5t-28.5 70.5q0 40 28.5 69t69.5 29t70 -29t29 -69z" />
    <glyph glyph-name="semicolon" unicode=";" horiz-adv-x="569" 
d="M418 696q0 -41 -29 -69.5t-70 -28.5t-69.5 28.5t-28.5 69.5t28.5 70t69.5 29t70 -29t29 -70zM317 180q60 0 85 -58q36 -82 -26 -208q-51 -101 -157 -203l-59 51q59 64 86.5 122t26 95.5t-20.5 63.5q-33 44 -10.5 90.5t75.5 46.5z" />
    <glyph glyph-name="semicolon" unicode="&#x37e;" horiz-adv-x="569" 
d="M418 696q0 -41 -29 -69.5t-70 -28.5t-69.5 28.5t-28.5 69.5t28.5 70t69.5 29t70 -29t29 -70zM317 180q60 0 85 -58q36 -82 -26 -208q-51 -101 -157 -203l-59 51q59 64 86.5 122t26 95.5t-20.5 63.5q-33 44 -10.5 90.5t75.5 46.5z" />
    <glyph glyph-name="less" unicode="&#x3c;" horiz-adv-x="1126" 
d="M885 147l-82 -88l-643 564l643 563l82 -80l-559 -481z" />
    <glyph glyph-name="equal" unicode="=" horiz-adv-x="1126" 
d="M1010 715h-893v108h893v-108zM1010 393h-893v111h893v-111z" />
    <glyph glyph-name="greater" unicode="&#x3e;" horiz-adv-x="1126" 
d="M967 623l-643 -564l-82 80l559 482l-559 477l82 88z" />
    <glyph glyph-name="question" unicode="?" horiz-adv-x="903" 
d="M762 1063q0 -53 -14.5 -100t-38.5 -82.5t-54 -68.5t-61.5 -63t-61.5 -62t-53 -69t-36 -80t-11 -100t21 -123h-127q-26 93 -24.5 158.5t26 123.5t59.5 98.5t75.5 83.5t75 80t57.5 86.5t23 103.5q0 109 -117 188t-304 88l16 119q244 -10 396.5 -120t152.5 -261zM487 82
q0 -41 -28.5 -69.5t-69.5 -28.5q-40 0 -68 28.5t-28 69.5q0 40 28 68t68 28q41 0 69.5 -28t28.5 -68z" />
    <glyph glyph-name="at" unicode="@" horiz-adv-x="2015" 
d="M1812 821q0 -259 -125.5 -408t-316.5 -149q-87 0 -142 37t-72 90.5t-5 114.5h-6q-10 -33 -39 -73.5t-70.5 -78.5t-98 -64t-112.5 -26q-194 0 -194 262q0 114 29 213.5t84.5 175.5t142.5 120t196 44q129 0 250 -22l-84 -457q-42 -225 146 -225q131 0 214 116.5t83 321.5
q0 89 -21 171t-69.5 157.5t-119.5 131.5t-177.5 89t-237.5 33q-156 0 -296.5 -60t-242.5 -164.5t-161.5 -253.5t-59.5 -319q0 -310 176 -490t492 -180q181 0 336 49l18 -110q-168 -51 -371 -51q-359 0 -566.5 206.5t-207.5 555.5q0 197 72 369.5t193.5 292t285 188.5
t342.5 69q146 0 268 -37t207 -100.5t144.5 -150t87.5 -184.5t28 -204zM1200 967q-55 14 -141 14q-77 0 -138.5 -42.5t-97 -108.5t-53.5 -137t-18 -138q0 -176 104 -176q94 0 185.5 123.5t134.5 345.5z" />
    <glyph glyph-name="A" unicode="A" horiz-adv-x="1245" 
d="M1212 0h-151l-125 352h-637l-129 -352h-137l520 1382h141zM897 459l-217 596q-44 119 -62 184h-2q-30 -96 -61 -180l-219 -600h561z" />
    <glyph glyph-name="B" unicode="B" horiz-adv-x="1153" 
d="M1032 406q0 -55 -14 -108.5t-51 -109.5t-94 -98t-150.5 -69t-212.5 -27q-1 0 -313 6v1382q34 0 153.5 2t210.5 2q215 0 321.5 -85t106.5 -238q0 -116 -69 -205t-191 -127v-2q138 -14 220.5 -101t82.5 -222zM854 1040q0 113 -71 177.5t-244 64.5q-85 0 -211 -4v-510
q45 -2 139 -2q191 0 289 71t98 203zM897 393q0 273 -430 273q-102 0 -139 -2v-551q89 -13 198 -13q187 0 279 81t92 212z" />
    <glyph glyph-name="C" unicode="C" horiz-adv-x="1218" 
d="M1122 66q-186 -80 -397 -80q-305 0 -462 178t-157 500q0 126 23.5 234.5t75 201t128.5 158t188.5 102.5t250.5 37q175 0 330 -47l-25 -121q-160 57 -334 57q-129 0 -226 -47.5t-154.5 -131.5t-86 -190t-28.5 -231q0 -284 128.5 -435t387.5 -151q83 0 173 21.5t159 56.5z
" />
    <glyph glyph-name="D" unicode="D" horiz-adv-x="1404" 
d="M1298 702q0 -174 -57.5 -310t-162 -222.5t-245.5 -131t-313 -44.5q-67 0 -172 3.5t-151 2.5v1382q49 0 182.5 3.5t204.5 3.5q347 0 530.5 -171t183.5 -516zM1161 694q0 293 -150.5 440.5t-443.5 147.5q-62 0 -239 -6v-1159q114 -15 211 -15q141 0 253.5 35.5t195.5 106.5
t128 185t45 265z" />
    <glyph glyph-name="E" unicode="E" horiz-adv-x="1040" 
d="M879 0h-682v1382h682v-106h-551v-510h524v-104h-524v-553h551v-109z" />
    <glyph glyph-name="F" unicode="F" horiz-adv-x="964" 
d="M877 1276h-549v-512h520v-107h-520v-657h-131v1382h680v-106z" />
    <glyph glyph-name="G" unicode="G" horiz-adv-x="1406" 
d="M1223 59q-204 -75 -445 -75q-317 0 -498.5 180t-181.5 502q0 158 46 291t134.5 232t228 154.5t316.5 55.5q185 0 377 -60l-31 -118q-172 69 -364 69q-147 0 -259 -50t-177.5 -136t-98 -191t-32.5 -225q0 -284 150 -439t411 -155q153 0 293 45v551h131v-631z" />
    <glyph glyph-name="H" unicode="H" horiz-adv-x="1445" 
d="M1249 0h-131v664h-790v-664h-131v1382h131v-610h790v610h131v-1382z" />
    <glyph glyph-name="I" unicode="I" horiz-adv-x="524" 
d="M328 0h-131v1382h131v-1382z" />
    <glyph glyph-name="J" unicode="J" horiz-adv-x="665" 
d="M471 342q0 -177 -78.5 -265.5t-249.5 -88.5q-63 0 -141 16v121q79 -27 152 -27q47 0 79.5 11t57 39t36 79t11.5 127v1028h133v-1040z" />
    <glyph glyph-name="K" unicode="K" horiz-adv-x="1177" 
d="M1137 0h-187l-622 700v-700h-131v1382h131v-669l622 669h166l-639 -669z" />
    <glyph glyph-name="L" unicode="L" horiz-adv-x="870" 
d="M856 0h-659v1382h131v-1273h528v-109z" />
    <glyph glyph-name="M" unicode="M" horiz-adv-x="1832" 
d="M1708 0h-137l-129 897q-27 193 -45 350h-4q-25 -103 -66 -219l-348 -1028h-158l-329 965q-35 101 -86 282h-3q-10 -130 -36 -364l-107 -883h-135l192 1382h172l336 -985q41 -119 80 -264h2q57 195 76 248l342 1001h180z" />
    <glyph glyph-name="N" unicode="N" horiz-adv-x="1462" 
d="M1266 0h-179l-616 975q-112 180 -160 276q15 -311 15 -858v-393h-129v1382h176l610 -962q94 -149 166 -281q-14 455 -14 887v356h131v-1382z" />
    <glyph glyph-name="O" unicode="O" horiz-adv-x="1445" 
d="M1348 707q0 -171 -51 -309.5t-139 -228t-204 -137.5t-249 -48q-151 0 -267.5 49.5t-190.5 141.5t-111.5 218t-37.5 283q0 171 51 309.5t138.5 228t203.5 137.5t248 48q299 0 454 -186t155 -506zM1206 680q0 181 -52.5 316t-162.5 213.5t-268 78.5q-98 0 -185 -39.5
t-153.5 -112t-105.5 -184.5t-39 -247q0 -182 52 -317t162 -213.5t269 -78.5q98 0 185 39.5t153.5 112t105.5 184.5t39 248z" />
    <glyph glyph-name="P" unicode="P" horiz-adv-x="1064" 
d="M985 1001q0 -203 -138.5 -326.5t-369.5 -123.5q-36 0 -73 2t-56 4l-20 2v-559h-131v1382q174 7 317 7q224 0 347.5 -106t123.5 -282zM848 979q0 301 -359 301l-161 -4v-602q76 -12 166 -12q175 0 264.5 85t89.5 232z" />
    <glyph glyph-name="Q" unicode="Q" horiz-adv-x="1443" 
d="M1446 -137q-109 -10 -174 -2.5t-129 28t-111 41.5t-121 37.5t-157 16.5h-49q-151 0 -267.5 49.5t-190.5 141.5t-111.5 218t-37.5 283q0 171 51 309.5t138.5 228t203.5 137.5t248 48q299 0 454 -186t155 -506q0 -233 -95.5 -406.5t-275.5 -243.5q49 1 106.5 -14t103 -31.5
t115.5 -26t144 -1.5v-121zM1206 680q0 181 -52.5 316t-162.5 213.5t-268 78.5q-98 0 -185 -39.5t-153.5 -112t-105.5 -184.5t-39 -247q0 -182 52 -317t162 -213.5t269 -78.5q97 0 184.5 39.5t154 112.5t105.5 185t39 247z" />
    <glyph glyph-name="R" unicode="R" horiz-adv-x="1114" 
d="M1038 0h-174l-510 653h-26v-653h-131v1382q147 7 309 7q98 0 176 -18t140 -56.5t96 -106t34 -159.5t-37 -167t-100 -123t-143.5 -74t-171.5 -28q76 -84 125 -143zM815 1026q0 140 -86.5 199t-259.5 59q-74 0 -141 -6v-520q50 -4 133 -4q166 0 260 75t94 197z" />
    <glyph glyph-name="S" unicode="S" horiz-adv-x="1032" 
d="M913 391q0 -182 -135 -294.5t-360 -112.5q-165 0 -293 39l22 129q141 -54 281 -54q72 0 133 15.5t110 47.5t77 86.5t28 127.5q0 55 -22.5 98t-60.5 72.5t-87.5 54t-104 45.5t-108.5 43.5t-103.5 52.5t-87.5 67t-60.5 92t-22.5 124q0 166 120.5 270.5t335.5 104.5
q123 0 248 -27l-16 -119q-119 37 -240 37q-156 0 -235.5 -67.5t-79.5 -184.5q0 -53 22.5 -95.5t61 -71t88 -53t104.5 -45.5t109.5 -43.5t104 -52.5t88 -67.5t61 -93.5t22.5 -125z" />
    <glyph glyph-name="T" unicode="T" horiz-adv-x="1064" 
d="M1026 1274h-428v-1274h-131v1274h-428v108h987v-108z" />
    <glyph glyph-name="U" unicode="U" horiz-adv-x="1435" 
d="M1239 522q0 -264 -136 -401t-403 -137q-123 0 -215.5 27.5t-146 71t-86.5 107.5t-44 126.5t-11 138.5v927h131v-913q0 -83 16.5 -146.5t57 -118.5t119 -84.5t192.5 -29.5q204 0 300.5 97t96.5 323v872h129v-860z" />
    <glyph glyph-name="V" unicode="V" horiz-adv-x="1249" 
d="M1212 1382l-526 -1382h-141l-512 1382h151l336 -946q52 -138 98 -293h3q49 162 104 306l350 933h137z" />
    <glyph glyph-name="W" unicode="W" horiz-adv-x="1951" 
d="M1866 1382l-371 -1382h-166l-305 1049q-22 70 -53 206h-2q-14 -96 -49 -208l-295 -1047h-166l-375 1382h141l264 -997q41 -155 60 -256h2q29 150 57 244l287 1009h164l301 -1026q37 -130 55 -227h2q15 86 45 197l275 1056h129z" />
    <glyph glyph-name="X" unicode="X" horiz-adv-x="1183" 
d="M1139 0h-164l-391 616l-387 -616h-152l463 715l-434 667h153l359 -563l354 563h150l-428 -655z" />
    <glyph glyph-name="Y" unicode="Y" horiz-adv-x="1062" 
d="M1034 1382l-442 -878v-504h-131v504l-432 878h145l246 -514q54 -110 110 -250h2q32 81 123 271l240 493h139z" />
    <glyph glyph-name="Z" unicode="Z" horiz-adv-x="1105" 
d="M1016 0h-920v92l637 985q60 93 131 193q-160 -4 -340 -4h-405v116h889v-94l-672 -1034q-51 -81 -92 -139q49 4 377 4h395v-119z" />
    <glyph glyph-name="bracketleft" unicode="[" horiz-adv-x="651" 
d="M569 -399h-372v1970h372v-96h-252v-1774h252v-100z" />
    <glyph glyph-name="backslash" unicode="\" horiz-adv-x="849" 
d="M866 -330h-118l-717 1880h119z" />
    <glyph glyph-name="bracketright" unicode="]" horiz-adv-x="651" 
d="M453 -399h-373v100h254v1774h-254v96h373v-1970z" />
    <glyph glyph-name="asciicircum" unicode="^" horiz-adv-x="1126" 
d="M952 764l-100 -53l-315 569l-299 -569l-93 51l340 620h111z" />
    <glyph glyph-name="underscore" unicode="_" horiz-adv-x="1126" 
d="M1126 -514h-1126v100h1126v-100z" />
    <glyph glyph-name="grave" unicode="`" horiz-adv-x="749" 
d="M504 1237l-74 -59l-248 282l99 74z" />
    <glyph glyph-name="a" unicode="a" horiz-adv-x="1062" 
d="M868 0h-131q0 146 13 223l-5 2q-38 -104 -134.5 -172.5t-225.5 -68.5q-121 0 -198.5 71.5t-77.5 192.5q0 157 162.5 250.5t463.5 93.5v55q0 148 -53.5 215.5t-185.5 67.5q-71 0 -155.5 -22t-150.5 -54l-30 107q163 73 354 73q189 0 269.5 -91t80.5 -263v-365
q0 -131 4 -315zM735 469v25q-139 0 -239 -18.5t-154 -51.5t-78 -71.5t-24 -84.5q0 -78 48.5 -128t129.5 -50q91 0 165.5 56.5t113 142.5t38.5 180z" />
    <glyph glyph-name="b" unicode="b" horiz-adv-x="1142" 
d="M1044 555q0 -272 -140 -419.5t-378 -147.5q-178 0 -329 37v1470h129v-534q0 -104 -19 -185l4 -2q42 122 138 191t219 69q182 0 279 -121.5t97 -357.5zM909 543q0 186 -65 286.5t-197 100.5q-78 0 -142 -42.5t-101.5 -109t-57.5 -141t-20 -145.5v-371q85 -31 213 -31
q174 0 272 111t98 342z" />
    <glyph glyph-name="c" unicode="c" horiz-adv-x="907" 
d="M848 47q-136 -59 -318 -59q-69 0 -128.5 12.5t-117.5 45.5t-99 86t-66 140t-25 201q0 258 124.5 407.5t352.5 149.5q159 0 271 -47l-29 -109q-135 52 -262 52q-150 0 -235 -117.5t-85 -308.5q0 -88 14.5 -156.5t49.5 -126.5t101 -89.5t161 -31.5q139 0 264 56z" />
    <glyph glyph-name="d" unicode="d" horiz-adv-x="1138" 
d="M942 0h-131q0 138 18 233l-4 3q-41 -116 -136 -184t-218 -68q-187 0 -282 125.5t-95 353.5q0 272 140 419.5t378 147.5q90 0 201 -12v477h129v-1495zM813 526v375q-111 27 -213 27q-174 0 -271.5 -111t-97.5 -342q0 -186 65 -286.5t196 -100.5q78 0 142 42.5t101.5 109
t57.5 141t20 145.5z" />
    <glyph glyph-name="e" unicode="e" horiz-adv-x="1030" 
d="M926 627q0 -53 -4 -90h-691q-7 -227 81.5 -335t269.5 -108q154 0 286 60l25 -109q-150 -61 -340 -61q-459 0 -459 522q0 232 119 380t322 148q101 0 178 -32.5t122.5 -90t68 -129t22.5 -155.5zM788 635q3 138 -67 217.5t-195 79.5q-115 0 -191.5 -78t-96.5 -219h550z" />
    <glyph glyph-name="f" unicode="f" horiz-adv-x="708" 
d="M793 1487l-13 -111q-76 23 -166 23q-125 0 -182 -74.5t-57 -232.5v-74h313v-103h-313v-915h-129v915h-234v103h234v69q0 209 99 313.5t280 104.5q85 0 168 -18z" />
    <glyph glyph-name="g" unicode="g" horiz-adv-x="1099" 
d="M1036 -156q0 -162 -147.5 -268t-376.5 -106q-193 0 -307.5 81t-114.5 224q0 91 51 164t131 120q-47 20 -74.5 60.5t-27.5 89.5q0 51 29 94.5t80 69.5q-150 91 -150 284q0 158 113.5 267.5t306.5 109.5q51 0 129 -16h346v-103h-193q105 -78 105 -229q0 -163 -109 -268
t-315 -105q-64 0 -129 19q-38 -17 -59 -44t-21 -57q0 -46 45.5 -66.5t143.5 -23.5l206 -8q163 -6 250.5 -82.5t87.5 -206.5zM903 -174q0 183 -241 192l-213 9h-70q-156 -101 -156 -232q0 -102 88.5 -160.5t225.5 -58.5q172 0 269 69.5t97 180.5zM805 672q0 122 -69.5 192
t-194.5 70q-130 0 -205.5 -74t-75.5 -190q0 -123 70.5 -189.5t199.5 -66.5q127 0 201 68t74 190z" />
    <glyph glyph-name="h" unicode="h" horiz-adv-x="1185" 
d="M989 0h-129v659q0 136 -46 203.5t-161 67.5q-144 0 -235.5 -125.5t-91.5 -319.5v-485h-129v1495h129v-514q0 -131 -17 -203l4 -2q45 120 141 189t228 69q307 0 307 -325v-709z" />
    <glyph glyph-name="i" unicode="i" horiz-adv-x="522" 
d="M354 1348q0 -37 -27 -65t-65 -28t-65 27.5t-27 65.5t27 65t65 27q39 0 65.5 -26.5t26.5 -65.5zM326 0h-129v1018h129v-1018z" />
    <glyph glyph-name="j" unicode="j" horiz-adv-x="538" 
d="M371 1348q0 -37 -27 -65t-65 -28t-65.5 27.5t-27.5 65.5t27.5 65t65.5 27q39 0 65.5 -26.5t26.5 -65.5zM342 -139q0 -208 -70 -298.5t-249 -90.5q-80 0 -138 18l15 117q70 -25 133 -25q108 0 144 55t36 216v1165h129v-1157z" />
    <glyph glyph-name="k" unicode="k" horiz-adv-x="968" 
d="M918 0h-173l-419 541v-541h-129v1495h129v-940l401 463h156l-414 -463z" />
    <glyph glyph-name="l" unicode="l" horiz-adv-x="522" 
d="M326 0h-129v1495h129v-1495z" />
    <glyph glyph-name="m" unicode="m" horiz-adv-x="1818" 
d="M1622 0h-129v659q0 134 -42.5 202.5t-154.5 68.5q-132 0 -227.5 -123t-95.5 -326v-481h-129v662q0 48 -4 84t-17 72.5t-34 59.5t-57 37.5t-85 14.5q-135 0 -228 -127t-93 -322v-481h-129v1018h131q0 -134 -19 -238l4 -2q43 118 140 187t225 69q69 0 122.5 -19.5t83 -47.5
t48.5 -64.5t25 -65.5t6 -55q15 41 42 81t69.5 80.5t107 65.5t139.5 25q301 0 301 -327v-707z" />
    <glyph glyph-name="n" unicode="n" horiz-adv-x="1185" 
d="M989 0h-129v659q0 136 -46 203.5t-161 67.5q-144 0 -235.5 -125.5t-91.5 -319.5v-485h-129v1018h131q0 -138 -19 -238l4 -2q44 119 140 187.5t229 68.5q307 0 307 -325v-709z" />
    <glyph glyph-name="o" unicode="o" horiz-adv-x="1105" 
d="M1014 524q0 -150 -56.5 -271.5t-167 -195t-255.5 -73.5q-209 0 -326 131t-117 391q0 108 32 203t91.5 167.5t151 115t202.5 42.5q93 0 170.5 -27t140.5 -85t98.5 -159.5t35.5 -238.5zM881 518q0 195 -83.5 303.5t-242.5 108.5q-65 0 -123 -25t-105 -74.5t-74.5 -130.5
t-27.5 -184q0 -203 87 -314.5t245 -111.5q137 0 230.5 108.5t93.5 319.5z" />
    <glyph glyph-name="p" unicode="p" horiz-adv-x="1142" 
d="M1044 555q0 -272 -139 -418.5t-377 -146.5q-113 0 -202 12v-516h-129v1532h131q0 -151 -19 -234l4 -2q43 116 138 184t217 68q182 0 279 -121.5t97 -357.5zM909 543q0 186 -65 286.5t-197 100.5q-78 0 -142 -42.5t-101.5 -109t-57.5 -141t-20 -145.5v-371q85 -31 213 -31
q174 0 272 111t98 342z" />
    <glyph glyph-name="q" unicode="q" horiz-adv-x="1142" 
d="M946 -514h-129v577q0 101 14 170l-4 3q-41 -116 -136 -184t-216 -68q-181 0 -279 121.5t-98 357.5q0 272 141 419.5t384 147.5q157 0 323 -26v-1518zM817 526v377q-108 27 -213 27q-174 0 -271 -112t-97 -343q0 -186 64.5 -286.5t195.5 -100.5q77 0 141 42.5t101.5 109
t58 141t20.5 145.5z" />
    <glyph glyph-name="r" unicode="r" horiz-adv-x="724" 
d="M674 1032l-6 -125q-171 27 -256.5 -102t-85.5 -399v-406h-129v1018h131q0 -131 -27 -266l4 -2q16 61 43.5 112.5t71 95.5t109 64t145.5 10z" />
    <glyph glyph-name="s" unicode="s" horiz-adv-x="882" 
d="M766 299q0 -135 -113.5 -225t-304.5 -90q-136 0 -227 26l18 123q103 -39 232 -39q116 0 189 51t73 136q0 53 -28.5 89t-74 54.5t-100.5 33t-110 33t-100.5 46t-74 80t-28.5 126.5q0 130 100.5 210.5t284.5 80.5q109 0 205 -22l-17 -111q-109 31 -207 31
q-116 0 -175.5 -46t-59.5 -128q0 -53 28.5 -89t74.5 -55.5t101 -34.5t110 -33.5t101 -45.5t74.5 -78t28.5 -123z" />
    <glyph glyph-name="t" unicode="t" horiz-adv-x="755" 
d="M684 6q-92 -20 -195 -20q-145 0 -199 68t-54 227v634h-234v103h234v344l126 35v-379h314v-103h-314v-571q0 -145 33 -194.5t129 -49.5q76 0 142 17z" />
    <glyph glyph-name="u" unicode="u" horiz-adv-x="1185" 
d="M989 0h-131q0 138 19 238l-5 2q-44 -119 -139.5 -187.5t-228.5 -68.5q-307 0 -307 325v709h129v-660q0 -136 45 -203t161 -67q144 0 236 125t92 319v486h129v-1018z" />
    <glyph glyph-name="v" unicode="v" horiz-adv-x="964" 
d="M940 1018l-391 -1018h-141l-383 1018h147l254 -715q35 -101 55 -174h2q14 49 56 168l260 721h141z" />
    <glyph glyph-name="w" unicode="w" horiz-adv-x="1619" 
d="M1577 1018l-334 -1018h-153l-242 705q-34 105 -55 186h-2q-25 -94 -76 -256l-201 -635h-156l-317 1018h147l189 -656q10 -37 34 -120t33 -117h2q23 95 68 237l211 656h156l213 -653q42 -129 73 -242h2q8 33 70 237l199 658h139z" />
    <glyph glyph-name="x" unicode="x" horiz-adv-x="1048" 
d="M991 0h-174l-299 426l-299 -426h-164l391 508l-370 510h164l288 -416l297 416h150l-375 -502z" />
    <glyph glyph-name="y" unicode="y" horiz-adv-x="950" 
d="M926 1018l-424 -1122q-88 -235 -190 -330.5t-269 -95.5q-44 0 -102 12l14 119q53 -17 117 -17q95 0 163.5 63t133.5 228l49 125l-393 1018h151l230 -627q41 -120 77 -235h2q15 58 103 309l196 553h142z" />
    <glyph glyph-name="z" unicode="z" horiz-adv-x="911" 
d="M801 0h-701v90l545 817q-140 -4 -305 -4h-229v115h680v-88l-541 -815q132 4 311 4h240v-119z" />
    <glyph glyph-name="braceleft" unicode="{" horiz-adv-x="667" 
d="M602 -399h-33q-152 0 -217 90t-65 270v416q0 117 -48.5 166.5t-177.5 56.5v107q134 7 180 53.5t46 167.5v284q0 359 282 359h33v-96q-110 0 -153 -56.5t-43 -197.5v-283q0 -244 -191 -283v-2q95 -15 143 -89.5t48 -194.5v-416q0 -141 43 -196.5t153 -55.5v-100z" />
    <glyph glyph-name="bar" unicode="|" horiz-adv-x="579" 
d="M340 -514h-102v2048h102v-2048z" />
    <glyph glyph-name="braceright" unicode="}" horiz-adv-x="659" 
d="M621 600q-127 -7 -175.5 -56.5t-48.5 -166.5v-416q0 -180 -65 -270t-217 -90h-33v100q110 0 153.5 55.5t43.5 196.5v416q0 120 48 194.5t142 89.5v2q-96 13 -143 86t-47 187v293q0 141 -43.5 197.5t-153.5 56.5v96h33q282 0 282 -359v-274q0 -128 45.5 -176t178.5 -55
v-107z" />
    <glyph glyph-name="asciitilde" unicode="~" horiz-adv-x="1126" 
d="M1001 1153q0 -125 -67 -203t-180 -78q-45 0 -82.5 13t-63.5 33.5t-48 45.5t-42 50t-40.5 45.5t-48 33.5t-60.5 13q-70 0 -106 -53t-38 -140h-96v9q0 124 67.5 202t180.5 78q52 0 94.5 -17.5t68.5 -43t52.5 -56t47.5 -56t52.5 -43t69.5 -17.5q70 0 105.5 53t37.5 141h96
v-10z" />
    <glyph glyph-name="uni00A0" unicode="&#xa0;" horiz-adv-x="446" 
 />
    <glyph glyph-name="exclamdown" unicode="&#xa1;" horiz-adv-x="651" 
d="M403 936q0 -40 -28 -68t-68 -28q-41 0 -69.5 28t-28.5 68q0 41 28.5 69.5t69.5 28.5q40 0 68 -28.5t28 -69.5zM383 -414h-154l25 1116h104z" />
    <glyph glyph-name="cent" unicode="&#xa2;" horiz-adv-x="935" 
d="M850 145q-104 -49 -242 -61v-223h-104v223q-197 15 -304.5 138.5t-107.5 344.5q0 199 111.5 333t300.5 157v186h104v-182q129 -3 236 -47l-10 -117q-108 57 -252 57q-165 0 -261 -102t-96 -281q0 -63 11 -117t37.5 -103t66.5 -83.5t101 -54.5t139 -20q68 0 138 19t122 50
z" />
    <glyph glyph-name="sterling" unicode="&#xa3;" horiz-adv-x="956" 
d="M891 0h-803v92q126 101 173.5 192.5t47.5 223.5q0 57 -14 180h-234v100h220q-27 198 -27 256q0 169 96 262t273 93q114 0 202 -29l-22 -113q-90 35 -195 35q-106 0 -165.5 -59.5t-59.5 -167.5q0 -85 29 -277h331v-100h-319q12 -99 12 -166q0 -145 -40 -233t-154 -185
q101 11 200 11h449v-115z" />
    <glyph glyph-name="currency" unicode="&#xa4;" horiz-adv-x="1126" 
d="M1008 211l-90 -70l-170 228q-88 -60 -199 -60q-89 0 -160 33l-149 -201l-93 68l156 190q-88 98 -88 277q0 164 98 262l-163 203l88 67l155 -213q77 45 182 45q112 0 185 -45l162 213l86 -69l-170 -209q73 -83 73 -246q0 -155 -86 -250zM791 684q0 116 -56.5 186
t-179.5 70q-95 0 -157 -71.5t-62 -188.5q0 -58 12 -104.5t38 -85t72.5 -59.5t110.5 -21q91 0 156.5 76t65.5 198z" />
    <glyph glyph-name="yen" unicode="&#xa5;" horiz-adv-x="1198" 
d="M1106 1382l-410 -813h320v-96h-352v-158h352v-96h-352v-219h-132v219h-350v96h350v158h-350v96h320l-402 813h146l246 -512q52 -103 108 -256h2q61 155 123 279l244 489h137z" />
    <glyph glyph-name="brokenbar" unicode="&#xa6;" horiz-adv-x="579" 
d="M340 780h-102v754h102v-754zM340 -514h-102v774h102v-774z" />
    <glyph glyph-name="section" unicode="&#xa7;" horiz-adv-x="1050" 
d="M852 463q0 -163 -162 -285q80 -108 80 -213q0 -126 -88.5 -212.5t-245.5 -86.5q-76 0 -155 23l12 110q91 -26 153 -26q89 0 140 50t51 130q0 65 -48.5 137.5t-117 140.5t-137.5 140.5t-117.5 162t-48.5 179.5q0 161 162 286q-80 111 -80 213q0 128 83.5 210.5t239.5 82.5
q79 0 144 -18l-12 -111q-76 23 -140 23q-89 0 -135.5 -46t-46.5 -126q0 -48 26 -99.5t67 -99.5t91 -98.5t100.5 -104.5t91.5 -109t67 -121t26 -132zM725 446q0 49 -18.5 98t-57 99.5t-73 89t-91 96.5t-86.5 91q-53 -36 -78.5 -86.5t-25.5 -102.5q0 -49 18.5 -97t57 -99
t72.5 -88.5t92 -96.5t88 -92q102 70 102 188z" />
    <glyph glyph-name="dieresis" unicode="&#xa8;" horiz-adv-x="1118" 
d="M819 1348q0 -37 -25.5 -62.5t-62.5 -25.5t-62.5 25.5t-25.5 62.5q0 38 25.5 63t62.5 25t62.5 -25t25.5 -63zM442 1348q0 -37 -25.5 -62.5t-62.5 -25.5q-38 0 -63 25.5t-25 62.5q0 38 25 63t63 25q37 0 62.5 -25t25.5 -63z" />
    <glyph glyph-name="copyright" unicode="&#xa9;" horiz-adv-x="1540" 
d="M1444 690q0 -138 -53.5 -263.5t-144.5 -216.5t-216.5 -144.5t-263.5 -53.5q-190 0 -346.5 89.5t-245 244t-88.5 340.5q0 138 53.5 263.5t144.5 215.5t217 143.5t265 53.5t264.5 -52.5t216 -142.5t144 -214.5t53.5 -262.5zM1335 686q0 154 -76 287t-207.5 211t-285.5 78
q-155 0 -286 -76.5t-207 -208t-76 -287.5t76 -289t207 -210.5t286 -77.5t286 76.5t207 208.5t76 288zM965 356q-89 -30 -197 -30q-87 0 -150.5 26.5t-100 75t-54 110t-17.5 138.5q0 76 19 141t59.5 119.5t111 85.5t165.5 31q77 0 157 -25l-8 -100q-78 33 -159 33
q-62 0 -107 -21.5t-70.5 -60.5t-37 -87t-11.5 -108q0 -262 217 -262q90 0 172 31z" />
    <glyph glyph-name="ordfeminine" unicode="&#xaa;" horiz-adv-x="774" 
d="M625 729h-119q0 69 10 115l-4 2q-18 -50 -78.5 -89.5t-128.5 -39.5q-96 0 -144 43.5t-48 118.5q0 107 103.5 172.5t293.5 64.5v43q0 141 -143 141q-112 0 -209 -53l-8 107q100 43 233 43q67 0 115.5 -18t74.5 -50.5t38 -70t12 -82.5v-265q0 -159 2 -182zM684 485h-557
v103h557v-103zM510 1016v18q-281 0 -281 -137q0 -39 26 -61.5t71 -22.5q47 0 84.5 23t58 57t31 66t10.5 57z" />
    <glyph glyph-name="guillemotleft" unicode="&#xab;" horiz-adv-x="1007" 
d="M838 315l-97 -57l-256 344l258 350l93 -57l-215 -291zM463 315l-96 -59l-238 346l242 352l92 -57l-199 -293z" />
    <glyph glyph-name="logicalnot" unicode="&#xac;" horiz-adv-x="1126" 
d="M977 223h-111v332h-776v109h887v-441z" />
    <glyph glyph-name="registered" unicode="&#xae;" horiz-adv-x="1148" 
d="M1006 1079q0 -174 -129 -302t-304 -128q-182 0 -306 124.5t-124 305.5q0 179 126 305.5t304 126.5q183 0 308 -124.5t125 -307.5zM907 1077q0 139 -98 240.5t-236 101.5t-235.5 -98.5t-97.5 -237.5t98 -240.5t235 -101.5q139 0 236.5 98t97.5 238zM756 846h-103l-131 209
h-6v-209h-82v475h144q157 0 157 -121q0 -59 -33.5 -95t-91.5 -42q15 -18 47 -66zM649 1190q0 34 -18 49.5t-62 15.5h-53v-145h33q52 0 76 23t24 57z" />
    <glyph glyph-name="macron" unicode="&#xaf;" horiz-adv-x="808" 
d="M649 1288h-489v98h489v-98z" />
    <glyph glyph-name="macron" unicode="&#x2c9;" horiz-adv-x="808" 
d="M649 1288h-489v98h489v-98z" />
    <glyph glyph-name="degree" unicode="&#xb0;" horiz-adv-x="751" 
d="M623 1262q0 -106 -77 -174t-179 -68q-110 0 -176 65t-66 172q0 110 75.5 178t176.5 68q119 0 182.5 -68.5t63.5 -172.5zM514 1260q0 62 -33 108.5t-108 46.5q-60 0 -100 -42.5t-40 -110.5q0 -71 38.5 -112.5t99.5 -41.5q62 0 102.5 43t40.5 109z" />
    <glyph glyph-name="plusminus" unicode="&#xb1;" horiz-adv-x="1126" 
d="M1036 672h-411v-422h-123v422h-412v108h412v418h123v-418h411v-108zM1034 0h-942v109h942v-109z" />
    <glyph glyph-name="twosuperior" unicode="&#xb2;" horiz-adv-x="708" 
d="M629 754h-543v92l221 219q83 84 118.5 148t35.5 126q0 77 -41 122.5t-121 45.5q-99 0 -182 -51l-21 92q107 58 228 58q125 0 194.5 -68t69.5 -178q0 -87 -41.5 -166.5t-132.5 -167.5l-170 -168q100 4 385 4v-108z" />
    <glyph glyph-name="threesuperior" unicode="&#xb3;" horiz-adv-x="686" 
d="M584 1004q0 -117 -96 -191t-244 -74q-63 0 -160 19l16 104q74 -24 160 -24q92 0 144.5 42.5t52.5 112.5q0 82 -80.5 121.5t-235.5 20.5v96q143 0 214 35.5t71 119.5q0 59 -39.5 91t-110.5 32q-83 0 -163 -36l-15 96q101 37 203 37q116 0 183 -53.5t67 -151.5
q0 -151 -148 -199q82 -13 131.5 -69t49.5 -129z" />
    <glyph glyph-name="acute" unicode="&#xb4;" horiz-adv-x="788" 
d="M561 1460l-250 -282l-71 59l225 297z" />
    <glyph glyph-name="mu" unicode="&#xb5;" horiz-adv-x="1206" 
d="M1118 -10q-25 -2 -59 -2q-104 0 -148.5 62.5t-33.5 187.5h-3q-44 -118 -138 -186t-224 -68q-143 0 -199 86l17 -584h-133v1532h129v-680q0 -127 50 -188.5t156 -61.5q145 0 236.5 124.5t91.5 319.5v486h129v-676q0 -107 11.5 -158.5t37.5 -69.5t80 -18v-106z" />
    <glyph glyph-name="mu" unicode="&#x3bc;" horiz-adv-x="1206" 
d="M1118 -10q-25 -2 -59 -2q-104 0 -148.5 62.5t-33.5 187.5h-3q-44 -118 -138 -186t-224 -68q-143 0 -199 86l17 -584h-133v1532h129v-680q0 -127 50 -188.5t156 -61.5q145 0 236.5 124.5t91.5 319.5v486h129v-676q0 -107 11.5 -158.5t37.5 -69.5t80 -18v-106z" />
    <glyph glyph-name="paragraph" unicode="&#xb6;" horiz-adv-x="1153" 
d="M1014 1286h-152v-1483h-280v97h155v1482h277v-96zM586 532q-210 -1 -322 121t-112 310q0 180 120.5 299.5t313.5 119.5v-850z" />
    <glyph glyph-name="periodcentered" unicode="&#xb7;" horiz-adv-x="428" 
d="M319 608q0 -44 -30.5 -74t-73.5 -30q-44 0 -74 30t-30 74t30 74.5t74 30.5q43 0 73.5 -30.5t30.5 -74.5z" />
    <glyph glyph-name="periodcentered" unicode="&#x2219;" horiz-adv-x="428" 
d="M319 608q0 -44 -30.5 -74t-73.5 -30q-44 0 -74 30t-30 74t30 74.5t74 30.5q43 0 73.5 -30.5t30.5 -74.5z" />
    <glyph glyph-name="cedilla" unicode="&#xb8;" horiz-adv-x="819" 
d="M532 -84q51 -64 60 -130.5t-17.5 -130.5t-87.5 -138h-114q60 75 83.5 128t15.5 106t-56 110z" />
    <glyph glyph-name="onesuperior" unicode="&#xb9;" horiz-adv-x="536" 
d="M373 754h-123v721l-191 -76l-22 106l237 86h99v-837z" />
    <glyph glyph-name="ordmasculine" unicode="&#xba;" horiz-adv-x="849" 
d="M729 1069q0 -156 -90.5 -253t-235.5 -97q-292 0 -292 342q0 146 88.5 242t226.5 96q44 0 83 -8t80.5 -30.5t71.5 -58t49 -95.5t19 -138zM700 485h-559v103h559v-103zM600 1069q0 44 -9 82t-28.5 71t-55.5 52.5t-85 19.5q-77 0 -130.5 -58t-53.5 -175q0 -47 8 -86t26 -75
t54.5 -56.5t87.5 -20.5q86 0 136 62t50 184z" />
    <glyph glyph-name="guillemotright" unicode="&#xbb;" horiz-adv-x="1007" 
d="M879 608l-244 -352l-92 57l200 293l-198 289l96 59zM520 608l-260 -350l-92 55l217 293l-213 287l94 59z" />
    <glyph glyph-name="onequarter" unicode="&#xbc;" horiz-adv-x="1640" 
d="M373 754h-123v721l-191 -76l-22 106l237 86h99v-837zM1470 1577l-1290 -1851l-90 61l1290 1851zM1552 -12h-143v-197h-117v197h-397l-8 82l354 559h168v-539h143v-102zM1292 90v442l-282 -446q78 4 282 4z" />
    <glyph glyph-name="onehalf" unicode="&#xbd;" horiz-adv-x="1705" 
d="M1470 1577l-1290 -1851l-90 61l1290 1851zM373 754h-123v721l-191 -76l-22 106l237 86h99v-837zM1595 -209h-542v92l223 219q82 83 116.5 147.5t34.5 127.5q0 77 -40.5 122.5t-120.5 45.5q-98 0 -181 -51l-22 92q108 57 227 57q125 0 194.5 -68t69.5 -178
q0 -87 -41.5 -166.5t-132.5 -167.5l-170 -167q100 4 385 4v-109z" />
    <glyph glyph-name="threequarters" unicode="&#xbe;" horiz-adv-x="1685" 
d="M1518 1577l-1293 -1851l-90 61l1290 1851zM584 1004q0 -117 -96 -191t-244 -74q-63 0 -160 19l16 104q74 -24 160 -24q92 0 144.5 42.5t52.5 112.5q0 82 -80.5 121.5t-235.5 20.5v96q143 0 214 35.5t71 119.5q0 59 -39.5 91t-110.5 32q-83 0 -163 -36l-15 96
q101 37 203 37q116 0 183 -53.5t67 -151.5q0 -151 -148 -199q82 -13 131.5 -69t49.5 -129zM1599 -12h-143v-197h-119v197h-395l-10 82l354 559h170v-539h143v-102zM1337 90v442l-280 -446q76 4 280 4z" />
    <glyph glyph-name="questiondown" unicode="&#xbf;" horiz-adv-x="903" 
d="M612 936q0 -40 -28.5 -68t-69.5 -28t-69.5 28t-28.5 68q0 41 28.5 69.5t69.5 28.5t69.5 -28.5t28.5 -69.5zM709 -307l-17 -119q-244 10 -396.5 120t-152.5 261q0 53 14.5 100t38.5 82.5t54.5 68.5t61.5 63t61 61.5t53 68.5t36 80t11 100t-22 123h127q26 -93 24.5 -158.5
t-26 -123t-59.5 -98t-76 -83.5t-75.5 -80t-57.5 -86.5t-23 -103.5q0 -109 117.5 -188t306.5 -88z" />
    <glyph glyph-name="Agrave" unicode="&#xc0;" horiz-adv-x="1245" 
d="M1212 0h-151l-125 352h-637l-129 -352h-137l520 1382h141zM897 459l-217 596q-44 119 -62 184h-2q-30 -96 -61 -180l-219 -600h561zM727 1577l-31 -78l-350 119l47 111z" />
    <glyph glyph-name="Aacute" unicode="&#xc1;" horiz-adv-x="1245" 
d="M1212 0h-151l-125 352h-637l-129 -352h-137l520 1382h141zM897 459l-217 596q-44 119 -62 184h-2q-30 -96 -61 -180l-219 -600h561zM881 1618l-353 -119l-30 78l336 152z" />
    <glyph glyph-name="Acircumflex" unicode="&#xc2;" horiz-adv-x="1245" 
d="M1212 0h-151l-125 352h-637l-129 -352h-137l520 1382h141zM897 459l-217 596q-44 119 -62 184h-2q-30 -96 -61 -180l-219 -600h561zM936 1581l-49 -86l-275 131l-264 -131l-41 80l311 170z" />
    <glyph glyph-name="Atilde" unicode="&#xc3;" horiz-adv-x="1245" 
d="M1212 0h-151l-125 352h-637l-129 -352h-137l520 1382h141zM897 459l-217 596q-44 119 -62 184h-2q-30 -96 -61 -180l-219 -600h561zM975 1653q-81 -137 -211 -137q-46 0 -88 18t-68 39t-59 39t-64 18q-77 0 -133 -96l-71 53q76 137 211 137q46 0 87.5 -17.5t67 -38.5
t58 -38.5t63.5 -17.5q77 0 135 94z" />
    <glyph glyph-name="Adieresis" unicode="&#xc4;" horiz-adv-x="1245" 
d="M1212 0h-151l-125 352h-637l-129 -352h-137l520 1382h141zM897 459l-217 596q-44 119 -62 184h-2q-30 -96 -61 -180l-219 -600h561zM924 1591q0 -37 -24.5 -61.5t-61.5 -24.5t-62.5 24.5t-25.5 61.5t25.5 62.5t62.5 25.5t61.5 -25.5t24.5 -62.5zM489 1591
q0 -37 -25.5 -61.5t-62.5 -24.5t-61.5 24.5t-24.5 61.5t24.5 62.5t61.5 25.5t62.5 -25.5t25.5 -62.5z" />
    <glyph glyph-name="Aring" unicode="&#xc5;" horiz-adv-x="1245" 
d="M1212 0h-151l-125 352h-637l-129 -352h-137l520 1382h141zM897 459l-217 596q-44 119 -62 184h-2q-30 -96 -61 -180l-219 -600h561zM834 1661q0 -78 -62 -139.5t-143 -61.5q-86 0 -143.5 54.5t-57.5 138.5q0 82 61 140t144 58q85 0 143 -54.5t58 -135.5zM737 1657
q0 45 -31 77.5t-75 32.5q-45 0 -77 -32.5t-32 -77.5q0 -46 31.5 -78.5t77.5 -32.5q44 0 75 32.5t31 78.5z" />
    <glyph glyph-name="AE" unicode="&#xc6;" horiz-adv-x="1591" 
d="M1432 0h-693v354h-497l-195 -354h-141l770 1382h731v-106h-537v-510h519v-104h-519v-553h562v-109zM739 461v811h-4q-67 -137 -141 -275l-299 -536h444z" />
    <glyph glyph-name="Ccedilla" unicode="&#xc7;" horiz-adv-x="1218" 
d="M1122 66q-186 -80 -397 -80q-305 0 -462 178t-157 500q0 126 23.5 234.5t75 201t128.5 158t188.5 102.5t250.5 37q175 0 330 -47l-25 -121q-160 57 -334 57q-129 0 -226 -47.5t-154.5 -131.5t-86 -190t-28.5 -231q0 -284 128.5 -435t387.5 -151q83 0 173 21.5t159 56.5z
M727 -84q51 -64 60 -130.5t-17.5 -130.5t-87.5 -138h-115q60 75 83.5 128t15.5 106t-56 110z" />
    <glyph glyph-name="Egrave" unicode="&#xc8;" horiz-adv-x="1040" 
d="M879 0h-682v1382h682v-106h-551v-510h524v-104h-524v-553h551v-109zM647 1577l-31 -78l-350 119l47 111z" />
    <glyph glyph-name="Eacute" unicode="&#xc9;" horiz-adv-x="1040" 
d="M879 0h-682v1382h682v-106h-551v-510h524v-104h-524v-553h551v-109zM797 1618l-353 -119l-30 78l336 152z" />
    <glyph glyph-name="Ecircumflex" unicode="&#xca;" horiz-adv-x="1040" 
d="M879 0h-682v1382h682v-106h-551v-510h524v-104h-524v-553h551v-109zM852 1581l-49 -86l-275 131l-264 -131l-41 80l312 170z" />
    <glyph glyph-name="Edieresis" unicode="&#xcb;" horiz-adv-x="1040" 
d="M879 0h-682v1382h682v-106h-551v-510h524v-104h-524v-553h551v-109zM827 1591q0 -37 -24.5 -61.5t-61.5 -24.5t-62.5 24.5t-25.5 61.5t25.5 62.5t62.5 25.5t61.5 -25.5t24.5 -62.5zM393 1591q0 -37 -25.5 -61.5t-62.5 -24.5t-61.5 24.5t-24.5 61.5t24.5 62.5t61.5 25.5
t62.5 -25.5t25.5 -62.5z" />
    <glyph glyph-name="Igrave" unicode="&#xcc;" horiz-adv-x="524" 
d="M328 0h-131v1382h131v-1382zM367 1577l-31 -78l-350 119l47 111z" />
    <glyph glyph-name="Iacute" unicode="&#xcd;" horiz-adv-x="524" 
d="M328 0h-131v1382h131v-1382zM545 1618l-352 -119l-31 78l336 152z" />
    <glyph glyph-name="Icircumflex" unicode="&#xce;" horiz-adv-x="524" 
d="M328 0h-131v1382h131v-1382zM580 1581l-50 -86l-274 131l-264 -131l-41 80l311 170z" />
    <glyph glyph-name="Idieresis" unicode="&#xcf;" horiz-adv-x="524" 
d="M328 0h-131v1382h131v-1382zM565 1591q0 -37 -24.5 -61.5t-61.5 -24.5t-62.5 24.5t-25.5 61.5t25.5 62.5t62.5 25.5t61.5 -25.5t24.5 -62.5zM131 1591q0 -37 -25.5 -61.5t-62.5 -24.5t-61.5 24.5t-24.5 61.5t24.5 62.5t61.5 25.5t62.5 -25.5t25.5 -62.5z" />
    <glyph glyph-name="Eth" unicode="&#xd0;" horiz-adv-x="1421" 
d="M1315 702q0 -174 -57.5 -309.5t-161.5 -222.5t-245.5 -131.5t-313.5 -44.5q-67 0 -172.5 3.5t-151.5 2.5v662h-209v102h209v618q49 0 183 3.5t206 3.5q347 0 530 -171t183 -516zM1178 694q0 293 -150.5 440.5t-443.5 147.5q-63 0 -240 -6v-512h326v-102h-326v-545
q114 -15 211 -15q141 0 253.5 35.5t196 106.5t128.5 185t45 265z" />
    <glyph glyph-name="Ntilde" unicode="&#xd1;" horiz-adv-x="1462" 
d="M1266 0h-179l-616 975q-112 180 -160 276q15 -311 15 -858v-393h-129v1382h176l610 -962q94 -149 166 -281q-14 455 -14 887v356h131v-1382zM1077 1653q-81 -137 -211 -137q-46 0 -88 18t-67.5 39t-58.5 39t-64 18q-77 0 -133 -96l-72 53q76 137 211 137q46 0 87.5 -17.5
t67 -38.5t58 -38.5t63.5 -17.5q78 0 136 94z" />
    <glyph glyph-name="Ograve" unicode="&#xd2;" horiz-adv-x="1445" 
d="M1348 707q0 -171 -51 -309.5t-139 -228t-204 -137.5t-249 -48q-151 0 -267.5 49.5t-190.5 141.5t-111.5 218t-37.5 283q0 171 51 309.5t138.5 228t203.5 137.5t248 48q299 0 454 -186t155 -506zM1206 680q0 181 -52.5 316t-162.5 213.5t-268 78.5q-98 0 -185 -39.5
t-153.5 -112t-105.5 -184.5t-39 -247q0 -182 52 -317t162 -213.5t269 -78.5q98 0 185 39.5t153.5 112t105.5 184.5t39 248zM811 1577l-31 -78l-350 119l47 111z" />
    <glyph glyph-name="Oacute" unicode="&#xd3;" horiz-adv-x="1445" 
d="M1348 707q0 -171 -51 -309.5t-139 -228t-204 -137.5t-249 -48q-151 0 -267.5 49.5t-190.5 141.5t-111.5 218t-37.5 283q0 171 51 309.5t138.5 228t203.5 137.5t248 48q299 0 454 -186t155 -506zM1206 680q0 181 -52.5 316t-162.5 213.5t-268 78.5q-98 0 -185 -39.5
t-153.5 -112t-105.5 -184.5t-39 -247q0 -182 52 -317t162 -213.5t269 -78.5q98 0 185 39.5t153.5 112t105.5 184.5t39 248zM1024 1618l-352 -119l-31 78l336 152z" />
    <glyph glyph-name="Ocircumflex" unicode="&#xd4;" horiz-adv-x="1445" 
d="M1348 707q0 -171 -51 -309.5t-139 -228t-204 -137.5t-249 -48q-151 0 -267.5 49.5t-190.5 141.5t-111.5 218t-37.5 283q0 171 51 309.5t138.5 228t203.5 137.5t248 48q299 0 454 -186t155 -506zM1206 680q0 181 -52.5 316t-162.5 213.5t-268 78.5q-98 0 -185 -39.5
t-153.5 -112t-105.5 -184.5t-39 -247q0 -182 52 -317t162 -213.5t269 -78.5q98 0 185 39.5t153.5 112t105.5 184.5t39 248zM1047 1581l-50 -86l-274 131l-264 -131l-41 80l311 170z" />
    <glyph glyph-name="Otilde" unicode="&#xd5;" horiz-adv-x="1445" 
d="M1348 707q0 -171 -51 -309.5t-139 -228t-204 -137.5t-249 -48q-151 0 -267.5 49.5t-190.5 141.5t-111.5 218t-37.5 283q0 171 51 309.5t138.5 228t203.5 137.5t248 48q299 0 454 -186t155 -506zM1206 680q0 181 -52.5 316t-162.5 213.5t-268 78.5q-98 0 -185 -39.5
t-153.5 -112t-105.5 -184.5t-39 -247q0 -182 52 -317t162 -213.5t269 -78.5q98 0 185 39.5t153.5 112t105.5 184.5t39 248zM1067 1653q-81 -137 -211 -137q-46 0 -88 18t-67.5 39t-58.5 39t-64 18q-36 0 -71.5 -25t-62.5 -71l-71 53q76 137 211 137q46 0 87.5 -17.5
t67 -38.5t58 -38.5t63.5 -17.5q77 0 135 94z" />
    <glyph glyph-name="Odieresis" unicode="&#xd6;" horiz-adv-x="1445" 
d="M1348 707q0 -171 -51 -309.5t-139 -228t-204 -137.5t-249 -48q-151 0 -267.5 49.5t-190.5 141.5t-111.5 218t-37.5 283q0 171 51 309.5t138.5 228t203.5 137.5t248 48q299 0 454 -186t155 -506zM1206 680q0 181 -52.5 316t-162.5 213.5t-268 78.5q-98 0 -185 -39.5
t-153.5 -112t-105.5 -184.5t-39 -247q0 -182 52 -317t162 -213.5t269 -78.5q98 0 185 39.5t153.5 112t105.5 184.5t39 248zM1034 1591q0 -37 -24.5 -61.5t-61.5 -24.5t-62.5 24.5t-25.5 61.5t25.5 62.5t62.5 25.5t61.5 -25.5t24.5 -62.5zM600 1591q0 -37 -25.5 -61.5
t-62.5 -24.5t-61.5 24.5t-24.5 61.5t24.5 62.5t61.5 25.5t62.5 -25.5t25.5 -62.5z" />
    <glyph glyph-name="multiply" unicode="&#xd7;" horiz-adv-x="1126" 
d="M1001 248l-77 -78l-363 362l-364 -362l-72 72l362 364l-362 363l78 78l362 -363l365 363l71 -72l-362 -365z" />
    <glyph glyph-name="Oslash" unicode="&#xd8;" horiz-adv-x="1445" 
d="M1348 698q0 -170 -49.5 -307t-137 -225t-206 -135t-257.5 -47q-114 0 -192 22l-82 -215l-102 39l84 215q-156 79 -232 244t-76 389q0 170 51 308t138.5 227.5t203.5 137.5t248 48q98 0 185 -19l77 203l103 -39l-78 -201q157 -71 239.5 -236t82.5 -409zM1208 678
q0 410 -231 549l-426 -1108q65 -23 160 -23q221 0 359 153.5t138 428.5zM881 1270q-55 18 -158 18q-98 0 -185 -39t-154 -111t-106.5 -184t-39.5 -249q0 -400 217 -539z" />
    <glyph glyph-name="Ugrave" unicode="&#xd9;" horiz-adv-x="1435" 
d="M1239 522q0 -264 -136 -401t-403 -137q-123 0 -215.5 27.5t-146 71t-86.5 107.5t-44 126.5t-11 138.5v927h131v-913q0 -83 16.5 -146.5t57 -118.5t119 -84.5t192.5 -29.5q204 0 300.5 97t96.5 323v872h129v-860zM797 1577l-31 -78l-350 119l47 111z" />
    <glyph glyph-name="Uacute" unicode="&#xda;" horiz-adv-x="1435" 
d="M1239 522q0 -264 -136 -401t-403 -137q-123 0 -215.5 27.5t-146 71t-86.5 107.5t-44 126.5t-11 138.5v927h131v-913q0 -83 16.5 -146.5t57 -118.5t119 -84.5t192.5 -29.5q204 0 300.5 97t96.5 323v872h129v-860zM1044 1618l-352 -119l-30 78l335 152z" />
    <glyph glyph-name="Ucircumflex" unicode="&#xdb;" horiz-adv-x="1435" 
d="M1239 522q0 -264 -136 -401t-403 -137q-123 0 -215.5 27.5t-146 71t-86.5 107.5t-44 126.5t-11 138.5v927h131v-913q0 -83 16.5 -146.5t57 -118.5t119 -84.5t192.5 -29.5q204 0 300.5 97t96.5 323v872h129v-860zM1038 1581l-49 -86l-274 131l-264 -131l-41 80l311 170z
" />
    <glyph glyph-name="Udieresis" unicode="&#xdc;" horiz-adv-x="1435" 
d="M1239 522q0 -264 -136 -401t-403 -137q-123 0 -215.5 27.5t-146 71t-86.5 107.5t-44 126.5t-11 138.5v927h131v-913q0 -83 16.5 -146.5t57 -118.5t119 -84.5t192.5 -29.5q204 0 300.5 97t96.5 323v872h129v-860zM1020 1591q0 -37 -24.5 -61.5t-61.5 -24.5t-62.5 24.5
t-25.5 61.5t25.5 62.5t62.5 25.5t61.5 -25.5t24.5 -62.5zM586 1591q0 -37 -25.5 -61.5t-62.5 -24.5t-61.5 24.5t-24.5 61.5t24.5 62.5t61.5 25.5t62.5 -25.5t25.5 -62.5z" />
    <glyph glyph-name="Yacute" unicode="&#xdd;" horiz-adv-x="1062" 
d="M1034 1382l-442 -878v-504h-131v504l-432 878h145l246 -514q54 -110 110 -250h2q32 81 123 271l240 493h139zM854 1618l-352 -119l-31 78l336 152z" />
    <glyph glyph-name="Thorn" unicode="&#xde;" horiz-adv-x="1067" 
d="M1022 754q0 -210 -156 -336.5t-399 -126.5q-82 0 -139 8v-299h-131v1382h131v-221q95 6 186 6q242 0 375 -106t133 -307zM887 741q0 151 -98 234.5t-306 83.5q-79 0 -155 -12v-637q83 -11 157 -11q191 0 296.5 89.5t105.5 252.5z" />
    <glyph glyph-name="germandbls" unicode="&#xdf;" horiz-adv-x="1191" 
d="M1096 295q0 -136 -107.5 -223.5t-290.5 -87.5q-110 0 -192 16l14 123q89 -29 187 -29q128 0 193 51t65 129q0 50 -23.5 89.5t-61.5 66t-84 51.5t-92 52.5t-84 61t-61.5 85.5t-23.5 119q0 50 17 91t44 68t59.5 50.5t65.5 45.5t60 45.5t44 57t17 74.5q0 83 -61 126.5
t-163 43.5q-144 0 -218 -85.5t-74 -273.5v-1042h-129v1032q0 127 32.5 220t92.5 146.5t136.5 79t172.5 25.5q163 0 252.5 -73t89.5 -185q0 -58 -17 -103.5t-44 -74.5t-59.5 -52.5t-65.5 -43t-60 -41t-44 -52t-17 -69.5q0 -42 18.5 -77t48.5 -58.5t69 -47.5t79 -43.5
t79 -47.5t69 -59t48.5 -77.5t18.5 -103.5z" />
    <glyph glyph-name="agrave" unicode="&#xe0;" horiz-adv-x="1062" 
d="M868 0h-131q0 146 13 223l-5 2q-38 -104 -134.5 -172.5t-225.5 -68.5q-121 0 -198.5 71.5t-77.5 192.5q0 157 162.5 250.5t463.5 93.5v55q0 148 -53.5 215.5t-185.5 67.5q-71 0 -155.5 -22t-150.5 -54l-30 107q163 73 354 73q189 0 269.5 -91t80.5 -263v-365
q0 -131 4 -315zM735 469v25q-139 0 -239 -18.5t-154 -51.5t-78 -71.5t-24 -84.5q0 -78 48.5 -128t129.5 -50q91 0 165.5 56.5t113 142.5t38.5 180zM596 1237l-74 -59l-248 282l99 74z" />
    <glyph glyph-name="aacute" unicode="&#xe1;" horiz-adv-x="1062" 
d="M868 0h-131q0 146 13 223l-5 2q-38 -104 -134.5 -172.5t-225.5 -68.5q-121 0 -198.5 71.5t-77.5 192.5q0 157 162.5 250.5t463.5 93.5v55q0 148 -53.5 215.5t-185.5 67.5q-71 0 -155.5 -22t-150.5 -54l-30 107q163 73 354 73q189 0 269.5 -91t80.5 -263v-365
q0 -131 4 -315zM735 469v25q-139 0 -239 -18.5t-154 -51.5t-78 -71.5t-24 -84.5q0 -78 48.5 -128t129.5 -50q91 0 165.5 56.5t113 142.5t38.5 180zM770 1460l-250 -282l-71 59l225 297z" />
    <glyph glyph-name="acircumflex" unicode="&#xe2;" horiz-adv-x="1062" 
d="M868 0h-131q0 146 13 223l-5 2q-38 -104 -134.5 -172.5t-225.5 -68.5q-121 0 -198.5 71.5t-77.5 192.5q0 157 162.5 250.5t463.5 93.5v55q0 148 -53.5 215.5t-185.5 67.5q-71 0 -155.5 -22t-150.5 -54l-30 107q163 73 354 73q189 0 269.5 -91t80.5 -263v-365
q0 -131 4 -315zM735 469v25q-139 0 -239 -18.5t-154 -51.5t-78 -71.5t-24 -84.5q0 -78 48.5 -128t129.5 -50q91 0 165.5 56.5t113 142.5t38.5 180zM782 1249l-67 -65l-199 178l-199 -178l-61 61l264 264z" />
    <glyph glyph-name="atilde" unicode="&#xe3;" horiz-adv-x="1062" 
d="M868 0h-131q0 146 13 223l-5 2q-38 -104 -134.5 -172.5t-225.5 -68.5q-121 0 -198.5 71.5t-77.5 192.5q0 157 162.5 250.5t463.5 93.5v55q0 148 -53.5 215.5t-185.5 67.5q-71 0 -155.5 -22t-150.5 -54l-30 107q163 73 354 73q189 0 269.5 -91t80.5 -263v-365
q0 -131 4 -315zM735 469v25q-139 0 -239 -18.5t-154 -51.5t-78 -71.5t-24 -84.5q0 -78 48.5 -128t129.5 -50q91 0 165.5 56.5t113 142.5t38.5 180zM844 1380q-74 -141 -205 -141q-44 0 -84.5 18.5t-65 40t-56.5 40t-62 18.5q-71 0 -127 -99l-70 56q77 141 207 141
q44 0 84 -18.5t64.5 -40t56 -40t61.5 -18.5q73 0 129 99z" />
    <glyph glyph-name="adieresis" unicode="&#xe4;" horiz-adv-x="1062" 
d="M868 0h-131q0 146 13 223l-5 2q-38 -104 -134.5 -172.5t-225.5 -68.5q-121 0 -198.5 71.5t-77.5 192.5q0 157 162.5 250.5t463.5 93.5v55q0 148 -53.5 215.5t-185.5 67.5q-71 0 -155.5 -22t-150.5 -54l-30 107q163 73 354 73q189 0 269.5 -91t80.5 -263v-365
q0 -131 4 -315zM735 469v25q-139 0 -239 -18.5t-154 -51.5t-78 -71.5t-24 -84.5q0 -78 48.5 -128t129.5 -50q91 0 165.5 56.5t113 142.5t38.5 180zM791 1348q0 -37 -26 -62.5t-63 -25.5t-62.5 25.5t-25.5 62.5q0 38 25.5 63t62.5 25t63 -25t26 -63zM414 1348
q0 -37 -25.5 -62.5t-62.5 -25.5q-38 0 -63 25.5t-25 62.5q0 38 25 63t63 25q37 0 62.5 -25t25.5 -63z" />
    <glyph glyph-name="aring" unicode="&#xe5;" horiz-adv-x="1062" 
d="M868 0h-131q0 146 13 223l-5 2q-38 -104 -134.5 -172.5t-225.5 -68.5q-121 0 -198.5 71.5t-77.5 192.5q0 157 162.5 250.5t463.5 93.5v55q0 148 -53.5 215.5t-185.5 67.5q-71 0 -155.5 -22t-150.5 -54l-30 107q163 73 354 73q189 0 269.5 -91t80.5 -263v-365
q0 -131 4 -315zM735 469v25q-139 0 -239 -18.5t-154 -51.5t-78 -71.5t-24 -84.5q0 -78 48.5 -128t129.5 -50q91 0 165.5 56.5t113 142.5t38.5 180zM741 1354q0 -84 -64 -147.5t-151 -63.5q-90 0 -151.5 57.5t-61.5 147.5q0 87 65 149t152 62q89 0 150 -58.5t61 -146.5z
M645 1350q0 51 -33.5 85.5t-83.5 34.5q-51 0 -84.5 -34.5t-33.5 -85.5q0 -50 34 -85.5t84 -35.5q49 0 83 35.5t34 85.5z" />
    <glyph glyph-name="ae" unicode="&#xe6;" horiz-adv-x="1660" 
d="M1556 625q0 -41 -2 -76h-692q-9 -237 79.5 -346t270.5 -109q157 0 289 60l25 -109q-150 -61 -340 -61q-170 0 -270.5 68.5t-135.5 180.5h-2q-45 -103 -149.5 -176t-243.5 -73q-121 0 -198.5 71.5t-77.5 192.5q0 157 162.5 251.5t463.5 94.5v78q0 130 -54.5 194t-186.5 64
q-72 0 -155 -22t-146 -56l-33 109q163 73 354 73q250 0 311 -180h2q48 79 137 129.5t201 50.5q101 0 178 -32.5t122.5 -90t68 -129.5t22.5 -157zM1419 645q3 130 -68 209.5t-194 79.5q-112 0 -189.5 -77.5t-97.5 -211.5h549zM735 469v25q-139 0 -239 -18.5t-154 -51.5
t-78 -71.5t-24 -84.5q0 -77 48.5 -127.5t127.5 -50.5q93 0 167.5 56.5t113 142.5t38.5 180z" />
    <glyph glyph-name="ccedilla" unicode="&#xe7;" horiz-adv-x="907" 
d="M848 47q-136 -59 -318 -59q-69 0 -128.5 12.5t-117.5 45.5t-99 86t-66 140t-25 201q0 258 124.5 407.5t352.5 149.5q159 0 271 -47l-29 -109q-135 52 -262 52q-150 0 -235 -117.5t-85 -308.5q0 -88 14.5 -156.5t49.5 -126.5t101 -89.5t161 -31.5q139 0 264 56zM557 -84
q51 -64 60 -130.5t-17.5 -130.5t-87.5 -138h-115q60 75 83.5 128t15.5 106t-56 110z" />
    <glyph glyph-name="egrave" unicode="&#xe8;" horiz-adv-x="1030" 
d="M926 627q0 -53 -4 -90h-691q-7 -227 81.5 -335t269.5 -108q154 0 286 60l25 -109q-150 -61 -340 -61q-459 0 -459 522q0 232 119 380t322 148q101 0 178 -32.5t122.5 -90t68 -129t22.5 -155.5zM788 635q3 138 -67 217.5t-195 79.5q-115 0 -191.5 -78t-96.5 -219h550z
M600 1237l-74 -59l-247 282l98 74z" />
    <glyph glyph-name="eacute" unicode="&#xe9;" horiz-adv-x="1030" 
d="M926 627q0 -53 -4 -90h-691q-7 -227 81.5 -335t269.5 -108q154 0 286 60l25 -109q-150 -61 -340 -61q-459 0 -459 522q0 232 119 380t322 148q101 0 178 -32.5t122.5 -90t68 -129t22.5 -155.5zM788 635q3 138 -67 217.5t-195 79.5q-115 0 -191.5 -78t-96.5 -219h550z
M772 1460l-250 -282l-71 59l225 297z" />
    <glyph glyph-name="ecircumflex" unicode="&#xea;" horiz-adv-x="1030" 
d="M926 627q0 -53 -4 -90h-691q-7 -227 81.5 -335t269.5 -108q154 0 286 60l25 -109q-150 -61 -340 -61q-459 0 -459 522q0 232 119 380t322 148q101 0 178 -32.5t122.5 -90t68 -129t22.5 -155.5zM788 635q3 138 -67 217.5t-195 79.5q-115 0 -191.5 -78t-96.5 -219h550z
M795 1249l-68 -65l-199 178l-198 -178l-62 61l264 264z" />
    <glyph glyph-name="edieresis" unicode="&#xeb;" horiz-adv-x="1030" 
d="M926 627q0 -53 -4 -90h-691q-7 -227 81.5 -335t269.5 -108q154 0 286 60l25 -109q-150 -61 -340 -61q-459 0 -459 522q0 232 119 380t322 148q101 0 178 -32.5t122.5 -90t68 -129t22.5 -155.5zM788 635q3 138 -67 217.5t-195 79.5q-115 0 -191.5 -78t-96.5 -219h550z
M807 1348q0 -37 -25.5 -62.5t-62.5 -25.5t-62.5 25.5t-25.5 62.5q0 38 25.5 63t62.5 25t62.5 -25t25.5 -63zM430 1348q0 -37 -25.5 -62.5t-62.5 -25.5q-38 0 -63 25.5t-25 62.5q0 38 25 63t63 25q37 0 62.5 -25t25.5 -63z" />
    <glyph glyph-name="igrave" unicode="&#xec;" horiz-adv-x="522" 
d="M326 0h-129v1018h129v-1018zM344 1237l-74 -59l-247 282l98 74z" />
    <glyph glyph-name="iacute" unicode="&#xed;" horiz-adv-x="522" 
d="M326 0h-129v1018h129v-1018zM498 1460l-250 -282l-72 59l225 297z" />
    <glyph glyph-name="icircumflex" unicode="&#xee;" horiz-adv-x="522" 
d="M326 0h-129v1018h129v-1018zM500 1249l-66 -65l-176 178l-174 -178l-64 61l242 262z" />
    <glyph glyph-name="idieresis" unicode="&#xef;" horiz-adv-x="522" 
d="M326 0h-129v1018h129v-1018zM520 1348q0 -37 -25.5 -62.5t-62.5 -25.5t-62.5 25.5t-25.5 62.5q0 38 25.5 63t62.5 25t62.5 -25t25.5 -63zM178 1348q0 -37 -25.5 -62.5t-62.5 -25.5q-38 0 -63 25.5t-25 62.5q0 38 25 63t63 25q37 0 62.5 -25t25.5 -63z" />
    <glyph glyph-name="eth" unicode="&#xf0;" horiz-adv-x="1105" 
d="M1010 551q0 -141 -36 -251t-100 -178t-149 -103t-186 -35q-208 0 -328.5 132t-120.5 390q0 145 54.5 264t164 191.5t256.5 72.5q82 0 150.5 -28t101.5 -86q-15 29 -39.5 70t-29.5 50q-53 97 -148 201l-221 -100l-60 76l209 94q-64 61 -174 147l133 58q95 -78 164 -150
l221 96l60 -76l-213 -94q139 -166 215 -354.5t76 -386.5zM874 535q0 184 -82 289.5t-239 105.5q-137 0 -232.5 -106.5t-95.5 -307.5q0 -202 89.5 -314t246.5 -112q138 0 225.5 109.5t87.5 335.5z" />
    <glyph glyph-name="ntilde" unicode="&#xf1;" horiz-adv-x="1185" 
d="M989 0h-129v659q0 136 -46 203.5t-161 67.5q-144 0 -235.5 -125.5t-91.5 -319.5v-485h-129v1018h131q0 -138 -19 -238l4 -2q44 119 140 187.5t229 68.5q307 0 307 -325v-709zM934 1380q-74 -141 -205 -141q-44 0 -84.5 18.5t-65 40t-56.5 40t-62 18.5q-71 0 -127 -99
l-70 56q77 141 207 141q44 0 84 -18.5t64.5 -40t56 -40t61.5 -18.5q73 0 129 99z" />
    <glyph glyph-name="ograve" unicode="&#xf2;" horiz-adv-x="1105" 
d="M1014 524q0 -150 -56.5 -271.5t-167 -195t-255.5 -73.5q-209 0 -326 131t-117 391q0 108 32 203t91.5 167.5t151 115t202.5 42.5q93 0 170.5 -27t140.5 -85t98.5 -159.5t35.5 -238.5zM881 518q0 195 -83.5 303.5t-242.5 108.5q-65 0 -123 -25t-105 -74.5t-74.5 -130.5
t-27.5 -184q0 -203 87 -314.5t245 -111.5q137 0 230.5 108.5t93.5 319.5zM637 1237l-74 -59l-248 282l99 74z" />
    <glyph glyph-name="oacute" unicode="&#xf3;" horiz-adv-x="1105" 
d="M1014 524q0 -150 -56.5 -271.5t-167 -195t-255.5 -73.5q-209 0 -326 131t-117 391q0 108 32 203t91.5 167.5t151 115t202.5 42.5q93 0 170.5 -27t140.5 -85t98.5 -159.5t35.5 -238.5zM881 518q0 195 -83.5 303.5t-242.5 108.5q-65 0 -123 -25t-105 -74.5t-74.5 -130.5
t-27.5 -184q0 -203 87 -314.5t245 -111.5q137 0 230.5 108.5t93.5 319.5zM805 1460l-250 -282l-72 59l226 297z" />
    <glyph glyph-name="ocircumflex" unicode="&#xf4;" horiz-adv-x="1105" 
d="M1014 524q0 -150 -56.5 -271.5t-167 -195t-255.5 -73.5q-209 0 -326 131t-117 391q0 108 32 203t91.5 167.5t151 115t202.5 42.5q93 0 170.5 -27t140.5 -85t98.5 -159.5t35.5 -238.5zM881 518q0 195 -83.5 303.5t-242.5 108.5q-65 0 -123 -25t-105 -74.5t-74.5 -130.5
t-27.5 -184q0 -203 87 -314.5t245 -111.5q137 0 230.5 108.5t93.5 319.5zM817 1249l-67 -65l-199 178l-199 -178l-61 61l264 264z" />
    <glyph glyph-name="otilde" unicode="&#xf5;" horiz-adv-x="1105" 
d="M1014 524q0 -150 -56.5 -271.5t-167 -195t-255.5 -73.5q-209 0 -326 131t-117 391q0 108 32 203t91.5 167.5t151 115t202.5 42.5q93 0 170.5 -27t140.5 -85t98.5 -159.5t35.5 -238.5zM881 518q0 195 -83.5 303.5t-242.5 108.5q-65 0 -123 -25t-105 -74.5t-74.5 -130.5
t-27.5 -184q0 -203 87 -314.5t245 -111.5q137 0 230.5 108.5t93.5 319.5zM895 1380q-74 -141 -205 -141q-44 0 -84.5 18.5t-65 40t-56.5 40t-62 18.5q-72 0 -127 -99l-70 56q77 141 207 141q44 0 84 -18.5t64.5 -40t56 -40t61.5 -18.5q74 0 129 99z" />
    <glyph glyph-name="odieresis" unicode="&#xf6;" horiz-adv-x="1105" 
d="M1014 524q0 -150 -56.5 -271.5t-167 -195t-255.5 -73.5q-209 0 -326 131t-117 391q0 108 32 203t91.5 167.5t151 115t202.5 42.5q93 0 170.5 -27t140.5 -85t98.5 -159.5t35.5 -238.5zM881 518q0 195 -83.5 303.5t-242.5 108.5q-65 0 -123 -25t-105 -74.5t-74.5 -130.5
t-27.5 -184q0 -203 87 -314.5t245 -111.5q137 0 230.5 108.5t93.5 319.5zM827 1348q0 -37 -25.5 -62.5t-62.5 -25.5t-62.5 25.5t-25.5 62.5q0 38 25.5 63t62.5 25t62.5 -25t25.5 -63zM451 1348q0 -37 -26 -62.5t-63 -25.5q-38 0 -63 25.5t-25 62.5q0 38 25 63t63 25
q37 0 63 -25t26 -63z" />
    <glyph glyph-name="divide" unicode="&#xf7;" horiz-adv-x="1126" 
d="M657 1020q0 -41 -28.5 -69.5t-69.5 -28.5q-40 0 -69 28.5t-29 69.5t29 69.5t69 28.5q41 0 69.5 -28.5t28.5 -69.5zM1036 555h-946v109h946v-109zM657 195q0 -40 -28.5 -68.5t-69.5 -28.5q-40 0 -69 28.5t-29 68.5q0 41 29 69.5t69 28.5q41 0 69.5 -28.5t28.5 -69.5z" />
    <glyph glyph-name="oslash" unicode="&#xf8;" horiz-adv-x="1105" 
d="M1014 524q0 -150 -56 -271.5t-165.5 -195t-253.5 -73.5q-83 0 -154 22l-84 -213l-96 35l88 219q-103 63 -152 183.5t-49 275.5q0 108 32 203t91.5 167.5t151.5 115t204 42.5q49 0 111 -10l76 190l96 -34l-78 -189q238 -116 238 -467zM885 518q0 274 -156 365l-299 -772
q53 -23 129 -23q66 0 123 25.5t103.5 76t73 135t26.5 193.5zM639 924q-48 10 -88 10q-61 0 -117 -22.5t-105 -69.5t-78.5 -131t-29.5 -195q0 -116 31.5 -206.5t91.5 -141.5z" />
    <glyph glyph-name="ugrave" unicode="&#xf9;" horiz-adv-x="1185" 
d="M989 0h-131q0 138 19 238l-5 2q-44 -119 -139.5 -187.5t-228.5 -68.5q-307 0 -307 325v709h129v-660q0 -136 45 -203t161 -67q144 0 236 125t92 319v486h129v-1018zM657 1237l-73 -59l-248 282l98 74z" />
    <glyph glyph-name="uacute" unicode="&#xfa;" horiz-adv-x="1185" 
d="M989 0h-131q0 138 19 238l-5 2q-44 -119 -139.5 -187.5t-228.5 -68.5q-307 0 -307 325v709h129v-660q0 -136 45 -203t161 -67q144 0 236 125t92 319v486h129v-1018zM850 1460l-250 -282l-72 59l226 297z" />
    <glyph glyph-name="ucircumflex" unicode="&#xfb;" horiz-adv-x="1185" 
d="M989 0h-131q0 138 19 238l-5 2q-44 -119 -139.5 -187.5t-228.5 -68.5q-307 0 -307 325v709h129v-660q0 -136 45 -203t161 -67q144 0 236 125t92 319v486h129v-1018zM856 1249l-68 -65l-198 178l-199 -178l-61 61l264 264z" />
    <glyph glyph-name="udieresis" unicode="&#xfc;" horiz-adv-x="1185" 
d="M989 0h-131q0 138 19 238l-5 2q-44 -119 -139.5 -187.5t-228.5 -68.5q-307 0 -307 325v709h129v-660q0 -136 45 -203t161 -67q144 0 236 125t92 319v486h129v-1018zM868 1348q0 -37 -25.5 -62.5t-62.5 -25.5t-62.5 25.5t-25.5 62.5q0 38 25.5 63t62.5 25t62.5 -25
t25.5 -63zM492 1348q0 -37 -26 -62.5t-63 -25.5q-38 0 -63 25.5t-25 62.5q0 38 25 63t63 25q37 0 63 -25t26 -63z" />
    <glyph glyph-name="yacute" unicode="&#xfd;" horiz-adv-x="950" 
d="M926 1018l-424 -1122q-88 -235 -190 -330.5t-269 -95.5q-44 0 -102 12l14 119q53 -17 117 -17q95 0 163.5 63t133.5 228l49 125l-393 1018h151l230 -627q41 -120 77 -235h2q15 58 103 309l196 553h142zM739 1460l-250 -282l-71 59l225 297z" />
    <glyph glyph-name="thorn" unicode="&#xfe;" horiz-adv-x="1142" 
d="M1044 555q0 -272 -139 -418.5t-377 -146.5q-113 0 -202 12v-516h-129v2009h129v-469q0 -164 -15 -240l4 -2q43 115 137 182.5t216 67.5q182 0 279 -121.5t97 -357.5zM909 543q0 186 -65 286.5t-197 100.5q-78 0 -142 -42.5t-101.5 -109t-57.5 -141t-20 -145.5v-371
q85 -31 213 -31q174 0 272 111t98 342z" />
    <glyph glyph-name="ydieresis" unicode="&#xff;" horiz-adv-x="950" 
d="M926 1018l-424 -1122q-88 -235 -190 -330.5t-269 -95.5q-44 0 -102 12l14 119q53 -17 117 -17q95 0 163.5 63t133.5 228l49 125l-393 1018h151l230 -627q41 -120 77 -235h2q15 58 103 309l196 553h142zM756 1348q0 -37 -25.5 -62.5t-62.5 -25.5t-62.5 25.5t-25.5 62.5
q0 38 25.5 63t62.5 25t62.5 -25t25.5 -63zM379 1348q0 -37 -25.5 -62.5t-62.5 -25.5q-38 0 -63 25.5t-25 62.5q0 38 25 63t63 25q37 0 62.5 -25t25.5 -63z" />
    <glyph glyph-name="dotlessi" unicode="&#x131;" horiz-adv-x="522" 
d="M326 0h-129v1018h129v-1018z" />
    <glyph glyph-name="Lslash" unicode="&#x141;" horiz-adv-x="886" 
d="M872 0h-659v764l-178 -82l-33 98l211 97v505h131v-444l248 111l33 -97l-281 -127v-716h528v-109z" />
    <glyph glyph-name="lslash" unicode="&#x142;" horiz-adv-x="583" 
d="M561 985l-199 -115v-870h-129v797l-143 -84l-41 90l184 106v586h129v-512l158 92z" />
    <glyph glyph-name="OE" unicode="&#x152;" horiz-adv-x="1771" 
d="M1612 0h-680q-122 -16 -227 -16q-299 0 -453 186t-154 508q0 170 51 308t138.5 227.5t203.5 137.5t248 48q94 0 201 -17h672v-106h-551v-510h524v-104h-524v-553h551v-109zM930 123v1137q-106 28 -203 28q-99 0 -187 -39.5t-155 -111.5t-106 -184t-39 -248t30 -246.5
t88.5 -192t151 -126t211.5 -44.5q110 0 209 27z" />
    <glyph glyph-name="oe" unicode="&#x153;" horiz-adv-x="1806" 
d="M1702 625q0 -6 -4 -76h-690q-9 -238 78.5 -346.5t269.5 -108.5q157 0 289 60l24 -109q-150 -61 -340 -61q-304 0 -401 235q-125 -235 -396 -235q-208 0 -325 131t-117 391q0 108 32 203t91.5 167.5t151 115t202.5 42.5q126 0 227 -55t154 -166q53 102 145.5 161.5
t217.5 59.5q100 0 177 -32.5t122.5 -90t68.5 -129.5t23 -157zM1563 645q3 130 -67 209.5t-193 79.5q-114 0 -191.5 -77.5t-97.5 -211.5h549zM879 518q0 195 -83.5 303.5t-242.5 108.5q-137 0 -232.5 -106.5t-95.5 -307.5q0 -203 86 -314.5t244 -111.5q137 0 230.5 108.5
t93.5 319.5z" />
    <glyph glyph-name="Scaron" unicode="&#x160;" horiz-adv-x="1032" 
d="M913 391q0 -182 -135 -294.5t-360 -112.5q-165 0 -293 39l22 129q141 -54 281 -54q72 0 133 15.5t110 47.5t77 86.5t28 127.5q0 55 -22.5 98t-60.5 72.5t-87.5 54t-104 45.5t-108.5 43.5t-103.5 52.5t-87.5 67t-60.5 92t-22.5 124q0 166 120.5 270.5t335.5 104.5
q123 0 248 -27l-16 -119q-119 37 -240 37q-156 0 -235.5 -67.5t-79.5 -184.5q0 -53 22.5 -95.5t61 -71t88 -53t104.5 -45.5t109.5 -43.5t104 -52.5t88 -67.5t61 -93.5t22.5 -125zM829 1665l-311 -170l-317 164l47 86l276 -133l264 133z" />
    <glyph glyph-name="scaron" unicode="&#x161;" horiz-adv-x="882" 
d="M766 299q0 -135 -113.5 -225t-304.5 -90q-136 0 -227 26l18 123q103 -39 232 -39q116 0 189 51t73 136q0 53 -28.5 89t-74 54.5t-100.5 33t-110 33t-100.5 46t-74 80t-28.5 126.5q0 130 100.5 210.5t284.5 80.5q109 0 205 -22l-17 -111q-109 31 -207 31
q-116 0 -175.5 -46t-59.5 -128q0 -53 28.5 -89t74.5 -55.5t101 -34.5t110 -33.5t101 -45.5t74.5 -78t28.5 -123zM707 1446l-265 -262l-262 258l66 67l198 -180l199 180z" />
    <glyph glyph-name="Ydieresis" unicode="&#x178;" horiz-adv-x="1062" 
d="M1034 1382l-442 -878v-504h-131v504l-432 878h145l246 -514q54 -110 110 -250h2q32 81 123 271l240 493h139zM842 1591q0 -37 -24.5 -61.5t-61.5 -24.5t-62.5 24.5t-25.5 61.5t25.5 62.5t62.5 25.5t61.5 -25.5t24.5 -62.5zM408 1591q0 -36 -26 -61t-63 -25t-61.5 24.5
t-24.5 61.5t24.5 62.5t61.5 25.5t63 -25.5t26 -62.5z" />
    <glyph glyph-name="Zcaron" unicode="&#x17d;" horiz-adv-x="1105" 
d="M1016 0h-920v92l637 985q60 93 131 193q-160 -4 -340 -4h-405v116h889v-94l-672 -1034q-51 -81 -92 -139q49 4 377 4h395v-119zM874 1665l-311 -170l-317 164l47 86l276 -133l265 133z" />
    <glyph glyph-name="zcaron" unicode="&#x17e;" horiz-adv-x="911" 
d="M801 0h-701v90l545 817q-140 -4 -305 -4h-229v115h680v-88l-541 -815q132 4 311 4h240v-119zM719 1446l-264 -262l-262 258l65 67l199 -180l198 180z" />
    <glyph glyph-name="florin" unicode="&#x192;" horiz-adv-x="886" 
d="M422 723l-57 -541q-30 -277 -113.5 -391.5t-276.5 -114.5q-73 0 -147 19l25 115q92 -27 151 -27q76 0 118.5 31t67.5 107.5t41 223.5l60 578h-260v100h272l31 301q21 182 113.5 283.5t259.5 101.5q73 0 143 -12l-19 -108q-72 16 -153 16q-95 0 -146 -63.5t-65 -196.5
l-33 -322h354v-100h-366z" />
    <glyph glyph-name="circumflex" unicode="&#x2c6;" horiz-adv-x="897" 
d="M707 1249l-68 -65l-199 178l-198 -178l-62 61l264 264z" />
    <glyph glyph-name="caron" unicode="&#x2c7;" horiz-adv-x="897" 
d="M700 1446l-264 -262l-262 258l66 67l198 -180l199 180z" />
    <glyph glyph-name="breve" unicode="&#x2d8;" horiz-adv-x="860" 
d="M573 1466h95q0 -106 -61.5 -176.5t-180.5 -70.5q-117 0 -176.5 71t-59.5 176h95q0 -62 38 -104.5t105 -42.5q68 0 106.5 39t38.5 108z" />
    <glyph glyph-name="dotaccent" unicode="&#x2d9;" horiz-adv-x="575" 
d="M379 1348q0 -37 -27 -65t-65 -28t-65 27.5t-27 65.5t27 65t65 27q39 0 65.5 -26.5t26.5 -65.5z" />
    <glyph glyph-name="ring" unicode="&#x2da;" horiz-adv-x="808" 
d="M618 1337q0 -84 -64 -147.5t-151 -63.5q-90 0 -151.5 57.5t-61.5 147.5q0 87 65.5 149t152.5 62q89 0 149.5 -58.5t60.5 -146.5zM522 1333q0 51 -33.5 86t-82.5 35q-51 0 -85 -35t-34 -86q0 -50 34.5 -85.5t84.5 -35.5q49 0 82.5 35.5t33.5 85.5z" />
    <glyph glyph-name="ogonek" unicode="&#x2db;" horiz-adv-x="1140" 
d="M199 14l127 -14q-94 -58 -141.5 -118.5t-47.5 -114.5q0 -34 19.5 -52t52.5 -18q48 0 92 65l68 -51q-35 -62 -89 -95.5t-118 -33.5q-75 0 -117.5 37.5t-42.5 108.5q0 77 54 154t143 132z" />
    <glyph glyph-name="tilde" unicode="&#x2dc;" horiz-adv-x="1038" 
d="M854 1380q-74 -141 -205 -141q-44 0 -84.5 18.5t-65 40t-56.5 40t-62 18.5q-71 0 -127 -99l-70 56q77 141 207 141q44 0 84 -18.5t64.5 -40t56 -40t61.5 -18.5q73 0 129 99z" />
    <glyph glyph-name="hungarumlaut" unicode="&#x2dd;" horiz-adv-x="993" 
d="M840 1423l-262 -239l-68 61l242 258zM494 1436l-246 -252l-70 61l225 266z" />
    <glyph glyph-name="Delta" unicode="&#x394;" horiz-adv-x="1234" 
d="M1174 0h-1113v92l478 1290h157l478 -1290v-92zM1016 115l-371 1040q-16 45 -33 115h-2q-7 -32 -35 -121l-370 -1034h811z" />
    <glyph glyph-name="Delta" unicode="&#x2206;" horiz-adv-x="1234" 
d="M1174 0h-1113v92l478 1290h157l478 -1290v-92zM1016 115l-371 1040q-16 45 -33 115h-2q-7 -32 -35 -121l-370 -1034h811z" />
    <glyph glyph-name="Omega" unicode="&#x3a9;" horiz-adv-x="1482" 
d="M1386 0h-468v113q75 61 126 116.5t94.5 126t65 156t21.5 188.5q0 169 -53.5 300t-164.5 209.5t-266 78.5q-99 0 -186.5 -40t-153 -113t-103.5 -182.5t-38 -241.5q0 -198 70 -332t237 -266v-113h-471v115h320q-139 101 -218 248.5t-79 334.5q0 164 50.5 298t138 221.5
t203 134.5t247.5 47q130 0 240 -43t192 -126.5t128 -214.5t46 -298q0 -195 -85.5 -347t-221.5 -255h329v-115z" />
    <glyph glyph-name="Omega" unicode="&#x2126;" horiz-adv-x="1482" 
d="M1386 0h-468v113q75 61 126 116.5t94.5 126t65 156t21.5 188.5q0 169 -53.5 300t-164.5 209.5t-266 78.5q-99 0 -186.5 -40t-153 -113t-103.5 -182.5t-38 -241.5q0 -198 70 -332t237 -266v-113h-471v115h320q-139 101 -218 248.5t-79 334.5q0 164 50.5 298t138 221.5
t203 134.5t247.5 47q130 0 240 -43t192 -126.5t128 -214.5t46 -298q0 -195 -85.5 -347t-221.5 -255h329v-115z" />
    <glyph glyph-name="pi" unicode="&#x3c0;" horiz-adv-x="1300" 
d="M1225 911h-277q0 -413 41 -618q21 -111 49 -154t74 -43t100 15l21 -107q-56 -16 -133 -16q-102 0 -156.5 63t-85.5 219q-39 204 -39 641h-391q6 -484 -135 -915l-150 8q167 467 158 907h-272v107h1196v-107z" />
    <glyph glyph-name="uni060C" unicode="&#x60c;" horiz-adv-x="425" 
d="M213 -14q-61 0 -86 59q-36 82 28 208q50 100 156 202l60 -52q-60 -64 -87.5 -122t-25.5 -95t21 -63q33 -44 9.5 -90.5t-75.5 -46.5z" />
    <glyph glyph-name="uni0615" unicode="&#x615;" horiz-adv-x="675" 
d="M37 1546v76h106v385h84v-154q0 -86 -6 -98h2q26 50 79 80.5t110 30.5q107 0 139 -78t0 -242h-514zM227 1622h238q18 76 1.5 121t-67.5 45q-63 0 -109.5 -47.5t-62.5 -118.5z" />
    <glyph glyph-name="uni061B" unicode="&#x61b;" horiz-adv-x="569" 
d="M135 84q0 40 28.5 69t69.5 29q40 0 69.5 -29t29.5 -69q0 -41 -29.5 -70.5t-69.5 -29.5q-41 0 -69.5 29.5t-28.5 70.5zM236 598q-61 0 -87 59q-35 82 26 207q51 102 159 205l57 -53q-59 -64 -86 -121.5t-25 -94.5t21 -63q32 -46 9.5 -92.5t-74.5 -46.5z" />
    <glyph glyph-name="uni061F" unicode="&#x61f;" horiz-adv-x="940" 
d="M604 334h-127q21 68 21 123q0 56 -18 106.5t-47.5 89.5t-64.5 76.5l-70 75t-64.5 77t-47.5 91.5t-18 110q0 166 124 278t326 112q81 0 156 -17l-18 -117q-93 19 -152 19q-141 0 -217 -74t-76 -184q0 -65 33 -125.5t79.5 -111t93 -103t79.5 -124.5t33 -153q0 -66 -25 -149
zM541 -16q-41 0 -70 28.5t-29 69.5q0 40 29 68t70 28t69.5 -28t28.5 -68q0 -41 -28.5 -69.5t-69.5 -28.5z" />
    <glyph glyph-name="uni0640" unicode="&#x640;" horiz-adv-x="245" 
d="M0 0v104h250v-104h-250z" />
    <glyph glyph-name="uni064F" unicode="&#x64f;" 
d="M0 1661l-16 70l163 34q-16 37 -16 78q0 74 50 119t126 45q62 0 103 -37t41 -96q0 -68 -46.5 -102.5t-130.5 -51.5zM229 1784l31 6q60 10 85.5 28.5t25.5 49.5q0 29 -19 47t-51 18q-42 0 -65 -23t-23 -65q0 -17 4 -32.5t8 -22.5z" />
    <glyph glyph-name="uni0653" unicode="&#x653;" 
d="M236 1645l-62 75l160 121l6 -5q5 -6 13.5 -13t20.5 -16.5t28.5 -18.5t34.5 -16.5t41 -12t46 -4.5q36 0 72 9.5t58.5 21t45.5 28t29 22t12 11.5v-118l-5 -5q-6 -5 -15 -11.5t-22 -15t-31.5 -16.5t-40 -15t-50 -11t-59.5 -4q-51 0 -98.5 18t-62.5 29.5t-23 19.5z" />
    <glyph glyph-name="uni0654" unicode="&#x654;" 
d="M96 1636v86q100 0 162 -10q-33 14 -51.5 46.5t-18.5 64.5q0 76 59 130t177 54q63 0 104 -8l-14 -86q-50 8 -100 8q-60 0 -91.5 -25.5t-31.5 -68.5q0 -47 42 -76t130 -29h106v-86h-473z" />
    <glyph glyph-name="uni0655" unicode="&#x655;" 
d="M100 -498v86q96 0 133 -6q-45 25 -45 84q0 69 55.5 115.5t151.5 46.5q63 0 107 -10l-15 -88q-49 12 -96 12q-45 0 -72.5 -20.5t-27.5 -53.5q0 -80 139 -80h121v-86h-451z" />
    <glyph glyph-name="uni0656" unicode="&#x656;" 
d="M150 -655v376h104v-354z" />
    <glyph glyph-name="uni0658" unicode="&#x658;" horiz-adv-x="53" 
d="M573 1874h95q0 -106 -61.5 -177t-180.5 -71q-117 0 -176.5 71t-59.5 177h95q0 -62 38 -105t105 -43q68 0 106.5 39.5t38.5 108.5z" />
    <glyph glyph-name="uni0660" unicode="&#x660;" horiz-adv-x="782" 
d="M500 594q0 -46 -31.5 -77.5t-77.5 -31.5t-77 31.5t-31 77.5q0 44 31 75t77 31t77.5 -31t31.5 -75z" />
    <glyph glyph-name="uni0661" unicode="&#x661;" horiz-adv-x="634" 
d="M367 1229v-1229h-131v1229h131z" />
    <glyph glyph-name="uni0662" unicode="&#x662;" horiz-adv-x="1097" 
d="M367 0h-131v1229h131v-185q0 -151 54 -218.5t177 -67.5q121 0 171 73t50 209v189h129v-178q0 -197 -96 -297.5t-270 -100.5q-73 0 -136 26t-90 71q11 -125 11 -172v-578z" />
    <glyph glyph-name="uni0663" unicode="&#x663;" horiz-adv-x="1341" 
d="M236 0v1229h131v-248q0 -98 40.5 -159.5t127.5 -61.5q37 0 63.5 12t41 30.5t22.5 49.5t10 58t2 67v252h119v-250q0 -58 4.5 -93t19.5 -66.5t46.5 -45.5t82.5 -14q36 0 61.5 8.5t49 31t35.5 67.5t12 112v250h127v-236q0 -338 -285 -338q-65 0 -127 28.5t-90 90.5
q-54 -119 -194 -119q-56 0 -107 26t-72 71q11 -125 11 -174v-578h-131z" />
    <glyph glyph-name="uni0664" unicode="&#x664;" horiz-adv-x="878" 
d="M770 1266l-12 -107q-80 23 -168 23q-42 0 -88.5 -11.5t-95.5 -36t-81 -73t-32 -113.5q0 -102 67.5 -142t206.5 -40h166l-8 -78q-87 -50 -139.5 -81.5t-115.5 -72.5t-98.5 -71t-68.5 -66t-47 -69.5t-14 -69.5q0 -80 49 -117t168 -37h383l-17 -104h-376q-163 0 -253 59
t-90 174q0 53 15.5 96.5t60 97.5t130.5 117.5t220 141.5q-180 0 -274 65t-94 193q0 84 51 161t150 128t223 51q48 0 93.5 -4.5t66.5 -9.5z" />
    <glyph glyph-name="uni0665" unicode="&#x665;" horiz-adv-x="1167" 
d="M1034 627q0 -138 -25 -249t-67.5 -184.5t-102 -122t-126 -70t-142.5 -21.5q-220 0 -327 152t-107 486q0 310 127.5 471.5t335.5 161.5q434 0 434 -624zM899 616q0 274 -78 402.5t-237 128.5q-137 0 -224.5 -128.5t-87.5 -385.5q0 -268 73 -408.5t239 -140.5
q148 0 231.5 131.5t83.5 400.5z" />
    <glyph glyph-name="uni0666" unicode="&#x666;" horiz-adv-x="954" 
d="M600 0v1124h-446v105h575v-1229h-129z" />
    <glyph glyph-name="uni0667" unicode="&#x667;" horiz-adv-x="1118" 
d="M1047 1227l-418 -1227h-154l-403 1229h147l250 -793q44 -129 86 -299h2q28 106 92 309l266 803z" />
    <glyph glyph-name="uni0668" unicode="&#x668;" horiz-adv-x="1118" 
d="M649 1229l398 -1213l-136 -39l-256 816q-55 176 -86 299h-4q-30 -127 -92 -310l-258 -782h-137l418 1229h153z" />
    <glyph glyph-name="uni0669" unicode="&#x669;" horiz-adv-x="1101" 
d="M977 0h-129v457q-149 -39 -299 -39q-108 0 -193.5 33t-137.5 89.5t-78.5 126t-26.5 146.5q0 202 135 318t370 116q78 0 168 -9.5t140 -19.5l51 -10v-1208zM848 559v549q-94 35 -250 35q-171 0 -260.5 -86.5t-89.5 -225.5q0 -143 86.5 -226t226.5 -83q123 0 287 37z" />
    <glyph glyph-name="uni066A" unicode="&#x66a;" horiz-adv-x="1492" 
d="M1284 1356l-989 -1407l-90 57l989 1407zM498 1151q0 -43 -30.5 -73.5t-74.5 -30.5t-74 30.5t-30 73.5q0 44 30 74t74 30t74.5 -30t30.5 -74zM991 211q0 44 30.5 74t74.5 30q43 0 73.5 -30t30.5 -74t-30.5 -74.5t-73.5 -30.5q-44 0 -74.5 30.5t-30.5 74.5z" />
    <glyph glyph-name="uni066B" unicode="&#x66b;" horiz-adv-x="614" 
d="M207 180q61 0 86 -59q36 -82 -28 -208q-50 -100 -156 -202l-60 51q60 63 87.5 121.5t25.5 96t-21 63.5q-33 44 -9.5 90.5t75.5 46.5z" />
    <glyph glyph-name="uni066C" unicode="&#x66c;" horiz-adv-x="614" 
d="M207 1040q61 0 86 -59q36 -82 -28 -208q-50 -100 -156 -202l-60 52q60 64 87.5 122t25.5 95t-21 63q-33 44 -9.5 90.5t75.5 46.5z" />
    <glyph glyph-name="uni066D" unicode="&#x66d;" horiz-adv-x="1236" 
d="M420 109l-86 65l219 277l-342 94l35 102l329 -123l-14 353l111 2l-17 -355l330 123l37 -102l-344 -94l219 -277l-86 -65l-195 294z" />
    <glyph glyph-name="uni0670" unicode="&#x670;" horiz-adv-x="36" 
d="M254 1569l-104 -23v461h104v-438z" />
    <glyph glyph-name="uni06C3" unicode="&#x6c3;" horiz-adv-x="1216" 
d="M1020 0h-387q-282 0 -407.5 124t-125.5 355q0 103 32.5 193t93 160t157 110.5t215.5 40.5q206 0 314 -115t108 -336v-532zM891 104v398q0 199 -78 288t-229 89q-161 0 -254.5 -104t-93.5 -281q0 -201 99 -295.5t320 -94.5h236zM725 1174q-37 0 -62.5 26t-25.5 64
q0 37 25.5 62.5t62.5 25.5t63.5 -25t26.5 -63q0 -37 -26.5 -63.5t-63.5 -26.5zM449 1174q-37 0 -63 26t-26 64q0 37 26 62.5t63 25.5q38 0 64 -25t26 -63q0 -37 -26 -63.5t-64 -26.5z" />
    <glyph glyph-name="uni06D5" unicode="&#x6d5;" horiz-adv-x="1216" 
d="M1020 0h-387q-282 0 -407.5 124t-125.5 355q0 103 32.5 193t93 160t157 110.5t215.5 40.5q206 0 314 -115t108 -336v-532zM891 104v398q0 199 -78 288t-229 89q-161 0 -254.5 -104t-93.5 -281q0 -201 99 -295.5t320 -94.5h236z" />
    <glyph glyph-name="uni06F0" unicode="&#x6f0;" horiz-adv-x="782" 
d="M500 594q0 -46 -31.5 -77.5t-77.5 -31.5t-77 31.5t-31 77.5q0 44 31 75t77 31t77.5 -31t31.5 -75z" />
    <glyph glyph-name="uni06F1" unicode="&#x6f1;" horiz-adv-x="634" 
d="M367 1229v-1229h-131v1229h131z" />
    <glyph glyph-name="uni06F2" unicode="&#x6f2;" horiz-adv-x="1097" 
d="M367 0h-131v1229h131v-185q0 -151 54 -218.5t177 -67.5q121 0 171 73t50 209v189h129v-178q0 -197 -96 -297.5t-270 -100.5q-73 0 -136 26t-90 71q11 -125 11 -172v-578z" />
    <glyph glyph-name="uni06F3" unicode="&#x6f3;" horiz-adv-x="1341" 
d="M236 0v1229h131v-248q0 -98 40.5 -159.5t127.5 -61.5q37 0 63.5 12t41 30.5t22.5 49.5t10 58t2 67v252h119v-250q0 -58 4.5 -93t19.5 -66.5t46.5 -45.5t82.5 -14q36 0 61.5 8.5t49 31t35.5 67.5t12 112v250h127v-236q0 -338 -285 -338q-65 0 -127 28.5t-90 90.5
q-54 -119 -194 -119q-56 0 -107 26t-72 71q11 -125 11 -174v-578h-131z" />
    <glyph glyph-name="uni06F4" unicode="&#x6f4;" horiz-adv-x="1239" 
d="M236 0v1229h131v-146q0 -270 235 -319q-28 35 -47.5 97t-19.5 112q0 127 72 211t214 84q112 0 197 -54l-43 -96q-81 51 -168 51q-72 0 -112 -46.5t-40 -143.5q0 -62 26.5 -126t57.5 -95q79 9 170.5 53t175.5 119l62 -82q-109 -96 -231 -146.5t-238 -50.5q-234 0 -322 148
q11 -125 11 -172v-627h-131z" />
    <glyph glyph-name="uni06F5" unicode="&#x6f5;" horiz-adv-x="1228" 
d="M569 1018q-96 72 -250 149l87 103q335 -176 509.5 -403t174.5 -500q0 -185 -75 -284t-204 -99q-144 0 -201 143q-25 -63 -80 -103t-131 -40q-121 0 -190.5 90.5t-69.5 275.5q0 210 116.5 392.5t313.5 275.5zM958 352q0 174 -81 326t-224 276q-194 -90 -288.5 -246
t-94.5 -346q0 -143 37 -207.5t109 -64.5q35 0 60 17t38.5 41t26 48t30.5 41t43 17t43.5 -17t32 -41t28 -48t41 -41t62.5 -17q59 0 98 66t39 196z" />
    <glyph glyph-name="uni06F6" unicode="&#x6f6;" horiz-adv-x="1095" 
d="M242 -4l-129 29q92 263 252 462q-96 59 -146.5 152t-50.5 190q0 82 36.5 157t103 133t167.5 92t221 34q116 0 189 -18l-15 -105q-79 21 -172 21q-191 0 -296 -85t-105 -220q0 -72 40 -141t116 -117q214 205 522 280v-112q-513 -133 -733 -752z" />
    <glyph glyph-name="uni06F7" unicode="&#x6f7;" horiz-adv-x="1118" 
d="M1047 1227l-418 -1227h-154l-403 1229h147l250 -793q44 -129 86 -299h2q28 106 92 309l266 803z" />
    <glyph glyph-name="uni06F8" unicode="&#x6f8;" horiz-adv-x="1118" 
d="M649 1229l398 -1213l-136 -39l-256 816q-55 176 -86 299h-4q-30 -127 -92 -310l-258 -782h-137l418 1229h153z" />
    <glyph glyph-name="uni06F9" unicode="&#x6f9;" horiz-adv-x="1101" 
d="M977 0h-129v457q-149 -39 -299 -39q-108 0 -193.5 33t-137.5 89.5t-78.5 126t-26.5 146.5q0 202 135 318t370 116q78 0 168 -9.5t140 -19.5l51 -10v-1208zM848 559v549q-94 35 -250 35q-171 0 -260.5 -86.5t-89.5 -225.5q0 -143 86.5 -226t226.5 -83q123 0 287 37z" />
    <glyph glyph-name="endash" unicode="&#x2013;" horiz-adv-x="1126" 
d="M1126 555h-1126v109h1126v-109z" />
    <glyph glyph-name="emdash" unicode="&#x2014;" horiz-adv-x="2048" 
d="M1796 555h-1544v109h1544v-109z" />
    <glyph glyph-name="quoteleft" unicode="&#x2018;" horiz-adv-x="464" 
d="M375 1475q-59 -64 -86 -121.5t-25 -94.5t21 -63q32 -46 9 -92.5t-75 -46.5q-61 0 -87 59q-35 82 26 207q52 102 159 205z" />
    <glyph glyph-name="quoteright" unicode="&#x2019;" horiz-adv-x="464" 
d="M244 1516q60 0 85 -59q35 -82 -26 -206q-51 -102 -158 -204l-59 51q59 64 86 122t25.5 95t-21.5 63q-32 44 -8.5 91t76.5 47z" />
    <glyph glyph-name="quotesinglbase" unicode="&#x201a;" horiz-adv-x="464" 
d="M244 180q60 0 85 -58q36 -82 -27 -208q-50 -100 -157 -203l-59 51q59 64 86 122t25.5 95.5t-21.5 63.5q-32 44 -8.5 90.5t76.5 46.5z" />
    <glyph glyph-name="quotedblleft" unicode="&#x201c;" horiz-adv-x="813" 
d="M723 1475q-59 -64 -86.5 -121.5t-26 -94.5t20.5 -63q33 -46 10 -92.5t-76 -46.5q-60 0 -85 59q-35 82 27 208q50 101 157 204zM375 1475q-59 -64 -86 -121.5t-25 -94.5t21 -63q32 -46 9 -92.5t-75 -46.5q-61 0 -87 59q-35 82 26 207q52 102 159 205z" />
    <glyph glyph-name="quotedblright" unicode="&#x201d;" horiz-adv-x="813" 
d="M590 1516q61 0 86 -59q36 -81 -25 -205q-50 -102 -159 -205l-58 51q59 64 86 122t25 95t-21 63q-32 44 -9 91t75 47zM244 1516q60 0 85 -59q35 -82 -26 -206q-51 -102 -158 -204l-59 51q59 64 86 122t25.5 95t-21.5 63q-32 44 -8.5 91t76.5 47z" />
    <glyph glyph-name="quotedblbase" unicode="&#x201e;" horiz-adv-x="813" 
d="M590 180q61 0 87 -59q36 -82 -27 -207q-51 -100 -158 -203l-58 51q59 64 86 122t25 95.5t-21 63.5q-32 44 -9 90.5t75 46.5zM244 180q60 0 85 -58q36 -82 -27 -208q-50 -100 -157 -203l-59 51q59 64 86 122t25.5 95.5t-21.5 63.5q-32 44 -8.5 90.5t76.5 46.5z" />
    <glyph glyph-name="dagger" unicode="&#x2020;" horiz-adv-x="905" 
d="M797 1176h-295l28 -215l-32 -508h-90l-31 508l26 215h-294v100h294l-26 283h153l-28 -283h295v-100z" />
    <glyph glyph-name="daggerdbl" unicode="&#x2021;" horiz-adv-x="905" 
d="M797 618h-293l26 -278h-155l28 278h-294v101h294l-26 229l26 232h-294v100h294l-26 279h153l-26 -279h293v-100h-293l26 -232l-26 -229h293v-101z" />
    <glyph glyph-name="bullet" unicode="&#x2022;" horiz-adv-x="858" 
d="M637 608q0 -86 -61.5 -146.5t-147.5 -60.5t-146.5 60.5t-60.5 146.5t60.5 146.5t146.5 60.5t147.5 -60.5t61.5 -146.5z" />
    <glyph glyph-name="ellipsis" unicode="&#x2026;" horiz-adv-x="1275" 
d="M1137 82q0 -40 -29 -69t-70 -29q-40 0 -69 29t-29 69q0 41 29 69.5t69 28.5q41 0 70 -28.5t29 -69.5zM723 82q0 -40 -28.5 -69t-69.5 -29q-40 0 -68.5 29t-28.5 69q0 41 28.5 69.5t68.5 28.5q41 0 69.5 -28.5t28.5 -69.5zM309 82q0 -40 -28.5 -69t-69.5 -29q-40 0 -68 29
t-28 69q0 41 28 69.5t68 28.5q41 0 69.5 -28.5t28.5 -69.5z" />
    <glyph glyph-name="perthousand" unicode="&#x2030;" horiz-adv-x="2062" 
d="M643 1108q0 -149 -79 -235.5t-199 -86.5q-121 0 -190 71t-69 222q0 147 80 233.5t199 86.5q121 0 189.5 -70t68.5 -221zM530 1094q0 106 -36 157.5t-117 51.5q-73 0 -114.5 -57.5t-41.5 -153.5q0 -106 36 -158.5t116 -52.5q74 0 115.5 57.5t41.5 155.5zM1288 1346
l-1093 -1375l-82 64l1091 1376zM1294 305q0 -150 -79 -235.5t-199 -85.5q-258 0 -258 290q0 147 80 233.5t198 86.5q121 0 189.5 -69.5t68.5 -219.5zM1180 291q0 105 -35.5 157t-116.5 52q-73 0 -114.5 -57.5t-41.5 -153.5q0 -107 35.5 -159t116.5 -52q73 0 114.5 57.5
t41.5 155.5zM1933 305q0 -150 -79 -235.5t-199 -85.5q-121 0 -189.5 69.5t-68.5 220.5q0 147 80 233.5t198 86.5q121 0 189.5 -69.5t68.5 -219.5zM1821 291q0 104 -36.5 156.5t-117.5 52.5q-73 0 -114.5 -57.5t-41.5 -153.5q0 -107 36 -159t116 -52q74 0 116 57.5t42 155.5z
" />
    <glyph glyph-name="guilsinglleft" unicode="&#x2039;" horiz-adv-x="643" 
d="M471 319l-94 -63l-248 346l250 350l92 -59l-209 -289z" />
    <glyph glyph-name="guilsinglright" unicode="&#x203a;" horiz-adv-x="643" 
d="M514 608l-254 -352l-90 61l211 289l-207 285l92 61z" />
    <glyph glyph-name="fraction" unicode="&#x2044;" horiz-adv-x="434" 
d="M934 1577l-1290 -1851l-93 61l1293 1851z" />
    <glyph glyph-name="fraction" unicode="&#x2215;" horiz-adv-x="434" 
d="M934 1577l-1290 -1851l-93 61l1293 1851z" />
    <glyph glyph-name="Euro" unicode="&#x20ac;" horiz-adv-x="1212" 
d="M1153 98q-97 -60 -188.5 -87t-216.5 -27q-225 0 -359.5 128.5t-163.5 372.5h-196v95h190q-2 27 -2 82q0 46 4 124h-192v95h200q20 136 72 237.5t128.5 162t167 89.5t196.5 29q93 0 186.5 -24t155.5 -62l-48 -101q-134 84 -315 84q-75 0 -139.5 -23.5t-119.5 -72t-93 -130
t-53 -189.5h497v-95h-504q-4 -66 -4 -102q0 -69 2 -104h506v-95h-497q23 -191 127.5 -292t283.5 -101q175 0 332 103z" />
    <glyph glyph-name="trademark" unicode="&#x2122;" horiz-adv-x="1443" 
d="M1317 807h-107l-51 340l-14 119l-29 -101l-110 -358h-119l-109 362l-24 97l-6 -76l-58 -383h-98l86 575h145l107 -360l24 -102l19 92l117 370h141zM541 1300h-160v-493h-109v493h-159v82h428v-82z" />
    <glyph glyph-name="partialdiff" unicode="&#x2202;" horiz-adv-x="1308" 
d="M1143 850q0 -186 -41.5 -362.5t-132.5 -301.5q-66 -92 -167.5 -147t-223.5 -55q-197 0 -301.5 111t-104.5 308q0 207 134 344.5t345 137.5q132 0 225.5 -64.5t131.5 -171.5q4 148 4 195q-3 275 -135.5 416.5t-344.5 138.5l11 104q278 -5 439 -176t161 -477zM940 487
q0 127 -80 208t-223 81q-146 0 -240 -103.5t-94 -256.5q0 -157 79 -239.5t210 -82.5q150 0 249 113.5t99 279.5z" />
    <glyph glyph-name="product" unicode="&#x220f;" horiz-adv-x="1605" 
d="M1507 1382h-229v-1896h-127v1896h-694v-1896h-129v1896h-230v113h1409v-113z" />
    <glyph glyph-name="summation" unicode="&#x2211;" horiz-adv-x="1249" 
d="M1124 -514h-1050v98l659 924l-618 889v98h981v-113h-817l608 -870l-656 -907h893v-119z" />
    <glyph glyph-name="minus" unicode="&#x2212;" horiz-adv-x="1126" 
d="M1036 555h-946v109h946v-109z" />
    <glyph glyph-name="radical" unicode="&#x221a;" horiz-adv-x="1232" 
d="M1149 1552l-483 -1552h-146l-325 918h-195v100h297l215 -637q42 -122 82 -256h4q28 115 64 237l350 1190h137z" />
    <glyph glyph-name="infinity" unicode="&#x221e;" horiz-adv-x="1982" 
d="M1847 618q0 -136 -95.5 -230.5t-254.5 -94.5q-117 0 -238 63t-272 179q-74 -55 -126.5 -90.5t-121.5 -74.5t-134.5 -58t-127.5 -19q-165 0 -252.5 88.5t-87.5 222.5q0 137 95 231.5t251 94.5q120 0 241.5 -63.5t272.5 -178.5q155 116 273.5 179t234.5 63q164 0 253 -89
t89 -223zM1712 608q0 95 -57 152t-160 57q-81 0 -175.5 -52.5t-223.5 -150.5q135 -103 228.5 -155.5t180.5 -52.5q96 0 151.5 58t55.5 144zM889 608q-134 103 -229 156t-181 53q-96 0 -152.5 -59t-56.5 -144q0 -94 57 -151t162 -57q81 0 176.5 52.5t223.5 149.5z" />
    <glyph glyph-name="integral" unicode="&#x222b;" horiz-adv-x="686" 
d="M649 1880q-58 16 -108 16q-63 0 -96.5 -28t-51.5 -112t-18 -245q0 -147 11 -776.5t11 -871.5q0 -282 -71 -400t-226 -118q-50 0 -102 10v117q51 -15 106 -15q63 0 97 27t51.5 107.5t17.5 234.5q0 131 -10 772.5t-10 886.5q0 284 71.5 403t225.5 119q55 0 102 -12v-115z
" />
    <glyph glyph-name="approxequal" unicode="&#x2248;" horiz-adv-x="1126" 
d="M1020 760q-107 -107 -248 -107q-57 0 -105 12.5t-83 30.5t-69 36.5t-77 31t-92 12.5q-94 0 -196 -86l-44 94q113 105 248 105q65 0 125.5 -20t99.5 -43.5t93 -43.5t108 -20q52 0 97.5 22.5t99.5 69.5zM1020 426q-117 -96 -248 -96q-57 0 -105.5 12.5t-83.5 31t-69 36.5
t-77 30.5t-91 12.5q-94 0 -196 -86l-44 94q117 104 246 104q65 0 125 -20t98.5 -43.5t93.5 -43.5t111 -20q52 0 97.5 20t99.5 62z" />
    <glyph glyph-name="notequal" unicode="&#x2260;" horiz-adv-x="1130" 
d="M1012 393h-480l-124 -309h-113l125 309h-303v111h346l84 211h-430v108h473l129 320h115l-129 -320h307v-108h-350l-87 -211h437v-111z" />
    <glyph glyph-name="lessequal" unicode="&#x2264;" horiz-adv-x="1126" 
d="M967 334l-66 -101l-780 494l778 498l68 -92l-650 -404zM991 0h-856v109h856v-109z" />
    <glyph glyph-name="greaterequal" unicode="&#x2265;" horiz-adv-x="1126" 
d="M1006 731l-779 -498l-67 93l649 403l-649 395l65 101zM991 0h-856v109h856v-109z" />
    <glyph glyph-name="lozenge" unicode="&#x25ca;" horiz-adv-x="1257" 
d="M1171 684l-493 -700h-82l-510 716l498 699h75zM1032 674l-414 583l-391 -552l414 -576z" />
    <glyph glyph-name="apple" unicode="&#xf8ff;" horiz-adv-x="2129" 
d="M1538 694q0 -102 -38.5 -190.5t-100.5 -145.5v-153l-33 -10l64 -152l-62 -14l62 -144l-62 -16l23 -51l-58 -131h-98q-4 -37 -53 -61.5t-117 -24.5q-69 0 -117 24.5t-53 61.5h-96l-97 233l62 17l-62 149l68 18l-39 95v159q-62 60 -101.5 149.5t-39.5 186.5
q0 198 138.5 336.5t336.5 138.5q96 0 183.5 -37.5t151 -101t101 -151.5t37.5 -185zM1462 694q0 166 -116.5 283t-280.5 117t-280.5 -117t-116.5 -283q0 -88 36 -167t105 -136h133l-35 295q-15 -4 -28 -8t-25 -9t-18 -7q-16 -5 -24 11.5t-5.5 35.5t12.5 22q148 39 246 39
q118 0 250 -39q8 -2 10 -21.5t-5.5 -36t-23.5 -11.5q-17 9 -77 24l-31 -295h135q60 52 99.5 131.5t39.5 171.5zM1337 -76l-37 86l-505 -129l55 -135h432l33 76l-17 33l-157 -41l-23 55zM1327 246v84h-524v-123l35 -84zM1337 82l-39 96l-503 -131l36 -92zM1161 694
q-37 8 -96 8q-61 0 -98 -8l30 -303h136zM283 664l-228 -11v86l228 -10v-65zM2075 653l-228 11v65l226 10q2 -31 2 -86zM1108 1665l-10 -225q-1 2 -33 1t-33 -1l-8 225h84zM1794 1366l-166 -152l-45 48l152 163q27 -24 59 -59zM547 1260l-47 -43l-164 151q39 43 59 59z
M1077 731v6q0 3 -2.5 4t-5.5 -2q5 0 6 -2q-5 0 -6 -4q0 -2 1 -2q2 0 5 2v-2h2zM1053 735v6h-2v-6l-1 -2q-1 0 -1 2v6h-2v-6q0 -6 4 -3q2 1 2 3zM1044 731v2h-4v12h-2v-14h6zM1085 739v2q-7 0 -4 -4t0 -4v-2q7 0 3 5q-1 3 1 3zM1087 727q5 0 5 10.5t-5 10.5q7 -11 0 -21z
M1069 727q-7 10 0 21q-5 0 -5 -10.5t5 -10.5zM1061 731v2q-2 -1 -3 1q0 4 3 5v2q-5 2 -5 -5q-1 -5 3 -5h2z" />
    <glyph glyph-name="fi" unicode="&#xfb01;" horiz-adv-x="1200" 
d="M1004 0h-127v915h-502v-915h-129v915h-234v103h234v51q0 211 113 323.5t341 112.5q136 0 265 -39l-27 -108q-125 41 -246 41q-317 0 -317 -307v-74h629v-1018z" />
    <glyph glyph-name="fl" unicode="&#xfb02;" horiz-adv-x="1200" 
d="M1004 0h-127v1384q-119 17 -201 17q-156 0 -228.5 -64.5t-72.5 -208.5v-110h311v-103h-311v-915h-129v915h-234v103h234v131q0 171 111 263.5t333 92.5q132 0 314 -26v-1479z" />
    <glyph glyph-name="uniFD3E" unicode="&#xfd3e;" horiz-adv-x="667" 
d="M602 -399h-33q-152 0 -217 90t-65 270v416q0 117 -48.5 166.5t-177.5 56.5v107q134 7 180 53.5t46 167.5v284q0 359 282 359h33v-96q-110 0 -153 -56.5t-43 -197.5v-283q0 -244 -191 -283v-2q95 -15 143 -89.5t48 -194.5v-416q0 -141 43 -196.5t153 -55.5v-100z" />
    <glyph glyph-name="uniFD3F" unicode="&#xfd3f;" horiz-adv-x="659" 
d="M621 600q-127 -7 -175.5 -56.5t-48.5 -166.5v-416q0 -180 -65 -270t-217 -90h-33v100q110 0 153.5 55.5t43.5 196.5v416q0 120 48 194.5t142 89.5v2q-96 13 -143 86t-47 187v293q0 141 -43.5 197.5t-153.5 56.5v96h33q282 0 282 -359v-274q0 -128 45.5 -176t178.5 -55
v-107z" />
    <glyph glyph-name="uniFC5E" 
d="M-31 1653l-51 239l76 17l37 -172l119 24q-15 39 -15 76q0 73 51.5 121.5t128.5 48.5q61 0 97.5 -33t36.5 -90q0 -65 -39 -108t-109 -56zM225 1776l51 10q93 19 93 94q0 26 -17 40.5t-47 14.5q-41 0 -65.5 -26t-24.5 -68q0 -16 2.5 -32t4.5 -25zM250 1444
q-30 -64 -109 -64q-43 0 -68.5 25.5t-37.5 83.5l-15 72l72 12l14 -70q6 -29 17.5 -41t34.5 -12q29 0 43.5 22t9.5 56l-12 69l69 15l15 -72q11 -59 53 -59q35 0 48 26t7 68l-12 72l72 12l12 -72q14 -79 -22 -127.5t-117 -48.5q-48 0 -74 33z" />
    <glyph glyph-name="uniFC5F" 
d="M139 1559l-12 69l408 64l14 -70zM160 1417l-13 72l410 61l10 -69zM295 1792q-13 -29 -42.5 -46t-66.5 -17q-87 0 -106 108l-14 72l71 14l15 -70q4 -30 16 -42.5t35 -12.5q29 0 43 22t8 56l-10 72l69 12l15 -72q6 -32 18.5 -45.5t34.5 -13.5q69 3 55 94l-12 72l72 12
l12 -72q14 -78 -21.5 -126.5t-113.5 -49.5q-52 0 -78 33z" />
    <glyph glyph-name="uniFC60" 
d="M104 1874l-12 72l406 61l12 -70zM348 1614q-30 -64 -108 -64q-85 0 -105 109l-14 72l69 14l15 -72q6 -29 17.5 -41t33.5 -12q29 0 44 22t9 56l-10 69l68 15l14 -72q11 -59 53 -59q69 3 55 94l-12 70l72 14l12 -74q15 -76 -21 -124.5t-114 -51.5q-51 0 -78 35z" />
    <glyph glyph-name="uniFC61" 
d="M250 1444q-30 -64 -109 -64q-43 0 -68.5 25.5t-37.5 83.5l-15 72l72 12l14 -70q6 -29 17.5 -41t34.5 -12q29 0 43.5 22t9.5 56l-12 69l69 15l15 -72q11 -59 53 -59q35 0 48 26t7 68l-12 72l72 12l12 -72q14 -79 -22 -127.5t-117 -48.5q-48 0 -74 33zM-2 1663l-14 70
l159 32q-14 37 -14 80q0 73 49 117.5t125 44.5q63 0 103 -36.5t40 -96.5q0 -68 -46 -102.5t-130 -51.5zM225 1784l31 6q61 12 86 30t25 50q0 29 -19 47t-51 18q-42 0 -64 -23.5t-22 -64.5q0 -18 3.5 -34t7.5 -23z" />
    <glyph glyph-name="uniFC62" 
d="M164 1550l-12 70l409 61l10 -69zM326 1792q-13 -29 -42.5 -46t-66.5 -17q-87 0 -106 108l-15 72l72 14l14 -70q4 -30 16 -42.5t35 -12.5q29 0 43.5 22t8.5 56l-11 72l70 12l14 -72q11 -59 54 -59q69 3 55 94l-12 72l71 12l13 -72q14 -78 -22 -126.5t-114 -49.5
q-51 0 -77 33z" />
    <glyph glyph-name="uniFC63" 
d="M229 1575q-14 -28 -43 -45t-65 -17q-88 0 -107 107l-14 72l70 12l14 -68q6 -31 18 -43t35 -12q29 0 43 22t8 56l-10 70l70 14l14 -72q6 -32 18.5 -45.5t34.5 -13.5q68 3 54 94l-13 70l74 12l12 -70q14 -77 -21.5 -125t-113.5 -51q-52 0 -78 33zM240 1835l-72 -16v188h72
v-172z" />
    <glyph glyph-name="loop.init" horiz-adv-x="1253" 
d="M1057 0h-1057v104h195q32 0 62 -1.5t44 -2.5l14 -2q-178 103 -178 383q0 102 32.5 192t93 159.5t157 110t215.5 40.5q206 0 314 -115t108 -336v-532zM928 104v398q0 199 -78 288t-229 89q-161 0 -255 -104t-94 -281q0 -201 99.5 -295.5t320.5 -94.5h236z" />
    <glyph glyph-name="wasla" 
d="M223 1667h281v29q0 96 -22.5 132t-71.5 36q-70 0 -117.5 -55.5t-69.5 -141.5zM4 1585v82h119q34 126 109.5 202.5t187.5 76.5q93 0 139.5 -53t46.5 -193v-115h-602z" />
    <glyph glyph-name="hamza_medial" 
d="M100 1178v88q90 0 162 -11q-33 13 -51 45t-18 66q0 76 58.5 131t178.5 55q40 0 102 -8l-14 -88q-50 8 -98 8q-60 0 -91.5 -25t-31.5 -69q0 -46 41.5 -75t128.5 -29h106v-88h-473z" />
    <glyph glyph-name="xx.TahAbove" 
d="M557 1438q0 116 -96 116q-85 0 -159 -87t-77 -177h156q176 0 176 148zM227 1782v-178q0 -59 -14 -134h2q41 74 112 121t148 47q88 0 137.5 -50t49.5 -136q0 -115 -75 -179.5t-222 -64.5h-238v574h100z" />
    <glyph glyph-name="uni0651064B" 
d="M12 1874l-12 70l412 63l10 -70zM35 1733l-15 71l410 62l10 -70zM279 1473q-30 -64 -109 -64q-42 0 -68 26t-36 83l-15 71l70 13l14 -70q6 -29 17.5 -41t33.5 -12q30 0 45 21t9 56l-11 70l68 14l14 -73q11 -58 54 -58q69 3 55 93l-12 71l71 15l13 -74q15 -76 -21.5 -124.5
t-114.5 -51.5q-52 0 -77 35z" />
    <glyph glyph-name="uni0654064F" 
d="M43 1346v75q63 0 145 -10q-30 10 -53.5 37.5t-23.5 64.5q0 67 60.5 102.5t154.5 35.5q47 0 104 -11l-12 -75q-58 12 -101 12q-56 0 -86 -14t-30 -50t42 -64t119 -28h103v-75h-422zM18 1663l-14 70l160 32q-17 37 -17 78q0 73 51 118.5t126 45.5q63 0 103 -36.5t40 -96.5
q0 -68 -46 -102.5t-130 -51.5zM246 1784l30 6q61 12 86 30t25 50q0 29 -19 47t-51 18q-42 0 -65 -24t-23 -64q0 -18 4.5 -34t8.5 -23z" />
    <glyph glyph-name="uni06540652" 
d="M211 1700q-148 0 -148 147q0 69 45 114.5t115 45.5q148 0 148 -147q0 -68 -46.5 -114t-113.5 -46zM215 1765q35 0 56.5 24t21.5 66q0 46 -21 66.5t-53 20.5t-55 -23.5t-23 -63.5q0 -90 74 -90zM0 1307v75q26 0 54 -2t54.5 -4.5t36.5 -3.5q-30 10 -53.5 37t-23.5 64
q0 69 59.5 104t155.5 35q49 0 104 -10l-14 -76q-54 12 -99 12q-57 0 -87.5 -13.5t-30.5 -49.5t43 -64.5t120 -28.5h101v-75h-420z" />
    <glyph glyph-name="uni0654064B" 
d="M12 1872l-12 72l410 63l12 -70zM35 1733l-15 69l410 64l10 -70zM27 1393v75q62 0 145 -10q-30 10 -54 38t-24 65q0 68 59.5 102.5t155.5 34.5q50 0 105 -10l-13 -76q-58 12 -100 12q-57 0 -87 -13.5t-30 -49.5t42.5 -64.5t119.5 -28.5h100v-75h-419z" />
    <glyph glyph-name="uni0654064C" 
d="M78 1366v74q62 0 145 -10q-31 12 -54.5 39t-23.5 63q0 69 60 103t157 34q51 0 103 -10l-12 -76q-58 12 -101 12q-56 0 -86 -13.5t-30 -49.5t42 -64t119 -28h103v-74h-422zM51 1655l-51 231l76 17l35 -162l100 20q-14 39 -14 76q0 73 51.5 121.5t128.5 48.5q60 0 96.5 -33
t36.5 -90q0 -64 -40.5 -106.5t-111.5 -57.5zM287 1776l51 10q92 19 92 94q0 26 -17.5 40.5t-45.5 14.5q-41 0 -66 -26t-25 -68q0 -16 3 -32t5 -25z" />
    <glyph glyph-name="uni0654064E" 
d="M12 1874l-12 72l410 61l10 -70zM6 1532v74q50 0 146 -11q-32 12 -56 39t-24 64q0 69 60.5 104t156.5 35q38 0 104 -12l-14 -74q-48 10 -100 10q-58 0 -87.5 -13t-29.5 -50q0 -36 42.5 -64t121.5 -28h100v-74h-420z" />
    <glyph glyph-name="uni0655064D" 
d="M0 -655v69h418v-69h-418zM0 -537v70h418v-70h-418zM0 -414v72q13 0 145 -8q-31 10 -54 36.5t-23 63.5q0 67 59.5 102t153.5 35q49 0 104 -10l-14 -74q-80 11 -99 11q-57 0 -86.5 -13t-29.5 -49t42 -65t119 -29h101v-72h-418z" />
    <glyph glyph-name="uni06550650" 
d="M0 -655v69h420v-69h-420zM0 -530v73q63 0 145 -10q-31 12 -54 39t-23 63q0 69 59.5 104.5t155.5 35.5q32 0 104 -13l-14 -73q-45 10 -99 10q-57 0 -87.5 -13.5t-30.5 -50.5q0 -36 42.5 -64t120.5 -28h101v-73h-420z" />
    <glyph glyph-name="wasle" horiz-adv-x="225" 
d="M0 0v104h250v-104h-250z" />
    <glyph glyph-name="Kashida.Narrow" horiz-adv-x="387" 
d="M0 0v104h428v-104h-428z" />
    <glyph glyph-name="kashida.long" horiz-adv-x="448" 
d="M-2 0v104h453v-104h-453z" />
    <glyph glyph-name="grave.cap" horiz-adv-x="749" 
d="M541 1577l-31 -78l-350 119l47 111z" />
    <glyph glyph-name="acute.cap" horiz-adv-x="788" 
d="M584 1618l-353 -119l-30 78l336 152z" />
    <glyph glyph-name="dieresis.cap" horiz-adv-x="1118" 
d="M846 1591q0 -37 -24.5 -61.5t-61.5 -24.5t-62.5 24.5t-25.5 61.5t25.5 62.5t62.5 25.5t61.5 -25.5t24.5 -62.5zM412 1591q0 -37 -25.5 -61.5t-62.5 -24.5t-61.5 24.5t-24.5 61.5t24.5 62.5t61.5 25.5t62.5 -25.5t25.5 -62.5z" />
    <glyph glyph-name="circumflex.cap" horiz-adv-x="897" 
d="M762 1581l-49 -86l-275 131l-264 -131l-41 80l311 170z" />
    <glyph glyph-name="tilde.cap" horiz-adv-x="1056" 
d="M895 1653q-81 -137 -211 -137q-46 0 -88 18t-67.5 39t-58.5 39t-64 18q-36 0 -71.5 -25t-62.5 -71l-71 53q76 137 211 137q46 0 87.5 -17.5t67 -38.5t58 -38.5t63.5 -17.5q77 0 135 94z" />
    <glyph glyph-name="caron.cap" horiz-adv-x="897" 
d="M756 1665l-312 -170l-317 164l47 86l277 -133l264 133z" />
    <glyph glyph-name="ring.cap" horiz-adv-x="808" 
d="M608 1561q0 -78 -62 -139.5t-143 -61.5q-86 0 -143 54t-57 138q0 82 61 140.5t144 58.5q85 0 142.5 -54.5t57.5 -135.5zM512 1556q0 45 -31 78t-75 33q-45 0 -77 -33t-32 -78q0 -46 31.5 -78t77.5 -32q44 0 75 32t31 78z" />
    <glyph glyph-name="uni0627.short" horiz-adv-x="548" 
d="M209 0v1382h131v-1382h-131z" />
    <glyph glyph-name="uniFE8E.short" horiz-adv-x="548" 
d="M209 0v1382h131v-1278h240v-104h-371z" />
    <glyph glyph-name="uni0627.mini" horiz-adv-x="548" 
d="M209 0v1266h131v-1266h-131z" />
    <glyph glyph-name="uniFE8E.mini" horiz-adv-x="548" 
d="M209 0v1266h131v-1162h240v-104h-371z" />
    </font>
</defs>
</svg>
